<?xml version="1.0" standalone="no"?>
<!DOCTYPE svg PUBLIC "-//W3C//DTD SVG 1.1//EN" "http://www.w3.org/Graphics/SVG/1.1/DTD/svg11.dtd" >
<svg>
<metadata>
Created by FontForge 20110222 at Mon Mar  7 03:40:14 2011
 By www-data
Copyright Esselte New Media 1997
</metadata>
<defs>
<font id="Dymo" horiz-adv-x="400" >
  <font-face 
    font-family="Dymo"
    font-weight="400"
    font-stretch="normal"
    units-per-em="1000"
    panose-1="0 0 4 0 0 0 0 0 0 0"
    ascent="861"
    descent="-139"
    x-height="667"
    cap-height="667"
    bbox="-7 -108 1007 667"
    underline-thickness="45"
    underline-position="0"
    unicode-range="U+0020-2122"
  />
    <missing-glyph />
    <glyph glyph-name="space" unicode=" " horiz-adv-x="185" 
 />
    <glyph glyph-name="exclam" unicode="!" horiz-adv-x="213" 
d="M220 0h-227v667h227v-667zM124 513q0 -11 -3 -11q-6 0 -6 6q0 5 3 8q-6 2 -10 1q-7 -4 -13 -13q-5 -7 2 -24v-46l1.5 -46t1.5 -78q0 -40 8 -41q13 -1 18.5 7t2.5 16l2 204q0 10 -7 17zM79 445q0 -8 4 -6q4 1 4 6t1 15v11q-1 4 -4 4q-5 0 -5 -30zM81 271q7 -10 7 3v143
q0 9 -4 9q-5 1 -5 -6q0 1 0 -27q-1 -28 -1 -49q0 -65 3 -73zM146 295q2 14 3 43q2 37 -3 37q-6 0 -6 -5l-1 -74q0 -5 3 -5q3 -1 4 4zM90 186q5 -9 21 -9q9 0 16.5 5t5.5 7t-6 -2q-7 -4 -16 -4q-12 0 -20 8.5t-8 18.5q0 11 5 19q4 5 3 6q-3 3 -9 -6t-6 -22q0 -23 14 -21z
M114 190q22 0 22 30q0 22 -23 22q-7 0 -15 -9t-8 -20q0 -23 24 -23zM139 196q3 -2 7 6t4 16q0 14 -9 23t-16 9q-2 0 -3 -1l10.5 -7.5t10.5 -24.5q0 -9 -3 -14.5t-1 -6.5z" />
    <glyph glyph-name="quotedbl" unicode="&#x22;" horiz-adv-x="200" 
d="M207 0h-214v667h214v-667zM77 511q-16 0 -19 -5q-3 -4 1 -11q0 -25 2 -38q-1 7 -1 -30q0 -24 -3 -27l3 -9q2 -4 17 -4q6 0 6 10v105q0 9 -6 9zM140 511q-4 2 -14 0q-7 -10 -4 -16v-8l2 -13q1 -11 0 -17q-1 8 -4 -57q-6 0 3 -9q2 -4 17 -4q6 0 6 10v105q-2 13 -6 9z
M48 395q0 -2 3 -3q3 0 3 3q3 49 0 71q0 4 -4 4q-3 0 -3 -3zM111 408q0 -2 3 -3q3 0 3 3q2 13 0 75q0 4 -4 4q-3 0 -3 -3zM46 481q3 -7 7 -3q1 9 -3 13q-1 0 -4 -10z" />
    <glyph glyph-name="numbersign" unicode="#" 
d="M33 0v667h334v-667h-334zM40 7h320v653h-320v-653z" />
    <glyph glyph-name="dollar" unicode="$" 
d="M407 0h-414v667h414v-667zM212 544h-13q-3 0 -2 -13t-6.5 -17.5t-31.5 -5.5q-27 -1 -43 -6q-40 -14 -40 -80q0 -83 97 -80q9 0 10 -3q3 -6 6 -8q4 3 -1 14l12 9q-9 3 -40 9q-62 6 -62 62q0 67 64 67q37 0 37 -6v-93q-3 -9 -3 -17q0 -19 16 -19q2 0 1.5 6t8.5 6q6 0 5 7
q-2 7 -10 7l-2 104q0 8 7 8q52 0 78 -23q18 -16 16 -32q-2 -13 -1 -14q0 -4 9 -4q15 0 14 23q-2 34 -34 53q-26 15 -56 15q-3 0 -8.5 -2t-11.5 -1q0 8 -14 8q-4 0 -3 5q2 5 5 3l10 -7q2 7 -3 16t-11 9zM215 354q1 -10 15.5 -16.5t34.5 -4.5q24 3 40 -16t16 -42t-14 -41
q-18 -23 -54 -23q-9 0 -20 2l-19 3q-7 1 -8 7q-1 7 6 9q3 -3 11 -3q-4 36 -7 92q-1 22 -8 22q-13 0 -11 -32q1 -11 2.5 -23t1.5 -20q0 -10 -5 -15.5t-5 -13.5q0 -3 4 -4t4 -11q0 -11 -12 -11q-38 0 -63 12t-25 32q0 32 -24 32q-15 0 -15 -19q0 -26 26 -48q37 -30 109 -31
q0 -7 -2 -16t-2 -12q0 -12 11 -12q12 0 12 11v18q0 14 39 14t63.5 21t24.5 58q0 39 -23 62q-20 19 -49 19h-54zM51 424q-4 0 -4 -11q0 -36 25 -67q18 -23 63 -30q32 -5 32 -42q0 -32 -19 -32q-7 0 -8 -5q-1 -6 6 -6q35 -1 35 49q0 40 -35 47q-51 12 -65 26q-19 19 -24 48
q-4 23 -6 23zM248 315q25 -4 33 -11q12 -9 12 -32q0 -30 -45 -30q-8 0 -8 -5q0 -8 17 -8q47 0 47 52q0 21 -16 32.5t-36 11.5q-11 0 -11 -5q0 -4 7 -5zM235 463q-5 0 -5 -32q0 -55 5 -55t5 10v64q0 13 -5 13zM255 468q23 0 31 -12q5 -6 6 -18.5t6 -12.5q6 0 6 13
q0 40 -47 40q-6 0 -7 -5q-2 -5 5 -5zM182 456q0 5 -5 5t-5 -5v-62q0 -5 5 -3t5 8v57zM114 439q5 0 15.5 16t27.5 14q14 -2 14 7t-23 4q-15 -3 -25.5 -16.5t-10.5 -21.5q0 -3 2 -3zM358 301q-6 0 -6 -16q1 -13 1 -26q-1 -15 -8 -30t-7 -17q1 -2 2 -3q6 -4 15 13t9 40
q0 39 -6 39zM176 161q2 0 4 6q1 5 0 10q-2 5 -8 5q-26 -1 -47.5 5t-20.5 6q-4 0 -6 -5q-3 -7 22.5 -12.5t44.5 -3.5q1 -4 1.5 -7.5t9.5 -3.5zM81 505q-5 3 -23 -24q-7 -11 -9 -23t3 -12q4 0 6 10q4 14 10 23l15 23q0 2 -2 3zM199 556q-1 3 -4 3q-6 0 -13.5 -7t-7.5 -13
q0 -3 2 -4q4 -3 8.5 4.5l4.5 7.5q10 10 10 9zM262 370q0 -3 9 -4q13 -1 20 -3q25 -9 25 -4q0 6 -14.5 12t-27.5 6q-12 0 -12 -7zM238 178l-4 -4q1 -5 4 -5q25 -1 39 4q4 2 3 6q-2 4 -6 2q-16 -6 -36 -3z" />
    <glyph glyph-name="percent" unicode="%" horiz-adv-x="385" 
d="M392 667v-667h-399v667h399zM106 514q-38 0 -47.5 -11t-9.5 -58q0 -44 7 -54q9 -15 46 -15q40 0 49 10t9 61q0 42 -8.5 54.5t-45.5 12.5zM316 498q0 18 -11 18q-9 0 -63 -75q-126 -172 -157 -214q-10 -11 -20 -23q-12 -15 -12 -22q0 -10 12 -10q11 0 77 92
q99 139 155 209q3 4 14 14q5 4 5 11zM104 496q27 0 32 -8.5t5 -39.5q0 -38 -3 -45q-6 -11 -37 -11q-23 0 -28.5 8t-5.5 43q0 36 3 42q6 11 34 11zM42 499q-12 0 -9 -89q2 -50 55 -50t53 6q0 3 -7 2q-19 -2 -41 -2q-53 0 -53 45v58q0 7 3 21q1 9 -1 9zM38 194q4 -3 25 28
t17 33q-2 1 -22 -26q-24 -32 -20 -35zM123 317q4 -3 63 74q55 71 50 74q-4 3 -14 -11q-21 -28 -42 -57l-59 -78zM120 188q3 -1 17 21q38 56 86 123q91 126 91 130q-1 2 -2 3q-4 3 -93 -123q-100 -142 -100 -151q0 -2 1 -3zM76 432q0 -3 2 -3q2 1 2 3q3 37 4 39q2 6 13 6h19
q10 -2 10 -13q0 -33 -3 -42q-4 -13 -20 -13q-5 0 -13 1q-2 0 -3 -2q-1 -1 0 -2q8 -3 24 -2q21 2 21 13v43q0 25 -27 25q-18 0 -23.5 -3.5t-5.5 -21.5v-28zM280 320q-38 0 -47.5 -11t-9.5 -58q0 -44 7 -54q9 -15 46 -15q40 0 49 10t9 61q0 42 -8.5 54.5t-45.5 12.5zM278 302
q27 0 32 -8.5t5 -39.5q0 -38 -3 -45q-6 -11 -37 -11q-23 0 -28.5 8t-5.5 43q0 36 3 42q6 11 34 11zM216 304q-12 0 -9 -89q2 -49 55 -49t53 6q0 3 -7 2q-19 -2 -41 -2q-53 0 -53 45v58q0 7 3 20q1 9 -1 9zM251 238q0 -3 2 -3q2 1 2 3q3 37 4 39q2 6 13 6h19q10 -2 10 -13
q0 -41 -5.5 -48.5t-32.5 -7.5q-5 0 -1 -2q8 -3 24 -2q21 2 21 13v43q0 25 -27 25q-18 0 -23.5 -3.5t-5.5 -21.5v-28z" />
    <glyph glyph-name="ampersand" unicode="&#x26;" horiz-adv-x="405" 
d="M412 667v-667h-419v667h419zM356 190q5 -3 11 -1q7 4 7 12q0 7 -18.5 19t-36.5 24q5 14 7 40q1 22 -1.5 30t-9.5 8q-13 0 -11 -13q6 -30 -3 -54l-176 125q-23 16 -23 50q0 39 24 51q20 9 81 9q46 0 63 -12q10 -7 14 -23q2 -12 11 -12q13 0 13 14q0 28 -35 44
q-30 14 -73 14q-70 0 -97 -22q-23 -19 -23 -60q0 -24 11 -42t11 -22q0 -5 -16 -29t-16 -63q0 -54 31 -72q28 -17 107 -17q78 0 99 36zM292 237q-13 -31 -92 -31q-70 0 -93 20q-17 14 -17 53q0 42 31 78zM228 468q8 0 8 5q0 3 -8 3q-75 0 -88 -3q-27 -7 -27 -42q0 -30 29 -50
q41 -30 82 -61q49 -36 52 -32t-26 25q-79 57 -102 74q-26 20 -26 46q0 25 20 31q16 4 86 4zM55 285q3 0 5 19q3 24 12 39q14 23 14 27q0 2 -10.5 18t-10.5 43q0 43 20 66q15 16 39 21q20 5 20 4q0 4 -13 4q-26 0 -46 -18q-29 -25 -29 -75q0 -32 8 -48t8 -18q0 4 -13 -26
q-7 -16 -9 -36q-1 -20 5 -20zM126 332q2 4 -2 6q-3 1 -5 -2q-18 -22 -18 -62q0 -57 95 -57q21 0 47.5 4t26.5 8q0 3 -2 3q4 0 -19 -3.5t-58 -3.5q-82 0 -82 47q0 28 17 60zM81 207q-1 -1 -1 -2q0 -10 23 -21q30 -15 78 -15q76 0 74 13q0 2 -8 1q-20 -5 -64 -5q-42 0 -68 8
q-16 6 -24.5 14t-9.5 7zM320 329q0 1 7.5 -5t7.5 -26q0 -10 -2 -24q2 -2 4 -3q5 0 5 4l2 26q1 14 -5.5 22.5t-13.5 8.5q-4 0 -5 -3z" />
    <glyph glyph-name="quotesingle" unicode="'" horiz-adv-x="140" 
d="M-7 667h154v-667h-154v667zM80 511q-3 0 -19 -5q-3 -4 1 -11q0 -5 1.5 -31.5t1.5 -39.5q-1 -20 -5 -24l3 -9q2 -4 17 -4q6 0 6 10v105q-2 13 -6 9zM51 395q0 -2 3 -3q3 0 3 3q1 16 0 71q0 4 -4 4q-3 0 -3 -3zM49 481q3 -7 7 -3q1 9 -3 13q-1 0 -4 -10z" />
    <glyph glyph-name="parenleft" unicode="(" horiz-adv-x="260" 
d="M267 667v-667h-274v667h274zM220 121q0 3 -23 20q-28 21 -44 56q-23 52 -23 139q0 190 71 236q10 6 10 13q0 10 -13 10q-27 0 -58 -65q-36 -77 -36 -184q0 -98 36 -171q32 -66 68 -66q12 0 12 12zM190 531q-15 0 -29 -53q-16 -60 -16 -141q0 -103 33 -157q22 -38 43 -38
q2 0 3 1q1 2 -13 11q-22 13 -34 47q-19 51 -19 147q0 71 10 116q6 32 18 50q9 16 9 14q0 3 -5 3zM84 363q0 -74 12 -128q11 -47 19 -43q2 1 2 4q0 -7 -11.5 45t-11.5 125q0 40 11.5 92t11.5 54q0 4 -1 5q-6 5 -19 -53t-13 -101zM136 557q3 -1 11 9q12 16 21 24q14 13 29 14
q11 1 11 3q0 5 -10 5q-23 0 -44 -23q-26 -29 -18 -32zM198 96q0 3 -10 7q-16 7 -30 22q-8 9 -21 31q-10 17 -15 17q-3 0 -3 -4q0 -8 10.5 -25.5t22.5 -28.5q28 -25 41 -23q5 0 5 4z" />
    <glyph glyph-name="parenright" unicode=")" horiz-adv-x="260" 
d="M-7 667h274v-667h-274v667zM40 117q0 -12 12 -12q36 0 69 66q35 73 35 171q0 107 -36 184q-31 65 -58 65q-13 0 -13 -10q0 -7 10 -13q71 -46 71 -236q0 -87 -23 -139q-16 -35 -44 -56q-23 -17 -23 -20zM67 533q0 2 9 -13q10 -18 17 -52q9 -48 9 -124q0 -96 -19 -147
q-12 -34 -34 -47q-14 -9 -13 -11q1 -1 3 -1q21 0 43 38q33 54 33 157q0 82 -15 145q-14 58 -29 58q-4 0 -4 -3zM179 357q0 58 -11 55q-3 -1 0 -16q3 -24 3 -40q0 -61 -7 -104q-4 -30 -11 -48.5t-7 -17.5q0 -2 2 -3q8 -4 19 44q12 56 12 130zM130 533q1 1 1 3q0 21 -25 49
q-18 20 -43 20q-13 0 -11 -4q1 -2 16.5 -3.5t29.5 -16.5q16 -18 24 -37q5 -12 8 -11zM38 89q0 -3 10 -3q34 2 60 25q12 11 22 29t10 26q0 3 -2 3q-1 0 -12 -20q-14 -25 -40 -43q-16 -11 -35 -14q-13 -1 -13 -3z" />
    <glyph glyph-name="asterisk" unicode="*" horiz-adv-x="220" 
d="M227 667v-667h-234v667h234zM124 442q15 13 51 36q5 2 5 9q0 5 -14 10l-43 -35l-4 -6q5 -2 5 -4q0 -4 -7 -1q3 39 3 53q0 18 -7 18l-13 -8l2 -51l2 -7l7 3q0 -8 -5 -8q-4 0 -5 2v7l-46 34q-5 4 -8 1q-8 -8 -10 -13q-2 -4 1.5 -9.5t5.5 -2.5v8q-1 5 8 5l9 -7l2 -9l32 -23
q4 0 7 -1q0 -1 -5.5 -1.5t-6.5 -1.5q-16 -12 -49 -35q-5 -18 8 -18q18 13 56 48q0 -4 -1.5 -7t-1.5 -5v-56q0 -6 10 -6q8 0 10 4q1 20 -8 69l46 -39q5 2 7.5 5.5t4.5 3.5t2 -2q0 -3 -3.5 -5t-3.5 -4q1 -2 5 -2q7 0 7 10q0 6 -55 41zM49 473q-1 -1 -1 -2t2.5 -4t2.5 -4
q-1 -1 -3 -2q1 0 23 -17q6 -6 11 -2q-18 14 -28 26q-5 6 -7 5zM95 406q3 3 1 6q-2 2 -4 0l-30 -24q1 -3 5 -5zM161 379q2 2 -17 21t-21 17q-3 -3 16.5 -21l19.5 -18q1 0 2 1zM67 435q-5 4 -20 -11q-4 -3 -9 -7t-3 -6t21 12q13 10 11 12zM186 469q4 3 2 6q-3 2 -5 0l-41 -30
q1 -4 5 -5z" />
    <glyph glyph-name="plus" unicode="+" 
d="M33 0v667h334v-667h-334zM40 7h320v653h-320v-653z" />
    <glyph glyph-name="comma" unicode="," horiz-adv-x="140" 
d="M-7 667h154v-667h-154v667zM101 216q0 -37 -24 -52q-18 -12 -34 -7q-5 1 -7 -4q-1 -4 5 -4q67 -1 67 71q0 33 -23 33q-3 0 -4 -2q0 1 10 -8t10 -27zM41 165q52 5 52 55q0 25 -21 25q-20 0 -25 -2q-10 -4 -10 -21q0 -11 5 -15t24 -5q2 -3 2 -7q0 -10 -27 -14
q-3 0 -4.5 -4.5t-0.5 -7.5q1 -4 5 -4z" />
    <glyph glyph-name="hyphen" unicode="-" horiz-adv-x="320" 
d="M-7 667h334v-667h-334v667zM53 326q0 -6 34 -7q-75 1 130 1q13 0 13 5t-108 5q-69 0 -69 -4zM256 342q5 -3 9 3.5t4 14.5q0 13 -13 13l-196 1q-12 0 -12 -21q0 -12 11 -11h182q5 0 6 4t5 4q5 0 4 -8z" />
    <glyph glyph-name="hyphen" unicode="&#x2010;" horiz-adv-x="320" 
d="M-7 667h334v-667h-334v667zM53 326q0 -6 34 -7q-75 1 130 1q13 0 13 5t-108 5q-69 0 -69 -4zM256 342q5 -3 9 3.5t4 14.5q0 13 -13 13l-196 1q-12 0 -12 -21q0 -12 11 -11h182q5 0 6 4t5 4q5 0 4 -8z" />
    <glyph glyph-name="period" unicode="." horiz-adv-x="140" 
d="M147 667v-667h-154v667h154zM47 188q5 -9 21 -9q9 0 16.5 5t5.5 7t-6 -2q-7 -4 -16 -4q-12 0 -20 8.5t-8 18.5q0 11 5 19q4 5 3 6q-3 3 -9 -6t-6 -22q0 -23 14 -21zM71 192q22 0 22 30q0 22 -23 22q-7 0 -15 -9t-8 -20q0 -23 24 -23zM96 198q3 -2 6.5 6t3.5 16
q0 15 -9 25q-8 7 -15 7q-2 0 -3 -1l10.5 -7.5t10.5 -24.5q0 -9 -3 -14.5t-1 -6.5z" />
    <glyph glyph-name="slash" unicode="/" horiz-adv-x="325" 
d="M-7 667h339v-667h-339v667zM286 503q-1 17 -18 17q-6 0 -118 -155t-112 -164q0 -14 21 -13q7 0 66 84q108 155 144 205q2 3 13 14q4 5 4 12zM150 282q-4 3 -10.5 -7.5t-13.5 -21.5q-22 -30 -18 -32q3 -2 24 28.5t18 32.5zM163 298q5 -4 57 75q17 25 35 50q15 23 13 25
q-4 4 -54 -70q-53 -79 -51 -80zM58 253q2 -1 17 22q34 51 86 123q81 111 81 115q0 1 -1 2q-2 1 -101 -133q-83 -113 -83 -126q0 -2 1 -3z" />
    <glyph glyph-name="zero" unicode="0" 
d="M407 667v-667h-414v667h414zM245 511h-83q-52 0 -67 -51q-6 -23 -6 -94q0 -84 1 -96q6 -45 31 -65q31 -24 101 -24q62 0 83 20q29 26 29 108v98q0 55 -18 79.5t-71 24.5zM214 485q55 0 73 -11q29 -16 26 -70l-5 -108q-2 -51 -8 -61q-16 -27 -82 -27q-51 0 -74 14
q-29 18 -29 68v121q0 54 20 66q14 8 79 8zM85 467q-6 3 -12 -20q-8 -33 -8 -109q0 -92 13 -117q29 -57 139 -57q35 0 63 6q32 7 28 16q-1 2 -2 2q8 0 -19.5 -8.5t-78.5 -8.5q-60 0 -96 24t-36 62v85q0 48 3 80q2 22 6 35q2 10 2 8q0 1 -2 2zM126 320q0 -3 3 -1q3 1 3 5
q4 67 9 106q3 23 18 28q5 1 47 1q45 0 51 -2q18 -5 23.5 -30.5t5.5 -97.5q0 -58 -8 -75q-11 -24 -50 -24q-33 0 -55.5 3t-19.5 3q-3 0 -4 -3q-4 -10 74 -10q39 0 52.5 10t17.5 50q2 26 2 127q0 64 -83 64q-56 0 -72 -18q-11 -11 -12 -46q-2 -68 -2 -90z" />
    <glyph glyph-name="one" unicode="1" horiz-adv-x="230" 
d="M237 667v-667h-244v667h244zM28 467q10 -21 22 -21q8 0 20 9t19 18v7q-1 10 19 10q9 0 10 -3v-11q0 -17 -4 -17q-2 0 -2.5 9.5t-1.5 9.5q-2 1 -5.5 -7.5t-3.5 -16.5q0 -5 2.5 -11.5t2.5 -11.5l2 -200q0 -12 -5.5 -12.5t-5.5 -16.5q0 -23 21 -23q19 0 19 15l2 299
q0 20 -34 20q-24 0 -48.5 -17t-28.5 -29zM82 441l3 -10l-1 -203q0 -7 4 -8q5 -1 5 3v203q0 15 -11 15zM150 298q-3 0 -3 -17q0 -19 3 -19q5 0 5 18t-5 18z" />
    <glyph glyph-name="two" unicode="2" 
d="M407 667v-667h-414v667h414zM71 412q0 -18 17 -18q16 0 16 24q0 45 -2 23q1 14 16 35q8 12 84 12q59 0 73 -6q25 -10 25 -52q0 -56 -24.5 -69t-95.5 -19q-66 -6 -79 -17q-25 -22 -25 -114q-17 -8 -17 -17q0 -16 17 -16q8 0 12 8l4 8l190 -4q15 0 21 -2t15 -2q10 0 10 17
q0 12 -10 12h-200q-24 0 -24 10q0 53 21 81q8 10 65 14q68 4 108 22q34 15 34 86q0 48 -19 66q-26 25 -105 25q-82 0 -100 -24q-27 -36 -27 -83zM56 204q10 0 10 64q0 42 34 71q10 8 90 17q77 8 89 24.5t3 64.5q-1 6 -4 5q-4 -2 -4 -10q0 -40 -9.5 -54.5t-123.5 -24.5
q-89 -8 -89 -103q0 -54 4 -54zM284 525q-1 -1 12 -9q17 -9 26 -26q15 -27 15 -71q0 -77 -46 -95q-30 -12 -88 -18q-49 -5 -70 -18q-7 -4 -13.5 -17.5t-6.5 -21.5q0 -4 2 -5q7 -3 20 29q6 14 74 21q76 7 97.5 23t30.5 31q14 26 14 74q0 50 -26 81q-21 23 -37 23q-3 0 -4 -1z
M100 381q1 -4 7 -4q17 0 18 31q1 42 21 49q14 5 108 5q5 0 4 7q-1 6 -6 6l-82 -1q-58 -1 -58 -72q0 -8 -6.5 -13t-5.5 -8zM102 180q-8 0 -8 -8t8 -9q77 -7 151 -4q57 2 57 7q0 6 -36 7q-108 3 -172 7zM134 242q-7 0 -7 -6q0 -8 8 -8h171q13 0 13 7q0 6 -13 6zM59 407
q3 0 4 13q3 23 3 25q1 7 9.5 27.5t8.5 23.5q0 1 -1 2q-6 4 -17.5 -17t-11.5 -45q0 -29 5 -29z" />
    <glyph glyph-name="three" unicode="3" horiz-adv-x="390" 
d="M397 667v-667h-404v667h404zM82 450q8 0 16.5 16t17.5 18q23 6 78 6q39 0 51 -3q30 -6 34 -31q2 -9 2 -24q0 -51 -15 -62q-8 -6 -35 -4q-48 3 -38 3q-25 0 -25 -15q0 -11 15 -11q3 0 13 1.5t22 1.5q19 0 48 -3q18 -12 18 -54q0 -33 -13 -57q-9 -16 -86 -16q-57 0 -78 12
q-10 6 -15 21q-4 12 -19 12t-15 -14q0 -21 23 -36q33 -22 104 -22q77 0 94 17q26 25 26 83q0 43 -24 67q25 15 25 77q0 43 -21 62q-24 22 -90 22q-49 0 -74 -2t-42 -16t-17 -25q0 -24 20 -24zM310 490q-2 0 -2 -1q0 3 5 -16t5 -49q0 -25 -6.5 -40.5t-6.5 -29.5
q0 -7 6.5 -22.5t6.5 -45.5q0 -61 -18 -80q-22 -23 -62 -28q-7 -1 -63 -1q-61 0 -92 16q-20 10 -27 29q-5 15 -6 15q-5 0 -5 -10q0 -21 25 -38q35 -24 104 -24q107 0 138 37q17 21 17 91q0 23 -8 41.5t-8 21.5q0 4 8.5 24t8.5 49q0 63 -20 61zM172 323q0 -3 39.5 -4.5
t39.5 -12.5v-42q0 -11 -14 -15q-18 -5 -74 -5q-34 0 -47.5 8.5t-10.5 8.5q-5 0 -5 -5q0 -9 21 -17q27 -10 77 -10q40 0 54 9.5t14 45.5q0 31 -12 40q-8 6 -40 6q-42 0 -42 -7zM84 431q0 -5 5 -5q14 0 31 20q15 17 70 17q39 0 49.5 -7t10.5 -28q0 -18 -3 -23q-7 -12 -32 -12
h-38q-4 0 -4 -5q0 -6 4 -6h52q37 0 37 45q0 20 -16 36q-13 13 -70 13q-49 0 -75 -28q-6 -6 -14 -8.5t-7 -8.5z" />
    <glyph glyph-name="four" unicode="4" horiz-adv-x="380" 
d="M387 667v-667h-394v667h394zM258 182q21 0 21 22q0 6 -2.5 15t-2.5 14q0 27 23 27q12 0 12 11q0 17 -13 17q-2 0 -6 -1h-7q-9 0 -9 11l1 176q7 28 7 24q0 20 -39 20q-4 0 -29 -11v-7l-29 -39l-130 -141q-3 -3 -3 -5l3 -6t3 -15q0 -7 -5.5 -12t-5.5 -11q0 -17 17 -17
q8 0 11 4.5t6 4.5l149 -3q19 0 19 -38q0 -10 -4.5 -14t-4.5 -10q0 -16 18 -16zM227 455q-4 -28 -5 -57q-1 -21 1 -42q1 -24 1 -22q0 -27 -19 -27l-64 1q-5 0 -5 -3t3 -3l65 -5q27 -2 28 22l3 116q1 22 -7 28.5t-8 5.5q0 5 9 14t17 9q7 0 6 -25l-6 -157q0 -6 -4 -10t-3 -6
q1 -3 4 -3q2 0 6 2.5t5 2.5q2 -1 2 -2q2 -10 -6 -10h-57l-8 5l-80 3q-7 0 -11 -5.5t-7 -5.5q-11 0 -11 11q0 10 9 20l15 15l109 123q7 -1 18 5zM299 478q0 9 -5 9q-7 0 -7 -6q-1 18 -1 -150q0 -32 -1 -19q1 -10 9 -10q5 0 5 55q-1 88 0 121zM54 242q0 -4 23 -5q66 -3 133 -6
q10 -1 9 -16.5t3 -15.5q13 0 13 25q0 6 -5.5 13t-10.5 7q-25 0 -132 2q-33 0 -33 -4zM34 256q5 0 5 8q-2 26 -2 25q0 20 6 33.5t6 12.5q0 7 -6 7q-16 0 -16 -51q0 -35 7 -35zM165 367q53 53 46 57q-1 1 -3 1q-7 0 -51 -49l-33 -37q-18 -21 -18 -28q0 -2 3 -4t25 24
q29 34 31 36zM62 360q1 -2 3 -2q4 0 16 13q16 17 19 19t3 6q0 5 -5 5q-4 0 -7 -3q-33 -31 -29 -38zM186 498q4 -4 15 7q8 7 4 10q-5 4 -11 -2q-12 -11 -8 -15zM293 200q6 0 6 7v8q-1 5 -1 8q0 7 5 8q22 4 22 21q0 4 -4 7q-1 1 -9 -7.5t-23 -10.5q-6 -1 -3 -21t7 -20z" />
    <glyph glyph-name="five" unicode="5" 
d="M407 667v-667h-414v667h414zM326 307q0 63 -21 82q-25 23 -108 23q-43 0 -56 -3q-18 -5 -39 -23q5 29 5 67v4q0 28 7 32.5t31 4.5q106 -2 132 -2q32 0 32 -5q-1 -1 -1 -3q0 -1 5 -1q18 0 17 22q-1 18 -46 14q-56 0 -168 -2q-27 -1 -29 -4q-5 -7 -3 -102q0 -1 3 -26
q1 -16 -1 -17l-12 -4q-2 -5 4 -15.5t14 -10.5q11 0 15 12q5 17 16 24q22 12 76 12q67 0 86 -15t19 -64q0 -60 -21.5 -76t-86.5 -16q-93 0 -94 35q0 12 -1 23q-2 8 -12 8q-22 0 -20 -19q4 -48 44 -61q28 -9 96 -9q66 0 82 14t21 23q14 26 14 78zM201 428q0 -3 46 -4
q41 -2 63 -18q29 -22 29 -107q0 -124 -106 -124h-19q-12 1 -16 1q-73 0 -106 23q-23 15 -27 42q-4 23 -6 23q-5 0 -5 -13q0 -30 19 -50q32 -35 118 -34q94 1 120 20q37 27 37 127q0 63 -25 92t-84 29q-38 0 -38 -7zM78 299q0 -3 12.5 -3.5t18 -8t5.5 -16.5q-1 -20 -1 -18
q3 -28 68 -27l54 1q39 1 49 33q2 9 3 42q1 34 -3 42q-1 4 -11 7q-1 18 -13 19q2 0 -64 0h-47q-19 -2 -22 -11q-9 -26 -16 -28q-11 1 -24 -6q-2 -9 13 -9t25 15q11 20 13 21q6 5 72 5q51 0 58 -6q3 -4 3 -44q0 -58 1 -34q-1 -18 -9 -23q-12 -7 -37 -9q-17 -1 -44 0
q-38 1 -35 1q-22 0 -25 43q-1 19 -26 19q-18 0 -18 -5zM334 474q-1 1 -6 0q-6 -3 -9 -3q-5 0 -9 5q-82 -3 -138 -1q-33 2 -36 0q-8 -4 -9 -6q-4 -8 -4 -37q0 -4 4 -4t5 3l5 29q1 7 66 4l97 -3q14 0 25 4.5t9 8.5zM66 341q4 0 4 133q0 5 -4 5q-5 0 -5 -5v-115q0 -18 5 -18z
M69 487q2 0 1 12t7 19t23 8q12 1 12 3q0 6 -15 6q-36 0 -36 -26q0 -22 8 -22zM166 434q-29 0 -29 -7q0 -4 28 -4q27 0 27 4q0 7 -26 7z" />
    <glyph glyph-name="six" unicode="6" 
d="M407 667v-667h-414v667h414zM82 440q0 -7 1.5 -30t1.5 -47q0 -36 -2 -85q-2 -44 24.5 -64.5t92.5 -20.5q54 0 75 9q45 19 45 85q0 55 -17 74q-25 30 -108 30q-20 0 -43 -3q-11 -2 -23 3q-1 -3 0 -9q1 -2 -4.5 -5t-10.5 -3q-7 0 -8 5q-1 9 -4.5 15l-3.5 6q0 1 3 1
q5 0 6 -2v-6q0 -3 2 -3q11 0 5 8q-12 19 -12 42q0 17 7 26q19 27 103 27q80 0 87 -44q23 -7 23 14q0 23 -30 39.5t-79 16.5q-69 0 -97 -14q-34 -17 -34 -65zM104 336q-1 28 88 28q50 0 69 -5q26 -6 30 -26q5 -28 5 -49q0 -64 -39 -64h-106q-17 0 -30.5 10.5t-13.5 21.5z
M116 185q-1 -5 29 -10.5t63 -5.5q74 0 104 25t30 86q0 74 -24 101.5t-94 27.5q-78 0 -84 2q-9 2 -9 28q0 25 77 25q39 0 53 -7q9 -4 10 -12t7 -8q7 0 4 16q-2 25 -76 25q-88 0 -88 -49q0 -31 45 -31q7 0 21 1t20 1q50 0 72 -7q13 -4 35 -20t22 -87q0 -50 -19 -74
q-29 -35 -104 -35q-36 0 -64.5 5t-26.5 5q-2 0 -3 -2zM113 280q0 -36 28 -45q17 -5 76 -4q39 1 47 5q18 11 18 54q0 36 -10 46q-15 15 -69 15q-64 0 -79 -16q-11 -11 -11 -55zM127 320q6 18 68 18q35 0 45 -2q26 -6 29 -27q1 -7 1 -19q0 -29 -5 -36q-12 -16 -63 -16
q-63 0 -69.5 8.5t-7.5 36.5q-1 27 2 37zM63 224q7 0 3 141q-2 98 -5 98q-4 0 -5 -29q0 -13 1 -183q0 -27 6 -27zM66 474q4 -2 9 6l12 16q7 8 17 13q6 4 5 6q-1 3 -4 3q-10 0 -27 -19.5t-12 -24.5zM334 484q0 10 -15.5 24t-24.5 14q-3 0 -4 -2t5 -6q10 -5 17 -13
q21 -24 19 -24q3 0 3 7z" />
    <glyph glyph-name="seven" unicode="7" horiz-adv-x="358" 
d="M-7 667h372v-667h-372v667zM30 503q0 -15 24 -21q6 -1 6.5 3t2.5 4l155 -1q3 0 9 -7t9 -6q-2 6 0 13l11 4q2 1 2.5 3.5t6.5 2.5q12 0 12 -10q0 -7 -12 -26l-136 -215q-9 -10 -17 -20q-11 -12 -11 -23q0 -18 23 -18q15 0 24 25q6 17 72 124l76 124q9 16 9 29q0 26 -31 27
l-212 4q-23 0 -23 -16zM30 478q-2 -16 76 -17q94 -2 105 -5q6 -2 9 5t-2 9q-15 5 -64 5q-85 -1 -74 -1q-23 1 -41 5q-8 2 -9 -1zM78 203q2 0 5 9q4 13 11 24q3 5 14 18q8 9 8 12q0 1 -1 2q-9 6 -26 -18.5t-17 -39.5q0 -7 6 -7zM131 295q4 -2 53 79q47 78 42 81q-4 2 -46 -73
q-5 -9 -36 -57q-17 -28 -13 -30zM150 202q6 -4 88 130q71 116 71 133q0 2 -1 3q-4 2 -21 -28q-32 -59 -59 -102q-79 -126 -79 -134q0 -1 1 -2z" />
    <glyph glyph-name="eight" unicode="8" 
d="M407 667v-667h-414v667h414zM206 195q54 0 78 11q45 20 45 79q0 36 -13 55.5l-13 19.5q0 3 13 22.5t13 54.5q0 48 -27.5 65t-97.5 17q-81 0 -105.5 -17.5t-24.5 -64.5q0 -32 11 -52.5t11 -29.5q0 -7 -11 -24.5t-11 -44.5q0 -58 42 -78q27 -13 90 -13zM96 434q0 39 24 51
q20 9 81 9q60 0 83.5 -13t23.5 -45q0 -53 -38 -68q-7 -3 -28 -1q-32 2 -34 2q-5 0 -26 -2t-32 -2q-54 0 -54 69zM119 347q43 2 85 2t83 -2q25 -22 25 -62q0 -67 -107 -67q-69 0 -93 18q-18 14 -18 50q0 41 25 61zM109 429q0 -35 27 -43q12 -4 65 -4q58 0 68 8q26 20 26 50
q0 12 -3 12q-2 0 -3 -4t-7 3l-16 22q-11 7 -67 7q-54 0 -64 -3q-26 -9 -26 -48zM115 428q0 27 19 34q13 4 60 4q45 0 54 -2q33 -6 33 -31q0 -40 -33 -40h-94q-39 0 -39 35zM108 284q0 -35 31 -46q19 -7 66 -7q56 0 76 19q14 13 14 44q0 13 -3 13q-2 -1 -3 -4.5t-5 -0.5
l-18 26q-3 2 -67 2q-59 0 -65 -2q-26 -7 -26 -44zM116 284q0 25 18 30q10 3 60 3q56 0 70.5 -5t14.5 -26q0 -35 -30 -42q-8 -2 -59 -2q-35 0 -48 4q-26 9 -26 38zM48 306q0 -5 2 -6t3 3q9 30 19 43q6 10 6 16q0 2 -11 20.5t-11 45.5q0 83 67 94q5 1 4 4q0 4 -4 3
q-44 -9 -62 -36q-14 -23 -14 -66q0 -30 8.5 -44t8.5 -27q0 -7 -8 -22t-8 -28zM317 512q-3 -2 -3 -5q29 -18 29 -86q0 -18 -15 -51q1 -2 5 -1q1 -6 -4 -18q17 -28 17 -53q0 -33 -2 -48q1 -2 4 -3q7 9 7 44q0 28 -8.5 48t-8.5 21q0 3 9 28t9 46q0 53 -39 78z" />
    <glyph glyph-name="nine" unicode="9" horiz-adv-x="390" 
d="M397 667v-667h-404v667h404zM77 413q0 -55 14 -69q27 -28 104 -28q58 0 95 28q3 -24 3 -36q0 -67 -28 -86q-18 -12 -73 -12q-47 0 -71 9q-14 6 -24 18q-7 9 -16 9q-12 0 -12 -8q0 -21 36 -37.5t93 -16.5q78 0 99 38q16 28 16 132q0 110 -20 135q-18 21 -96 21
q-69 0 -94.5 -21.5t-25.5 -75.5zM99 415q0 43 23 57q18 11 73 11q64 0 83 -22q11 -14 11 -56q0 -43 -13 -54q-17 -14 -89 -14q-57 0 -74 18q-14 15 -14 60zM46 403q1 -115 113 -115q110 0 100 14q-3 6 -6 6q1 0 -20 -4.5t-51 -4.5q-66 0 -94 19q-31 21 -31 78q0 97 69 119
q4 1 3 3t-5 2q-39 -8 -59 -40.5t-19 -76.5zM315 480q-1 3 -4 2t-2 -4q16 -38 16 -128q0 -110 -20 -144q-22 -37 -105 -37q-50 0 -98 13q-4 -1 -2 -5q39 -16 100 -16q81 0 110 36q26 33 26 154q0 79 -21 129zM116 373q1 -4 5 -3t3 4q-4 18 -4 27q0 33 15.5 44.5t63.5 11.5
q23 0 43 -7t20 -18l-1 -41q-1 -31 -72 -31q-53 0 -53 -2q0 -8 43 -8q98 0 98 49v39q0 5 -3 6h-8q-19 11 -19 13t4.5 2t4.5 2q0 8 -68 8q-36 0 -52 -10q-24 -15 -24 -57q0 -18 4 -29zM269 296q-10 2 -11 -23q-2 -29 -10 -35t-60 -6q-47 0 -70 12q-4 2 -6 0q-2 -3 0 -5
q15 -19 83 -19q45 0 59 9q20 16 20 53q0 13 -5 14z" />
    <glyph glyph-name="colon" unicode=":" horiz-adv-x="140" 
d="M147 667v-667h-154v667h154zM47 188q5 -9 21 -9q9 0 16.5 5t5.5 7t-6 -2q-7 -4 -16 -4q-12 0 -20 8.5t-8 18.5q0 11 5 19q4 5 3 6q-3 3 -9 -6t-6 -22q0 -23 14 -21zM71 192q22 0 22 30q0 22 -23 22q-7 0 -15 -9t-8 -20q0 -23 24 -23zM96 198q3 -2 6.5 6t3.5 16
q0 15 -9 25q-8 7 -15 7q-2 0 -3 -1l10.5 -7.5t10.5 -24.5q0 -9 -3 -14.5t-1 -6.5zM47 356q5 -9 21 -9q9 0 16.5 5t5.5 7t-6 -2q-7 -4 -16 -4q-12 0 -20 8.5t-8 18.5q0 11 5 19q4 5 3 6q-3 3 -9 -6t-6 -22q0 -23 14 -21zM71 360q22 0 22 30q0 22 -23 22q-7 0 -15 -9t-8 -20
q0 -23 24 -23zM96 366q3 -2 6.5 6t3.5 16q0 15 -9 25q-8 7 -15 7q-2 0 -3 -1l10.5 -7.5t10.5 -24.5q0 -9 -3 -14.5t-1 -6.5z" />
    <glyph glyph-name="semicolon" unicode=";" horiz-adv-x="140" 
d="M147 667v-667h-154v667h154zM47 356q5 -9 21 -9q9 0 16.5 5t5.5 7t-6 -2q-7 -4 -16 -4q-12 0 -20 8.5t-8 18.5q0 11 5 19q4 5 3 6q-3 3 -9 -6t-6 -22q0 -23 14 -21zM71 360q22 0 22 30q0 22 -23 22q-7 0 -15 -9t-8 -20q0 -23 24 -23zM96 366q3 -2 6.5 6t3.5 16
q0 15 -9 25q-8 7 -15 7q-2 0 -3 -1l10.5 -7.5t10.5 -24.5q0 -9 -3 -14.5t-1 -6.5zM101 216q0 -37 -24 -52q-18 -12 -34 -7q-4 1 -5 -3t3 -5q67 -4 67 71q0 14 -8.5 23.5t-15.5 9.5q-2 0 -3 -2q0 1 10 -8t10 -27zM41 165q52 5 52 55q0 25 -21 25q-20 0 -25 -2q-10 -4 -10 -21
q0 -11 5 -15t24 -5q2 -3 2 -7q0 -10 -27 -14q-3 0 -4.5 -4.5t-0.5 -7.5q1 -4 5 -4z" />
    <glyph glyph-name="less" unicode="&#x3c;" 
d="M33 0v667h334v-667h-334zM40 7h320v653h-320v-653z" />
    <glyph glyph-name="equal" unicode="=" 
d="M33 0v667h334v-667h-334zM40 7h320v653h-320v-653z" />
    <glyph glyph-name="greater" unicode="&#x3e;" 
d="M33 0v667h334v-667h-334zM40 7h320v653h-320v-653z" />
    <glyph glyph-name="question" unicode="?" horiz-adv-x="380" 
d="M387 667v-667h-394v667h394zM74 442q0 -23 18 -23t18 27q0 6 -3 9q-7 7 9 25q10 12 74 12q58 0 74 -9q20 -10 20 -49q0 -47 -14 -58q-9 -7 -46 -15t-40 -11q-7 -7 -8 -34q-1 -26 4 -34q3 -4 10 -5t7 3v33q1 16 9 23q3 3 30 7.5t40 12.5q17 10 23.5 23.5t6.5 52.5
q0 51 -12 66q-21 25 -98 25t-96 -19q-26 -26 -26 -62zM282 526q-4 2 -5 0q-1 -3 3 -5q28 -16 36 -46q2 -10 2 -39q0 -66 -21 -84q-13 -11 -83 -26q-5 -1 -5 -7q0 -5 5 -3q34 9 68 17q27 8 37.5 30t10.5 85q0 55 -48 78zM78 492q0 4 -2 6q-18 -7 -18 -39q0 -17 5 -17
q3 0 3 16.5t12 33.5zM108 409q21 8 19 22q-6 37 44 37q15 0 30.5 -2t29.5 -1q12 1 12 8q0 4 -7 6q-23 5 -57 3q-38 -2 -55 -12q-8 -5 -8 -12q0 -3 2 -11.5t2 -14.5q0 -14 -14 -18q-5 -1 -4 -4q2 -2 6 -1zM158 281q8 0 8 54q0 21 18 28q3 1 38 6q44 6 48 21q6 24 3 56
q-1 8 -3 8q-3 1 -3 -2l-6 -50q-2 -16 -48 -22q-49 -7 -54 -19q-3 -8 -5 -43q-1 -37 4 -37zM178 179q9 0 16.5 5t5.5 7t-6 -2q-7 -4 -16 -4q-12 0 -20 8.5t-8 18.5q0 11 5 19q4 5 3 6q-3 3 -9 -6t-6 -22q0 -30 35 -30zM181 192q22 0 22 30q0 22 -23 22q-7 0 -15 -9t-8 -20
q0 -23 24 -23zM206 198q10 -7 10 22q0 15 -8.5 24t-15.5 9q-2 0 -3 -2l10.5 -7.5t10.5 -24.5q0 -9 -4 -16q-2 -4 0 -5z" />
    <glyph glyph-name="at" unicode="@" 
d="M33 0v667h334v-667h-334zM40 7h320v653h-320v-653z" />
    <glyph glyph-name="A" unicode="A" 
d="M-7 667h414v-667h-414v667zM246 488q-7 21 -39 21q-31 0 -39 -21q-32 -91 -108 -280q-2 -6 -2 -11q0 -19 15 -19q13 0 17 14l15 52q3 12 31 12h133q22 0 26 -13l14 -46q6 -19 18 -19q22 0 12 30zM207 488q12 0 18.5 -13t4.5 -15q-1 -2 -3 -2q-1 0 -5.5 7t-7.5 7
q-8 0 -2 -16q2 -5 9.5 -8.5t9.5 -8.5l38 -107q1 -8 2 -24q1 -7 6 -7q2 0 2 6t2 6l4 -30q-138 -2 -167 0q25 61 46 126q13 41 16 41t2 -5t4 -5q4 0 8 11t0 11q-3 0 -3.5 -3.5t-4.5 -3.5q-2 0 -2 4q0 9 6.5 19t16.5 10zM139 463q-48 -121 -96 -247q0 -10 4 -12q5 -2 5.5 4.5
t3.5 19.5q65 159 92 232q4 11 -2 11q-4 0 -7 -8zM290 429q-2 7 -7 5q-5 -1 -3 -8q4 -14 64 -195l6 -24q3 -10 7 -10q9 0 2 26q-29 86 -69 206zM125 243q-5 0 -13.5 -19.5t-8.5 -29.5q0 -3 1 -4q5 -2 14 18q8 17 17 20q6 2 47 2q60 0 85 -2q8 -1 9.5 -18t10.5 -17q8 0 5 20
q-3 18 -8.5 24t-24.5 6h-134zM217 424l29 -99q0 -1 2 -14q1 -7 5 -7t2 8q-3 7 -1 7q10 0 5 10q-6 8 -18 44t-14 51q-1 8 -6 8q-6 0 -4 -8zM195 418q4 10 -4 10q-3 0 -5 -6q-34 -86 -34 -99q0 -3 2 -4q4 -1 20 42q11 28 21 57zM226 305q-38 -1 -38 -8q0 -3 51 -3q5 0 5 4
q0 8 -18 7zM162 501q-4 0 -7 -6q-3 -7 1 -7t7 7q3 6 -1 6zM258 482l12 -33q2 -5 8 -4q5 1 3 7l-11 30q-2 6 -8 6q-6 -1 -4 -6z" />
    <glyph glyph-name="B" unicode="B" 
d="M-7 667h414v-667h-414v667zM52 500q0 -10 5 -10q-3 0 6 2q2 1 2 -6v-273q0 -6 -9 -7.5t-9 -8.5q0 -8 7 -10q12 -3 14 -5q7 -5 7 7q0 4 2 4q8 -2 17 -2h135q104 0 104 93q0 38 -15.5 53.5t-15.5 18.5t9 22t9 56q0 78 -68 78h-140q-60 0 -60 -12zM142 346q-56 -1 121 -1
q53 0 53 -62q0 -70 -66 -70h-130q-35 0 -35 21q0 95 2.5 103t54.5 9zM92 490q5 0 7 -2.5t11 -2.5q4 0 7 3t5 3q8 -1 133 -1q18 0 32 -17.5t13 -43.5q-3 -64 -31 -65q-70 1 -183 -3v78q0 12 3 15t3 5q0 6 -4 6q-1 0 -3 -2.5t-4 -2.5t-2 5q0 7 4 16t9 9zM113 469q0 -7 4 -7
q10 -1 41.5 1t47.5 2q45 0 60 -11q10 -7 10 -30q0 -34 -25 -36h-78q-61 0 -61 -6q0 -4 13 -7q10 -1 65 -1q59 0 65 3q32 19 32 52q0 20 -19 31q-6 6 -21 15q-9 2 -66 2q-68 0 -68 -8zM318 504q-3 3 -4 0q-2 -3 2 -7q22 -21 22 -66q0 -36 -9 -52t-9 -18q0 -3 14 -21t14 -49
q0 -45 -18 -77q-5 -6 -1 -8q3 -2 8 5q23 31 23 82q0 32 -11.5 48t-11.5 19q0 8 5.5 21.5t5.5 43.5q0 49 -30 79zM121 327q-8 0 -8 -6q0 -7 9 -7h154q10 0 10 7q0 6 -12 6h-153zM176 224q100 0 100 15q0 3 -3 3t-13 -3t-17 -3l-104 -1q-9 0 -10 2t-6 2q-11 0 -11 -7
q0 -8 64 -8zM40 482q-4 0 -4 -49q0 -50 4 -50q5 0 5 50q0 49 -5 49zM103 323q-4 0 -4 -43q0 -50 5 -50q6 0 6 63q0 30 -7 30zM103 455q-6 0 -5 -37q1 -38 5 -38q6 0 6 62q0 13 -6 13zM69 530q-3 0 -3 -4q0 -5 3 -5h52q4 0 4 5q0 4 -3 4h-53zM304 287q0 25 -3 28t-7 0
q-3 -3 -3 -9v-28q0 -7 -5.5 -16.5t-5.5 -11.5t3 -2q21 0 21 39zM154 533q-3 0 -3 -4t3 -4h46q4 0 4 4t-3 4h-47zM98 180q-3 0 -3 -4q0 -5 3 -5h37q4 0 4 5q0 4 -3 4h-38zM157 176q-3 0 -3 -4q0 -5 3 -5h46q4 0 4 5q0 4 -3 4h-47z" />
    <glyph glyph-name="C" unicode="C" horiz-adv-x="411" 
d="M-7 667h425v-667h-425v667zM338 404q18 0 18 26q0 52 -23 66q-28 17 -119 17q-97 0 -123 -26q-19 -19 -19 -127q0 -121 26 -145t119 -24q80 0 112 15q26 12 26 56q0 30 -15 30q-16 0 -16 -18q0 -35 -8 -44q-11 -12 -102 -12q-74 0 -96 14t-22 143q0 77 17.5 96t104.5 19
q72 0 90 -13q13 -10 13 -55q0 -18 17 -18zM170 523q0 2 -18 2q-40 0 -68.5 -19t-34.5 -70q-1 -10 -1 -63q0 -108 8 -141q4 -15 22 -35t57 -25q20 -3 81 -3q124 0 144 37q3 6 -1 6q-3 1 -6 -3q-11 -17 -34 -23q-28 -7 -102 -7h-62q-42 4 -66 21q-32 23 -32 136q0 10 4 105
q2 43 35 64q24 15 58 15q16 0 16 3zM305 432q5 0 3 13q-2 12 -8 16q-20 13 -89 13q-64 0 -82.5 -15t-18.5 -60q0 -114 7 -114q3 0 3 99q0 56 15 67q12 9 79 9q73 0 81 -7q5 -4 5 -12.5t5 -8.5zM136 243q0 -16 86 -16q26 0 50 5t24 12q0 2 -1 2q5 0 -20.5 -4.5t-64.5 -4.5
q-29 0 -51.5 4t-20.5 4q-2 0 -2 -2zM362 484q-4 -1 -2 -7q3 -10 3 -13q0 -13 5 -13q2 0 2 13q0 22 -8 20zM373 258q0 15 -5 15t-5 -15q0 -26 5 -26t5 26zM308 284q-5 0 -5 -14t6 -14q5 0 5 4q-2 15 -2 10q0 14 -4 14zM306 419q-3 0 -3 -9t3 -9q6 0 6 9t-6 9z" />
    <glyph glyph-name="D" unicode="D" 
d="M-7 667h414v-667h-414v667zM260 513h-174q-21 0 -21 -12q-2 -12 3 -12t5 8q0 4 3 3q2 -1 2 -7v-275q0 -6 -6.5 -8t-6.5 -7q0 -4 5.5 -9.5t11.5 -5.5t7 5q0 4 -7.5 4t-6.5 5q0 4 6 4q4 0 4.5 -3t7.5 -5q12 -3 45 -3q101 0 130 6q79 17 79 112v114q0 38 -23 62t-64 24z
M98 489q3 5 11 4l17 -2h135q64 0 64 -69v-115q0 -38 -19 -63t-54 -25h-114q-6 0 -12 3q-3 3 -6 0l-6 -5q-2 -2 -5 -2q-1 0 -15 16q1 4 5 6v221l-3 14q-2 9 2 17zM131 467q-3 0 59 2q51 1 62 0q49 -6 49 -105q0 -69 -15.5 -95t-49.5 -26q-8 0 -8 -4t6 -4q54 0 69 48
q8 23 8 89q0 109 -69 107l-117 -3q0 -2 -1 -5t0 -3q1 -1 7 -1zM351 464l6 -22q3 -23 3 -96q0 -81 -25 -121q-17 -26 -47 -36q-25 -8 -25 -11t11 -3q32 0 58 31q38 45 38 140q0 91 -13 118q-2 5 -5 5t-1 -5zM55 495q-4 0 -5 -4q0 -3 1 -8.5t1 -6.5q0 -5 -3 -33.5t-3 -44.5
q0 -13 2 -77t2 -85q0 -3 4 -2q3 1 3 3v227q0 11 2 12.5t2 7.5q0 11 -6 11zM177 180q-76 0 -76 -7q0 -2 76 -2q47 0 47 5q0 4 -47 4zM116 386q-6 0 -6 -54q0 -73 6 -73q4 0 4 73q0 54 -4 54zM128 242q-4 0 -4 -3q1 -4 4 -4l83 -3q2 2 4 5q-1 5 -8 5h-79zM149 531q-3 0 -3 -4
t3 -4h37q4 0 4 4t-3 4h-38zM118 455q-6 0 -6 -23q0 -18 6 -18q3 0 3 18q0 23 -3 23zM86 531q-3 0 -3 -4t3 -4h21q4 0 4 4t-3 4h-22z" />
    <glyph glyph-name="E" unicode="E" horiz-adv-x="390" 
d="M-7 667h404v-667h-404v667zM326 504q0 14 -24 16q5 0 -36 0q-99 0 -149 -2q-35 -1 -35 -14q0 -4 5.5 -8t5.5 -14l-2 -261q-18 -15 -18 -18q1 -2 3 -2q12 -2 15 -10t4 -8q3 0 4.5 6t3.5 10l184 -1q12 0 19 -6.5t9 -6.5q15 0 15 23q0 13 -18 13h-186q-10 -1 -14.5 3.5
t-2.5 9.5q3 7 4 41q1 31 6 40q1 1 1 3q0 1 -5.5 5t-5.5 11q0 14 11 14q5 0 7 -4t4 -4q3 0 7.5 2t8.5 2h86q45 0 42 0q15 1 15 15q0 12 -40 12q-6 0 -54 -3t-75 -3q-11 0 -11 12q0 2 1.5 12t1.5 32q0 9 -2.5 32.5t-2.5 27.5q0 16 10 16q6 0 11 -3.5t8 -3.5q5 0 13 4h147
q3 0 14 -1q8 -1 11 0q4 3 4 11zM297 336q0 2 -10 -1q-14 -5 -23 -5h-109q-7 0 -8 2.5t-4 2.5q-2 0 -4 -5.5t-6 -5.5q-3 0 -7 2q-1 -13 -2 -25l2 -45q0 -5 4 -6q5 -1 5 6l1 59q11 3 38 3q18 0 48.5 -1t33.5 -1q41 0 41 20zM70 510q-5 0 -5 -151t5 -151q4 0 4 22q0 -20 0 129
q0 36 1 99q0 34 -1 43t-4 9zM98 179q0 -6 14 -5q32 3 37 3q14 0 46.5 -4t57.5 -4q65 0 65 7t-184 9q-36 0 -36 -6zM146 463l144 -1q30 0 44 14q9 9 -2 9l-8.5 -5.5t-31.5 -6.5q7 5 0 5l-148 2q-9 0 -9 -10q0 -7 11 -7zM151 243q-8 0 -8 -4q0 -5 9 -5q19 0 76 2t60 2
q12 0 28 -4q8 -2 8 3q0 7 -20 7zM142 394q-6 0 -6 -5q0 -7 13 -8h51q73 -1 73 7q-1 1 -7 1l-106 -2q-9 0 -13 3.5t-5 3.5zM135 447q0 8 -3 8q-6 0 -6 -11q0 -31 4 -42q3 -1 6 3z" />
    <glyph glyph-name="F" unicode="F" horiz-adv-x="380" 
d="M-7 667h394v-667h-394v667zM116 178q2 6 2 133q0 4 -2 7t-1 10q1 14 15 14q1 0 4 -5t7 -4l13 4h108q11 -5 19 -5q19 0 19 21q0 15 -34 15h-126q-4 0 -4 -5t-9 -5q-15 0 -10 18q2 14 2 39l-1 56q0 10 2.5 16.5t7.5 3.5q13 -7 20 -6l16 2l130 1q5 0 16 -3t16 -3q13 0 13 16
q0 19 -61 19q-184 0 -188 -11q-3 -9 0 -12q7 -8 8 -11t1 -5q0 3 -5 -9t-2 -37v-165q0 -15 -4.5 -31t-3.5 -58q11 -4 18 -4t14 4zM304 337q-1 0 -8.5 -6.5t-25.5 -6.5h-110q-5 5 -11 5v-7q1 -9 -18 -13l-1 -114q0 -5 4 -6q5 -2 5 4l4 116q7 4 60 3l67 -2q12 1 24 10.5
t12 15.5q-1 1 -2 1zM156 457l140 -1q31 0 39 9q4 4 3 7q-2 3 -6 0q-13 -8 -30 -8q-5 0 -3 3l4 5l-147 2q-11 0 -11 -10q0 -7 11 -7zM76 504q-5 0 -5 -151q0 -42 -1 -93q0 -32 0.5 -39t3.5 -7q6 0 6 139q0 35 1 97q0 35 -1 44.5t-4 9.5zM141 452q0 9 -5 9t-5 -18q0 -8 1 -19
q1 -14 6 -39q3 2 5 11zM148 376q57 -4 57 7q-1 2 -6 2h-33q-22 0 -22 -5q0 -4 4 -4z" />
    <glyph glyph-name="G" unicode="G" horiz-adv-x="410" 
d="M-7 667h424v-667h-424v667zM170 523q0 6 -18 4q-51 -6 -67 -21q-37 -32 -37 -133q0 -107 9 -141q4 -13 22.5 -33.5t55.5 -26.5q21 -3 79 -3q82 0 112 10q26 8 38 35q1 3 1 7q0 3 -2 2q-2 0 -6 -7q-11 -20 -27 -26q-29 -11 -113 -11h-62q-42 4 -66 21q-31 23 -31 135
q0 6 -1 24v29q0 132 97 132q16 0 16 3zM305 432q5 0 5 15q0 27 -99 27q-64 0 -82.5 -15t-18.5 -60q0 -114 8 -114q2 0 2 99q0 56 15 67q12 9 79 9q79 0 87 -16q1 -2 0 -8q0 -4 4 -4zM136 238q0 -16 86 -16q74 0 74 14q0 3 -13 1q-29 -4 -73 -4q-29 0 -51.5 3.5t-20.5 3.5
q-2 0 -2 -2zM360 482q-3 -4 -1 -8q3 -6 3 -10q0 -14 4 -13q5 0 5 11q0 21 -9 21q-1 0 -2 -1zM374 310q0 22 -5 22t-5 -22q0 -26 5 -26t5 26zM324 393q0 -4 15 -4t15 4q0 3 -16 3q-14 0 -14 -3zM324 300v-45q0 -16 -8 -25q-11 -12 -102 -12q-74 0 -96 14t-22 143
q0 77 17.5 96t104.5 19q72 0 90 -13q13 -10 13 -55q0 -18 17 -18q18 0 18 26q0 52 -23 66q-28 17 -119 17q-97 0 -123 -26q-19 -19 -19 -127q0 -121 26 -145t119 -24q90 0 111 13q27 16 27 85q0 31 0 29q-1 15 -13 15h-95q-15 0 -15 -18q0 -17 15 -17z" />
    <glyph glyph-name="H" unicode="H" 
d="M-7 667h414v-667h-414v667zM54 502q-1 -7 7 -20q5 -9 5 -47l-2 -212q0 -7 -3 -7q-10 0 -10 32v128q0 9 -5 9q-6 1 -6 -6q0 -174 3 -190q1 -8 10 -15t16 -7q2 0 2 1q0 2 -5 7.5t-5 6.5q0 2 2 3q3 1 5 -2q5 -7 11 -7q14 0 13 22q0 44 -2 100q-1 8 2.5 13.5t3.5 6.5
q0 6 -5 3q-1 0 -4 -2q-1 3 -1 9q0 27 19 27q3 0 3 -2t-4 -8q0 -1 1 -3q132 7 188 0q12 -1 13 1t3 4.5t4 1.5q3 -1 3 -7l-3 -134q0 -11 -5.5 -14.5t-5.5 -6.5q0 -18 19 -18q24 0 21 31q-3 27 -2 145q0 126 5 156q3 17 -21 17q-14 0 -14 -24q0 -2 3 -5t3 -6v-113l-196 4
q-8 0 -11 -5.5t-4 -5.5q-2 0 -4 3t-5 3q-2 0 -3.5 -6.5t-7.5 -5.5q0 18 4 26t3 11q-1 9 1 55.5t2 48.5q0 22 -17 22q-6 0 -15 -6t-9 -12zM125 320l152 -1q13 0 13 5t-108 5h-43q-14 -1 -14 -9zM353 405q-4 0 -4 -91q-1 -91 2 -91q10 0 8 29q-1 14 -1 32t1.5 49t1.5 41
q0 31 -8 31zM294 410q0 -14 6 -13q5 1 5 10q0 4 -2 19q-2 12 -1 16q2 11 0 29q-2 20 -7 20q-2 0 -1 -81zM287 251l7 -9q1 -1 2 -1q4 0 6 8t-1 8q-2 44 1 52q1 3 1 5q0 5 -4 5q-8 0 -9 -10zM46 479q-5 0 -5 -57q0 -14 8 -14q2 0 2 3l3 62q0 6 -8 6zM105 488v-91q0 -4 5 -3
q4 0 4 3v91q0 4 -4 4q-5 0 -5 -4zM103 324v-43q0 -4 4 -4t4 4v43q0 4 -4 4t-4 -4zM362 473q0 17 -2 17q-6 0 -7 -11q-7 -49 2 -53q7 -3 7 47zM86 171l-10 1q-2 0 -1 -5q2 -5 4 -5q7 0 10 4t-3 5zM103 261v-63q0 -4 4 -4t4 4v63q0 4 -4 4t-4 -4z" />
    <glyph glyph-name="I" unicode="I" horiz-adv-x="210" 
d="M-7 667h224v-667h-224v667zM113 518q-9 2 -11 0l-12 -12q-6 -6 2 -24v-46q0 -10 1.5 -86.5t1.5 -66.5q0 -80 1 -44q-1 -28 -9 -36q-1 -1 -1 -4q0 -8 8 -17t19 -9q14 0 13 22q-5 154 0 168v135q0 8 -6 14.5t-7 5.5zM71 422q0 -8 6 -8q7 0 4 5q-2 8 0 18q2 7 -2 7
q-8 0 -8 -22zM74 191q0 -4 5 -3t3 4q-2 5 -2 13t2.5 28.5t2.5 31.5q0 12 -2 20q0 87 -1 104q-1 9 -5 9l-4 -6z" />
    <glyph glyph-name="J" unicode="J" horiz-adv-x="380" 
d="M-7 667h394v-667h-394v667zM193 193q61 0 82 13q27 17 32 71q4 32 4 89q0 -13 2 51q2 44 -1 68q-5 34 -20 34q-8 1 -13.5 -3t-4.5 -12q8 -51 10 -123q3 -135 -16.5 -148t-96.5 -13q-55 0 -66 12q-7 7 -7 48q0 23 -17 23q-21 0 -21 -35q0 -46 31 -61q26 -14 102 -14z
M196 230q49 0 63 16q10 13 10 57v46q-1 5 -6 4q-5 0 -5 -3q2 -74 -6 -91q-10 -21 -56 -21q-38 0 -63 4q-11 2 -14 -1t31 -7q30 -4 46 -4zM278 184q4 2 5 4q2 3 0 3q-2 1 -7 -1q-42 -14 -112 -14q-45 0 -74 9q-4 1 -6 -2q-1 -4 2 -5q22 -10 88 -10q80 0 104 16zM38 272
q0 -60 12 -53q3 2 3 6q0 2 -3.5 16t-3.5 26q0 29 11 41q8 7 22 8q11 0 11 3q0 5 -13 5q-39 0 -39 -52zM263 489q-3 0 -3 -25q0 -22 5 -22q3 0 3 22q0 25 -5 25zM265 400q-4 0 -4 -16t4 -16q5 0 5 16t-5 16zM328 305q0 20 -6 20q-3 0 -3 -23q0 -11 -4 -43q-3 -22 1 -23
q12 -3 12 69z" />
    <glyph glyph-name="K" unicode="K" horiz-adv-x="385" 
d="M-6 667h398v-667h-398v667zM317 481q22 4 22 15q0 24 -22 24q-6 0 -10 -4l-138 -124l-13 -2q-24 -19 -36 -19l2 122q0 26 -17 26q-20 0 -20 -16q0 -6 6 -14q-1 -23 5 -49l-5 -223q0 -9 -3.5 -19t-3.5 -16q0 -16 20 -14q24 3 16 25q-3 8 -3 60q-1 54 5 59q2 2 2 12
q-1 10 -4 10t-3 -5q1 -6 0 -6q-5 0 -5 13q0 21 10 21q18 0 18 -6q0 -4 -3 -5t-3 -6q0 -7 18.5 -10.5t24.5 -9.5l135 -136q17 -17 30 -5t-4 28l-61 57q-54 50 -94 78q-22 15 -22 19q0 3 19 16q33 24 72 58h8zM202 370q3 -3 139 98q3 2 4 7q1 4 -2 4q-1 0 -3 -1
q-142 -100 -138 -108zM225 242q3 3 -1 11q-21 22 -43 44q-26 26 -30 23q-2 -1 -2 -3q0 -8 76 -75zM298 180q2 2 2 4q0 1 -30.5 29t-33.5 25q-2 -2 -2 -3q0 -4 27 -27q35 -30 37 -28zM75 479q-4 0 -4 -8q0 -15 -2 -74q-1 -51 0 -74q1 -33 6 -33q6 0 6 30q-1 33 -1 66l2 64
q0 29 -7 29zM132 324q-4 0 -5 -11q0 -7 1 -24t1 -22q0 -78 5 -78q2 0 3 46q2 89 -5 89zM137 479q-6 0 -6 -44q0 -17 2 -17q6 0 6 17q0 44 -2 44zM191 436q-1 6 -12 -2q-25 -18 -20 -25q3 -4 18 9.5t14 17.5zM74 506q-4 0 -4 -8t4 -8q3 0 3 8t-3 8zM232 329q-3 -3 11 -15
q10 -8 20 -17q33 -34 37 -30q7 7 -30 36q-2 1 -19 18q-11 10 -15 10q-2 0 -4 -2z" />
    <glyph glyph-name="L" unicode="L" horiz-adv-x="350" 
d="M-7 667h364v-667h-364v667zM128 502q0 21 -28 21q-21 0 -11 -30q4 -12 3 -20q-1 -18 -1 -25l4 -169q0 -28 -1 -55q1 -22 16 -21q6 0 32 -1q36 -1 83.5 -1t59.5 -3.5t9 -3.5q12 0 12 22q0 15 -14 15q-43 1 -75 1q-52 0 -74 -3.5t-26 -3.5q-12 0 -2 24q1 -1 2 -1
q11 0 11 254zM77 519q-5 0 -5 -151q0 -150 5 -150q4 0 4 150q0 36 1 99q0 34 -1 43t-4 9zM142 341q0 4 -4 4q-5 -1 -5 -5v-69q0 -5 6 -5q6 1 5 6q-2 14 -2 69zM148 254q0 -7 40 -7q86 0 98 -4q19 -7 19 0q0 9 -20 10q-137 5 -137 1zM103 184q0 -7 14 -6q39 3 38 3
q17 0 43 -3t34 -3q66 0 66 6q0 4 -26 4l-132 4q-37 1 -37 -5z" />
    <glyph glyph-name="M" unicode="M" horiz-adv-x="420" 
d="M-7 667h434v-667h-434v667zM322 385v-181q0 -3 -4 -8t-4 -10q0 -19 21 -19q10 0 13 13t-3 21l1 284q0 28 -24 28q-19 0 -22 -9.5t-4 -16.5l-67 -155q-1 -32 -17 -32q-7 0 -17 9.5t-6 9.5q8 0 4 9l-82 172q-7 14 -22 14q-31 0 -31 -16q0 -3 4 -4t4 -6l1 -185l-5 -11v-84
q0 -11 -12 -11q-4 0 -5 8.5t-4 8.5q-4 0 -1 -13q4 -20 33 -20q15 0 15 16v252q0 5 2 6.5t3 6.5q0 4 -3 8t-4 10t3 6q7 0 13 -11q25 -50 25 -51q-10 3 -21 0q0 -10 10.5 -10.5t14.5 -9.5l63 -124l-5 -8q16 -8 22 -8q20 0 25 32l75 178q4 10 11 10q6 0 5 -12zM357 203
q0 -6 3 -6q6 0 6 13q0 75 1 110q0 15 1 29q1 115 1 105q0 16 -5 31q-1 4 -4 1q-3 -4 -3 -10v-273zM49 249l1 221q0 8 -5 8q-2 -1 -2 -6l-2 -222q0 -6 4 -8q4 -1 4 7zM304 370l-3 -37q0 -4 -3 -6t-3 -6q0 -108 3 -130q0 -4 2 -4q6 0 6 11l2 140q11 32 -4 32zM283 369l-20 -46
l-4 -25q-11 -31 -38 -48q4 -3 8 -3q13 0 26 20t17 45q0 7 16 47q2 3 0 8q-1 4 -3 4q-1 0 -2 -2zM188 250q-13 12 -44 79q-30 63 -33 63q-2 0 -2 -3q0 -9 49 -115q14 -31 30 -24zM198 372l-52 108q-1 3 -6 3q-1 -2 -3 -4l52 -108q4 -8 8 -7t1 8zM278 492l-39 -85
q-31 -67 -31 -68q0 -2 2 -3q5 -2 14 18l22 48q19 39 37 86q2 4 -1 6q-3 1 -4 -2zM85 171q0 4 -5 3q-8 -1 -10 -1q-1 0 -9 2q-5 2 -5 -2q0 -8 14 -8q14 -1 15 6zM44 503q-3 0 -3 -8t3 -8q5 0 5 8t-5 8z" />
    <glyph glyph-name="N" unicode="N" 
d="M-7 667h414v-667h-414v667zM76 170q12 7 13 29q2 18 -4 29v244q0 17 11 17q12 0 22.5 -9t7.5 -14q-2 -3 -10.5 -1.5t-8.5 -6.5q0 -11 10 -11h1q7 0 9 -3l140 -227q4 -7 1 -9q-4 -2 -4 -4q0 -4 8.5 -9t16.5 -5q32 0 46 13q5 5 5 7t-4 4t-4 5l5 232q1 7 2 15l-7 3
q-1 1 -1 2q0 3 4.5 13t4.5 12q0 21 -15 21q-8 0 -15 -7.5t-7 -15.5q0 -6 5.5 -7.5t5.5 -11.5v-174q0 -57 -1 -63q-1 -15 -10 -15q-18 0 -21 8.5t-5 17.5q-92 138 -153 258q-3 6 -10 6l-38 1q-22 1 -22 -21q0 -4 8 -8q4 -3 4 -26q-1 -57 -2 -113l-2 -139q0 -15 -6 -15
q-8 0 -8 8q0 2 1 41v47q0 9 -4 11q-5 1 -5 -5v-101q0 -21 16 -22zM257 187q3 1 3 5q0 7 -24 38v11q-24 32 -76 123q-40 70 -46 66q-3 -2 12.5 -25t13 -25t55.5 -98t62 -95zM357 273l1 205q-2 3 -4 5q-4 -1 -4 -6l-2 -186l-3 -8v-61q0 -4 4 -5q5 -2 5 4zM46 501q-5 0 -5 -18
q0 5 0 -79q0 -26 -1 -60v-30q1 -9 4 -9q5 0 5 99q0 -14 2 76q0 21 -5 21zM102 439q-5 0 -7 -29q-1 -21 1 -61q1 -49 1 -51q0 -96 4 -97q5 -1 6 2v23q-2 29 -1 62q1 43 0 71q-1 19 -2 30l-1 11q0 39 -1 39zM297 267q4 0 2 35q-2 74 -2 147q0 50 -3 50q-6 0 -6 -50
q0 25 -1 -49q-1 -54 1 -87q2 -46 9 -46zM167 465q-3 0 -3 -4q0 -7 12 -29q9 -16 37 -62q12 -19 23 -38l15 -15q4 6 -9 27zM348 202l-11 -13.5t-34 -13.5q-6 0 -19 3q-7 1 -7 -2q0 -9 25 -9q22 0 37 13q11 9 11 19q0 3 -2 3zM277 279l-10 21q-2 4 -6 3q-5 -1 -3 -4l10 -21
q2 -4 6 -3t3 4zM291 254q0 -19 10 -19q3 0 3 12t-4 13q-9 3 -9 -6z" />
    <glyph glyph-name="O" unicode="O" 
d="M-7 667h414v-667h-414v667zM348 346q0 103 -23 135q-27 37 -116 37q-84 0 -105 -17q-34 -28 -34 -135q0 -104 15 -128q24 -40 127 -40q80 0 103 20q33 28 33 128zM325 357q0 -92 -11 -110q-18 -30 -104 -30q-70 0 -91 19q-27 24 -27 106q0 110 15.5 129.5t104.5 19.5
q82 0 102 -33q11 -19 11 -101zM212 472h-54q-57 0 -56 -108q1 -57 6 -62q4 -1 6 4q-5 17 -3 57t7.5 65.5t39.5 30.5q5 1 56 1q40 0 55 -7q12 -6 12 9q0 10 -69 10zM294 439q-5 3 -5 0q-1 -3 2.5 -8t3.5 -24l-1 -122q0 -48 -68 -48q-4 0 -5 -2t3 -3q13 -3 31 1q37 8 46 29
q4 8 4 32v121q0 17 -11 24zM122 189q-8 3 -9 0q-1 -4 5 -6q39 -16 95 -16q121 0 137 62q1 5 -1 6q-3 1 -5 -3q-25 -54 -132 -54q-56 0 -90 11zM44 279q1 -3 5 -3q3 1 3 5q-5 45 -4 81q3 104 27 123q7 5 2 7q-4 3 -9 -2q-30 -37 -30 -127q0 -57 6 -84zM367 399q0 8 -3 8
q-4 -1 -4 -8q0 -79 -3 -114q0 -5 3 -6q3 0 4 4q3 14 3 116zM183 238q-10 0 -10 -3q0 -4 10 -4q11 0 11 4q0 3 -11 3zM60 241q-2 0 -2 -3q0 -6 6.5 -14.5t9.5 -4.5l-6.5 11t-7.5 11z" />
    <glyph glyph-name="P" unicode="P" horiz-adv-x="380" 
d="M-7 667h394v-667h-394v667zM247 513h-123q-51 0 -51 -9q0 -8 2 -10.5t2 -6.5q0 -37 2 -84.5t2 -52.5q0 -101 -10 -164q-3 -21 24 -21q9 0 9 10l-1 103q0 43 17 43q3 0 9 -1t10 -1q111 0 133 3q47 6 47 105q0 36 -17 59q-19 27 -55 27zM134 488l116 -1q45 0 45 -57
q0 -45 -3 -55q-7 -26 -37 -30q-33 -4 -138 -2q-11 -10 -18 -1l1 71q1 64 3.5 69.5t30.5 5.5zM263 293q77 8 77 126q0 42 -11 57q-1 2 -5 3q-3 1 -3 -2q0 -2 2 -5q8 -12 8 -40q0 -49 -5 -68q-9 -33 -41 -50q-24 -13 -159 -7q-4 0 -6 -3q-1 -3 0 -6q2 -4 6 -4q73 -8 137 -1z
M59 496q-6 0 -6 -55q0 -47 -3 -198q-1 -40 7 -40q3 0 4 16q1 13 1 69q-1 101 -1 158q0 50 -2 50zM268 368q12 21 12 50q0 34 -13 44q-20 16 -128 10q-15 -1 -15 -3q0 -8 22 -11q44 1 117 -2q8 -11 7 -40q0 -30 -8 -46q-2 -4 1 -5t5 3zM174 365q-48 0 -48 -5q0 -3 48 -3t48 3
q0 5 -48 5zM113 456l-1 -56l4 -4q4 0 4 7q7 53 -7 53zM120 288q-9 0 -7 -70q1 -7 5 -7q3 1 4 7q1 27 2 53q0 17 -4 17z" />
    <glyph glyph-name="Q" unicode="Q" horiz-adv-x="398" 
d="M-5 667h410v-667h-410v667zM200 510q-87 0 -111 -25q-28 -30 -28 -142q0 -96 18 -121q26 -37 125 -37q73 0 107 29l20 -2l28 -15q11 -6 11 10q0 5 -4 7q-8 3 -36 23q4 14 9 88q2 119 -20 151q-25 34 -119 34zM305 248q-3 -24 -30 -32q-21 -6 -75 -6q-82 0 -99.5 23
t-17.5 125q0 86 20.5 107t99.5 21q78 0 95.5 -21.5t17.5 -112.5q0 -67 -8 -99q-32 23 -69 57q-20 18 -30 18q-12 0 -12 -7t10 -11q7 -3 41 -38q30 -29 38 -26q1 1 -2.5 6.5t-1.5 5.5q1 0 4 -1zM270 462q-31 6 -67 5l-55 -2q-11 0 -27.5 -13t-19.5 -25q-5 -22 -6 -66t2 -59
t10 -42q3 -4 5 -4q3 1 1 8q-17 57 -2 158q2 15 9 19q17 10 83 10q51 0 57 -5q6 -3 9 3.5t1 12.5zM366 356q0 22 -6 57t-12 34q-2 0 1 -25q4 -36 4 -73q0 -59 -3 -91q-1 -7 2 -9q2 -1 4 4q10 34 10 103zM291 301q0 -7 6 -7q6 -1 6 7q0 144 -15 144q-11 0 -11 -6q0 -3 6 -16.5
t6 -22.5zM256 246q-17 12 -44 39q-21 22 -27 22q-2 0 -3 -1q-6 -5 41 -42q7 -6 27 -26q3 -3 7 1q3 4 -1 7zM175 231q-14 0 -34 3q-10 1 -10 -3q0 -8 43 -8q42 0 42 8q0 4 -10 3q-19 -3 -31 -3zM222 347q-1 -1 -1 -2q0 -6 19 -20q27 -21 31 -24.5t7 -1.5q4 2 0 6
q-12 15 -32.5 30t-23.5 12zM291 176q21 15 44 10q3 0 3 6q-9 5 -19 5q-16 0 -33 -15q-6 -5 -4 -8q3 -2 9 2zM231 172q-17 0 -17 -4t17 -4t17 5q0 3 -17 3zM40 273q1 -3 5 -3q4 1 4 5q-5 45 -4 81q3 107 24 123q7 5 3 7q-4 3 -9 -2q-30 -37 -30 -127q0 -53 7 -84z" />
    <glyph glyph-name="R" unicode="R" horiz-adv-x="401" 
d="M-7 667h415v-667h-415v667zM257 510h-140q-50 0 -51 -6q-2 -13 5 -13q1 0 3.5 2t3.5 1t1 -7q-1 -108 -9 -286l-21 -1q-4 0 -4 -4q0 -5 4 -5l16 -1q0 -19 12 -19q11 0 22 11q-4 58 -2 103q2 42 8 42l9 -1.5t22 -1.5h133q39 0 39 -40q0 -93 -9 -100q-2 -1 -2 -3
q0 -5 7.5 -9t12.5 -2q14 6 16 38v73q0 17 -9 32t-20 18q30 37 30 88q0 91 -77 91zM97 487q87 -2 163 -1q17 0 31 -17t14 -39q0 -84 -27 -82q-107 8 -161 1q-5 -1 -5.5 -4.5t-1.5 -3.5q-8 -1 -15 3q0 65 2 143zM279 370q15 17 15 51q0 38 -18 48q-23 13 -144 6q-15 -1 -15 -5
q0 -6 15 -8q10 -1 31 0q25 1 28 1h24q16 1 21 1q45 0 45 -47q0 -29 -5 -39q-3 -6 -2 -9t5 1zM109 444q-3 -74 1 -77t62 -3q59 0 60 5q0 4 -48 4q-55 1 -67 4q4 32 4 58q0 22 -8 22q-4 0 -4 -13zM122 310l6 -13l120 -7q28 -2 28 13q0 4 -8 4zM57 493q3 0 3 -214q0 -66 -6 -66
q-5 0 -5 89q0 191 8 191zM112 296q-4 -13 -4 -61q0 -47 4 -49q8 0 8 74q0 33 -8 36zM294 289q0 8 -3 8q-9 0 -8 -17q1 -20 -1 -64q-1 -25 3 -25q7 0 9 37v61zM340 336q16 25 16 68q0 24 -4 43q-1 5 -3 8t-3 2t0 -8q8 -70 -12 -109q-3 -5 1 -6q3 -2 5 2zM349 297q-6 0 -6 -35
t6 -35q2 0 2 35t-2 35z" />
    <glyph glyph-name="S" unicode="S" 
d="M-7 667h414v-667h-414v667zM208 513q-87 0 -111.5 -18.5t-24.5 -80.5q0 -41 25 -56.5t95 -15.5q65 0 79 -4q41 -11 41 -56q0 -37 -20 -51q-23 -16 -88 -16q-82 0 -96 16q-5 5 -14 28q-7 16 -17 16q-22 0 -22 -18q0 -14 13 -3q7 -4 13 -22.5t25 -26.5q28 -13 94 -13
q67 0 96 14q42 20 42 75q0 58 -40 75q-22 10 -82 10q-72 0 -81 2q-39 10 -39 59q0 43 35 55q16 5 72 5q63 0 87 -12q21 -11 21 -38q0 -17 9 -17q18 0 18 25q0 68 -130 68zM74 492q-7 5 -18 -16q-12 -24 -12 -50q0 -59 22 -81q32 -34 132 -34q58 0 76 -7q14 -6 15 -23
q1 -16 -8.5 -23t-9.5 -8q0 -2 5 -2q20 0 20 35q0 37 -18 37q-36 0 -91 4q-74 6 -85 14q-28 20 -37 38t-9 52q0 36 11 53zM353 307q-1 4 -3 3t-2 -6q2 -64 -18 -90q-31 -41 -130 -41q-81 0 -116 22q-4 3 -5 1q-2 -2 2 -5q25 -20 65 -26q21 -3 77 -3q51 0 85 21q48 29 48 95
q0 20 -3 29zM182 237q-20 0 -43 7q-26 8 -31 18q-2 3 -4 3q-2 -1 0 -5q8 -21 39 -26.5t31 -8t42 -2.5q39 0 39 8q0 6 -18 7q36 -1 -55 -1zM153 383q45 -3 89 -6q53 -3 81 -22q3 -2 5 -1q3 2 0 4q-43 37 -174 31q-8 0 -8 -3q1 -2 7 -3zM104 426q0 -30 13 -30q5 0 5 6
q0 3 -4 6.5t-4 17.5q0 19 33 24q15 3 60 3t63 -11q12 -6 14 -17.5t7 -11.5q9 2 1 27q-10 31 -89 31q-70 0 -65 -1q-12 2 -12 -4q0 -2 4 -4t4 -3q0 2 -15 -6t-15 -27zM51 248q-1 3 -4 2t-3 -7q0 -28 7 -28q4 0 2 18z" />
    <glyph glyph-name="T" unicode="T" horiz-adv-x="355" 
d="M-7 667h369v-667h-369v667zM205 480l96 4q16 1 16 8q0 20 -42 20l-209 2q-29 0 -29 -22q0 -8 20 -9h92q3 5 17 6t14 -4q0 -6 -2 -6q-1 0 -5.5 2t-8.5 2q-7 -1 -8 -6q0 -5 8 -5q4 -3 2 -12q-1 -6 -3 -12l-4 -113v-117q0 -8 -5 -17.5t-5 -11.5t3 -4t9 -11q4 -5 13 -5
q18 0 18 15l-3 242q0 6 2.5 10.5t2.5 13.5q0 25 -7 29q-2 2 2 5t9 3q6 0 7 -7zM140 182q6 0 6 35l2 190q0 46 -10 46q-5 0 -5 -9q0 -6 2 -8.5t2 -9.5q0 2 -2 -74q-2 -72 -1 -112q1 -58 6 -58zM203 396q1 -8 5 -6q3 1 4 6q1 17 2 35.5t8 19.5q25 1 50 3q29 1 40 8q4 3 5 4
l-2 2q-2 0 -5.5 -1.5t-11.5 -4.5q-4 -1 -4 2t1 7q0 3 -4 1q-12 -5 -33 -5h-33q-3 -1 -3 -2t-1 -1q-10 0 -11 -2q-8 -7 -8 -38q0 -12 1 -28zM119 460q6 0 12 5q1 3 1 5q-28 1 -80 -2q-9 -1 -10 -4q0 -3 5 -4h72zM206 340q-4 0 -4 -33q0 -32 4 -32t4 32q0 33 -4 33z" />
    <glyph glyph-name="U" unicode="U" horiz-adv-x="415" 
d="M-7 667h429v-667h-429v667zM211 219q-54 0 -77 8q-34 11 -34 43v189h4v38q0 17 -17 17q-23 0 -23 -20q0 -5 4.5 -8.5t4.5 -9.5v-183q0 -58 28 -77t115 -19q69 0 88 8q40 15 40 76v111l5 4v86q5 -2 5 6q0 28 -21 28q-7 0 -15.5 -8t-8.5 -14q0 -3 7.5 -6.5t7.5 -16.5
q0 -10 -2.5 -68t-2.5 -66q0 -82 -10 -95q-16 -23 -98 -23zM298 478l-3 -186q0 -16 -4 -29l-4 -13q0 -3 3 -4q16 -8 16 48v183q0 8 -4 8t-4 -7zM46 274q-1 -48 32 -76q4 -4 7 0q2 3 -4 9q-25 22 -25 63v167q0 8 -3 6q-4 -2 -4 -7zM115 457q-2 0 -2 -41q0 -7 -1 -48.5
t-1 -52.5t-1 -35q0 -13 1 -17t4 -4q6 0 6 52q0 8 1 53v54q0 39 -7 39zM364 483q-4 0 -4 -73q0 -22 -2 -82q0 -17 4 -17q6 0 6 77q0 95 -4 95zM251 174q0 -6 14 -6q50 0 82 36q20 22 20 67q0 24 -7 24q-2 0 -3 -29q-1 -33 -11 -47q-17 -23 -41 -33q-15 -5 -38 -7
q-16 -2 -16 -5zM94 190q-7 -10 31 -19q33 -8 33 3q0 7 -14 7q-18 0 -32.5 5.5t-13.5 5.5q-2 0 -4 -2zM196 174q-27 1 -27 -3q0 -6 26 -8q29 -2 29 6q0 5 -8 5h-20zM54 492q-3 0 -4 -9q-1 -8 0 -17q2 -9 6 -9q12 0 3 10q-4 4 -3 14.5t-2 10.5zM118 493q-6 0 -6 -16q0 -8 3 -8
q6 0 6 8q0 16 -3 16z" />
    <glyph glyph-name="V" unicode="V" horiz-adv-x="375" 
d="M-7 667h389v-667h-389v667zM85 498q-6 16 -15 16t-15.5 -7t-6.5 -13q0 -10 5 -10q9 0 13 -12q81 -225 91 -260q2 -6 -1.5 -7t-3.5 -3q0 -16 31 -18q2 0 2 2q0 1 -2 6t-2 7q0 5 7 5t6.5 -10t1.5 -10q4 0 15 9t11 14q0 15 4 26l84 238q3 9 9 13t6 8q0 16 -20 18
q-16 2 -21 -12q3 -3 0 -23l-72 -206q-2 -7 -10 -10.5t-9 -7.5q-6 -17 -5 -18q4 -5 21 5q-2 -11 -9 -12.5t-7 -2.5v-7q0 -4 -5 -4q-6 0 -5 4q2 6 1 7q-2 2 -8 3t-6 6q0 3 3.5 7.5t3.5 6.5q0 5 -3.5 8.5t-3.5 4.5zM42 503q-7 0 -7 -13q0 -10 8 -33l84 -243q10 -28 23 -38.5
t39 -10.5q41 0 49 36q1 6 -2 8q-2 1 -4 -2q-10 -20 -11 -21q-11 -14 -33 -14q-33 0 -46 26q-10 33 -21 66l-77 216q-3 7 -1 17q2 6 -1 6zM196 275q2 0 8 18l57 165q0 4 -1 9q-3 0 -6 -7l-62 -161q-3 -7 -1 -15q1 -9 5 -9zM334 479q-5 2 -23 -48q-44 -125 -76 -208
q-2 -6 2 -8q4 -1 6 4q93 241 93 256q0 3 -2 4z" />
    <glyph glyph-name="W" unicode="W" 
d="M-7 667h414v-667h-414v667zM201 412q-12 0 -16 -7q0 -1 -6 -19l-50 -156q-1 5 -7 26q-6 18 -6 28q0 9 4 15q-19 70 -40 198q-4 22 -20 22q-9 0 -15.5 -7.5t-6.5 -15.5q0 -4 8.5 -8.5t11.5 -18.5l50 -252v-22q2 -18 15 -18t35 63q23 71 45 141l50 -156q4 -12 3 -19
q-3 -10 -3 -12q0 -19 31 -19q14 0 14 22q0 12 -6 15q8 19 28 124q19 102 26 156q2 20 3 15q-1 12 -14 12q-19 0 -14 -27q-14 -92 -32 -156q-13 -51 -13 -49q0 -2 1 -3q5 -2 7 4.5t4 6.5q7 0 5 -6q-14 -46 -18 -46q-5 0 -29 84.5t-45 84.5zM367 481q1 8 -5 8q-7 0 -8 -7
q-18 -121 -33 -204q-18 -96 -18 -91q0 -5 3 -5q10 0 36 143q23 129 25 156zM40 477q-2 0 -3 -1q-1 -2 2 -27.5t24 -124.5q22 -106 27 -106q2 0 2 6q0 10 -32 179q-14 74 -20 74zM296 496q-5 0 -8 -16q-6 -35 -11 -70q-13 -87 -13 -85q0 -7 3 -7q8 0 15 41l6 46q15 91 8 91z
M96 490q-5 -1 7 -58q11 -52 13 -61q5 -15 11 -12q2 1 2 3t-6 20q-7 24 -12 52q-10 57 -15 56zM240 182q4 0 4 5q0 6 -16 58q-7 23 -13 46q-4 12 -9 11q-2 0 -2 -5q0 -13 14 -57l12 -42q4 -16 10 -16zM150 179q14 0 29 48q14 43 14 66q0 6 -2 6q-3 0 -20 -58q-6 -22 -16 -42
q-8 -16 -8 -18t3 -2zM137 317q5 -2 21 40.5t11 45.5q-8 4 -20 -33q-17 -51 -12 -53z" />
    <glyph glyph-name="X" unicode="X" horiz-adv-x="380" 
d="M-7 667h394v-667h-394v667zM286 504l-79 -107q-9 -13 3 -15q-7 -4 -22 -17q-2 12 -6 13t-7 2q-2 2 0 4q3 2 2 6q-1 6 -39 58q-33 45 -42 56t-16 11q-9 0 -20.5 -11t-11.5 -23q0 -8 3 -14.5t7 -3.5q2 1 -1.5 8t-2.5 11q2 3 11 3l19 -1l15 -24v-10q17 -13 60 -81
q3 -4 12 -2.5t9 -1.5q1 -7 -1.5 -17.5t-7.5 -8.5q-1 1 -4 1t-104 -122l-10 -3q-3 -1 -4 -5q-1 -5 4.5 -7.5t5 -7t1.5 -5.5q1 0 5 3.5t7 2.5q3 0 4 -5.5t2 -5.5q8 0 61 82q50 78 51 72l18 -24v-16l45 -47v-8l27 -36q3 -4 5 -4q3 0 7.5 6t5.5 6q7 0 7 -7t-11.5 -8.5
t-11.5 -6.5q0 -11 17 -11q15 0 15 18q0 7 -19 31l-92 115q0 5 7 7t5 12l92 115q2 2 10 6q3 2 3 8q0 15 -15 16q-13 1 -19 -7zM133 364l-69 92q-2 3 -6 2q-3 -1 0 -5l71 -96q3 -4 3 -7t-2 -7t-2 -5q0 -2 2 -4t6 2t4 11q0 8 -7 17zM64 474q-5 -3 32 -50l26 -36q16 -21 20 -18
q2 1 -40 58q-35 48 -38 46zM307 461q-3 2 -13 -11q-21 -29 -23 -31v-10l-33 -37q-7 -8 -6 -23q1 -16 10 -16q3 0 3 3q0 2 -2.5 8t-2.5 10q0 3 2 5l80 100q12 15 7 18q-11 -16 -26 -30q-1 1 2 5.5t3 6.5q0 1 -1 2zM173 281q4 6 1 9q-4 3 -7 -2q-20 -32 -50 -70
q-17 -22 -14 -25q6 -5 70 88zM189 291q-2 0 -2 -1q0 -4 29 -45q34 -49 51 -49q3 0 -6 10q-19 19 -33 39q-34 46 -39 46zM72 244q3 3 0 5q-3 3 -7 -1q-26 -26 -22 -29q5 -5 29 25zM256 190q-1 -1 -1 -3t11 -14q4 -5 8 -2t0 7q-15 15 -18 12zM128 328q-4 4 -12 -6
q-11 -11 -6 -15q3 -3 11.5 8t6.5 13z" />
    <glyph glyph-name="Y" unicode="Y" horiz-adv-x="375" 
d="M-7 667h389v-667h-389v667zM76 476l92 -186h20q3 0 3 -4t-4 -4l-17 -2l1 -69q0 -8 -3.5 -9t-3.5 -6q0 -25 17 -25q18 0 18 43q0 10 -1 32q-1 19 -1 27q0 11 48 99q53 99 56 106q1 3 8 10t7 16q-1 13 -20 13q-16 0 -18 -13q-5 -23 -7 -27q-19 -38 -38 -75q-28 -53 -40 -56
q-3 -1 -4 -6t2 -5h11q2 -1 0 -7q-1 -4 -5 -2.5t-6 -0.5q-1 -1 1 -13q2 -10 -5 -10q-2 0 -1 7t-1 10l-88 176q-4 9 -9 18q-3 5 -13 5q-8 0 -16 -7.5t-7 -14.5q0 -5 11 -10t13 -10zM54 473q-6 -1 -1 -11l94 -191v-86q0 -4 4 -4t4 4l-2 21q6 15 4 61q0 5 -4 8t-4 11.5t-44.5 98
t-50.5 88.5zM214 184q5 0 5 40q1 45 3 49q4 10 58 111q49 92 49 106q0 3 -2 3q-4 0 -6 -11t-11 -15q-95 -172 -96 -193q-3 -90 0 -90zM193 379q4 -2 36 53q27 46 27 50v0q0 2 -1 2q-3 2 -33 -50.5l-30 -52.5q0 -1 1 -2zM109 499q-1 -1 -1 -3q0 3 17 -38q21 -49 26 -46
q2 1 2 3q0 3 -20 46q-8 16 -15 32q-4 8 -9 6z" />
    <glyph glyph-name="Z" unicode="Z" horiz-adv-x="380" 
d="M-7 667h394v-667h-394v667zM91 515q-39 0 -39 -19q0 -18 21 -15l34 5l120 1q4 0 17 -5.5t17 -5.5q2 0 3 1q1 2 -5.5 7t-6.5 6q0 2 4 2l35 1q-22 -40 -41 -40q-61 -80 -152 -189q-42 -49 -42 -66q0 -13 17 -13l216 1q6 -2 11 -2q20 0 20 17q0 14 -14 14q-58 0 -117 -2
t-65 -2q-28 0 -28 9q0 4 23 31q49 56 84 97l2 7q53 65 83 94q16 15 33 31q4 5 4 12q0 8 -5.5 15.5t-12.5 7.5h-216zM144 251q4 -3 21 17q54 65 108 129q2 2 2 4q0 3 -4 4q-3 1 -5 -1q-123 -144 -123 -150q0 -2 1 -3zM71 467q0 -6 7 -7q5 0 36 1q46 1 90 1q5 0 14.5 2.5
t14.5 4.5q1 2 2 3q-12 0 -63 1q-47 1 -68 0q-33 -1 -33 -6zM76 168q0 -3 122 -3q111 0 96 0q17 0 17 4q0 6 -16 6q-9 1 -90 0q-56 0 -111 -1q-18 0 -18 -6zM140 230q0 -5 12 -5q-21 0 68 0q21 0 58 -1q21 0 26.5 1t5.5 4q0 6 -92 6q-78 0 -78 -5zM83 274q3 -3 24 24
q18 24 14 26q-3 1 -21 -21t-18 -26q0 -2 1 -3zM157 367q6 -5 38 37q22 30 22 34q0 2 -1 3q-4 3 -31 -32q-31 -40 -28 -42zM333 503q-2 -2 0 -10q3 -12 -5.5 -21t-7.5 -10q4 -4 13.5 5.5t9.5 20.5q0 6 -4.5 11.5t-5.5 3.5zM311 441q4 5 1 7q-3 3 -8 -2q-18 -18 -16 -21
q1 -1 3 -1q6 0 20 17z" />
    <glyph glyph-name="bracketleft" unicode="[" horiz-adv-x="260" 
d="M267 667v-667h-274v667h274zM129 596q-21 0 -13 -32q4 -16 4 -466l9 -5l88 -2q10 0 10 16q0 15 -14 15h-67q0 100 1 448l67 -2q13 0 13 14t-10 14h-88zM104 584q-5 0 -5 -151q0 -91 -1 -222q0 -69 0.5 -81.5t4.5 -12.5q5 0 5 41q0 -13 0 275q0 41 1 104q0 33 -1 40t-4 7z
M170 158l-1 173q0 6 -3 6q-7 0 -7 -11l2 -172q0 -5 5 -3q4 1 4 7zM174 137q0 -4 27 -4q25 0 25 4t-28 4q-24 0 -24 -4zM130 77q0 -5 46 -5q42 0 42 2q0 5 -8 6h-43q-37 0 -37 -3zM117 609q0 -1 64 -1q3 0 29 -2q13 -2 13 3q0 9 -44 9q-62 0 -62 -9zM236 601q-3 -4 -1 -8
q3 -6 3 -10q0 -14 4 -13q5 0 5 11q0 21 -9 21q-1 0 -2 -1z" />
    <glyph glyph-name="backslash" unicode="\" horiz-adv-x="325" 
d="M332 667v-667h-339v667h339zM39 503q0 -7 4 -12q11 -12 13 -14q74 -103 148 -205q61 -85 69 -85q14 -1 14 14q0 19 -207 291q-21 28 -26 28q-15 0 -15 -17zM174 284q-1 -1 -1 -2q0 -6 21.5 -33.5t23.5 -26.5q1 1 -20 32.5t-24 29.5zM165 300q1 1 -54 77q-15 21 -37 55
q-11 19 -14 17q-5 -3 44 -75q54 -80 61 -74zM269 254q1 1 1 2q0 9 -96 141q-87 120 -90 117q-4 -3 19 -34q30 -41 61 -82q35 -47 80 -115q21 -32 25 -29z" />
    <glyph glyph-name="bracketright" unicode="]" horiz-adv-x="260" 
d="M267 667v-667h-274v667h274zM116 560q0 -415 3 -448h-69q-14 0 -14 -15t10.5 -15t39.5 -1q21 -1 31 0q16 2 26 7q-2 131 4 466q1 20 -2 29q-9 3 -99 3q-10 0 -10 -14q0 -15 14 -15q52 0 66 3zM161 543q-5 0 -6.5 -18t-1.5 -102q0 -291 0 -270q0 -46 7 -46q4 0 5 15v86
q-1 117 -1 215q0 36 1 80q0 28 -0.5 34t-3.5 6zM94 455l-3 -230q0 -9 5 -9t5 9l2 219q0 16 -7 16q-2 -1 -2 -5zM107 129q0 5 -12 4h-24q-34 3 -34 -5q0 -4 3 -4q-8 1 33 1q34 0 34 4zM90 549q-3 -1 -32 -2q-21 0 -21 -4q0 -6 22 -6q18 0 31 3q3 1 3 5q0 5 -3 4zM133 604
q0 6 -67 6q-39 0 -39 -9q0 -4 10 -3q23 2 34 2q17 0 38 -1q15 -1 19 0q5 1 5 5zM29 116q-1 1 -2 1q-9 0 -9 -21q0 -11 5 -11q4 -1 4 13q0 4 3 10q2 4 -1 8z" />
    <glyph glyph-name="asciicircum" unicode="^" 
d="M33 0v667h334v-667h-334zM40 7h320v653h-320v-653z" />
    <glyph glyph-name="underscore" unicode="_" horiz-adv-x="500" 
d="M500 -108h-500v63h500v-63zM500 0h-500v63h500v-63z" />
    <glyph glyph-name="grave" unicode="`" 
d="M-7 667h414v-667h-414v667zM115 633q0 -9 71 -59q17 -12 22 -12q13 0 13 14q0 4 -3 7q-87 65 -91 65q-12 0 -12 -15zM162 634q63 -47 66 -47q1 0 2 1q3 3 -64 52q-4 3 -7 1q-3 -3 3 -7zM101 629q0 -7 7 -14.5t11 -4.5q2 2 -4.5 8.5t-6.5 11t-3 3.5q-4 -1 -4 -4z" />
    <glyph glyph-name="a" unicode="a" 
d="M-7 667h414v-667h-414v667zM246 488q-7 21 -39 21q-31 0 -39 -21q-32 -91 -108 -280q-2 -6 -2 -11q0 -19 15 -19q13 0 17 14l15 52q3 12 31 12h133q22 0 26 -13l14 -46q6 -19 18 -19q22 0 12 30zM207 488q12 0 18.5 -13t4.5 -15q-1 -2 -3 -2q-1 0 -5.5 7t-7.5 7
q-8 0 -2 -16q2 -5 9.5 -8.5t9.5 -8.5l38 -107q1 -8 2 -24q1 -7 6 -7q2 0 2 6t2 6l4 -30q-138 -2 -167 0q25 61 46 126q13 41 16 41t2 -5t4 -5q4 0 8 11t0 11q-3 0 -3.5 -3.5t-4.5 -3.5q-2 0 -2 4q0 9 6.5 19t16.5 10zM139 463q-48 -121 -96 -247q0 -10 4 -12q5 -2 5.5 4.5
t3.5 19.5q65 159 92 232q4 11 -2 11q-4 0 -7 -8zM290 429q-2 7 -7 5q-5 -1 -3 -8q4 -14 64 -195l6 -24q3 -10 7 -10q9 0 2 26q-29 86 -69 206zM125 243q-5 0 -13.5 -19.5t-8.5 -29.5q0 -3 1 -4q5 -2 14 18q8 17 17 20q6 2 47 2q60 0 85 -2q8 -1 9.5 -18t10.5 -17q8 0 5 20
q-3 18 -8.5 24t-24.5 6h-134zM217 424l29 -99q0 -1 2 -14q1 -7 5 -7t2 8q-3 7 -1 7q10 0 5 10q-6 8 -18 44t-14 51q-1 8 -6 8q-6 0 -4 -8zM195 418q4 10 -4 10q-3 0 -5 -6q-34 -86 -34 -99q0 -3 2 -4q4 -1 20 42q11 28 21 57zM226 305q-38 -1 -38 -8q0 -3 51 -3q5 0 5 4
q0 8 -18 7zM162 501q-4 0 -7 -6q-3 -7 1 -7t7 7q3 6 -1 6zM258 482l12 -33q2 -5 8 -4q5 1 3 7l-11 30q-2 6 -8 6q-6 -1 -4 -6z" />
    <glyph glyph-name="b" unicode="b" 
d="M-7 667h414v-667h-414v667zM52 500q0 -10 5 -10q-3 0 6 2q2 1 2 -6v-273q0 -6 -9 -7.5t-9 -8.5q0 -8 7 -10q12 -3 14 -5q7 -5 7 7q0 4 2 4q8 -2 17 -2h135q104 0 104 93q0 38 -15.5 53.5t-15.5 18.5t9 22t9 56q0 78 -68 78h-140q-60 0 -60 -12zM142 346q-56 -1 121 -1
q53 0 53 -62q0 -70 -66 -70h-130q-35 0 -35 21q0 95 2.5 103t54.5 9zM92 490q5 0 7 -2.5t11 -2.5q4 0 7 3t5 3q8 -1 133 -1q18 0 32 -17.5t13 -43.5q-3 -64 -31 -65q-70 1 -183 -3v78q0 12 3 15t3 5q0 6 -4 6q-1 0 -3 -2.5t-4 -2.5t-2 5q0 7 4 16t9 9zM113 469q0 -7 4 -7
q10 -1 41.5 1t47.5 2q45 0 60 -11q10 -7 10 -30q0 -34 -25 -36h-78q-61 0 -61 -6q0 -4 13 -7q10 -1 65 -1q59 0 65 3q32 19 32 52q0 20 -19 31q-6 6 -21 15q-9 2 -66 2q-68 0 -68 -8zM318 504q-3 3 -4 0q-2 -3 2 -7q22 -21 22 -66q0 -36 -9 -52t-9 -18q0 -3 14 -21t14 -49
q0 -45 -18 -77q-5 -6 -1 -8q3 -2 8 5q23 31 23 82q0 32 -11.5 48t-11.5 19q0 8 5.5 21.5t5.5 43.5q0 49 -30 79zM121 327q-8 0 -8 -6q0 -7 9 -7h154q10 0 10 7q0 6 -12 6h-153zM176 224q100 0 100 15q0 3 -3 3t-13 -3t-17 -3l-104 -1q-9 0 -10 2t-6 2q-11 0 -11 -7
q0 -8 64 -8zM40 482q-4 0 -4 -49q0 -50 4 -50q5 0 5 50q0 49 -5 49zM103 323q-4 0 -4 -43q0 -50 5 -50q6 0 6 63q0 30 -7 30zM103 455q-6 0 -5 -37q1 -38 5 -38q6 0 6 62q0 13 -6 13zM69 530q-3 0 -3 -4q0 -5 3 -5h52q4 0 4 5q0 4 -3 4h-53zM304 287q0 25 -3 28t-7 0
q-3 -3 -3 -9v-28q0 -7 -5.5 -16.5t-5.5 -11.5t3 -2q21 0 21 39zM154 533q-3 0 -3 -4t3 -4h46q4 0 4 4t-3 4h-47zM98 180q-3 0 -3 -4q0 -5 3 -5h37q4 0 4 5q0 4 -3 4h-38zM157 176q-3 0 -3 -4q0 -5 3 -5h46q4 0 4 5q0 4 -3 4h-47z" />
    <glyph glyph-name="c" unicode="c" horiz-adv-x="411" 
d="M-7 667h425v-667h-425v667zM338 404q18 0 18 26q0 52 -23 66q-28 17 -119 17q-97 0 -123 -26q-19 -19 -19 -127q0 -121 26 -145t119 -24q80 0 112 15q26 12 26 56q0 30 -15 30q-16 0 -16 -18q0 -35 -8 -44q-11 -12 -102 -12q-74 0 -96 14t-22 143q0 77 17.5 96t104.5 19
q72 0 90 -13q13 -10 13 -55q0 -18 17 -18zM170 523q0 2 -18 2q-40 0 -68.5 -19t-34.5 -70q-1 -10 -1 -63q0 -108 8 -141q4 -15 22 -35t57 -25q20 -3 81 -3q124 0 144 37q3 6 -1 6q-3 1 -6 -3q-11 -17 -34 -23q-28 -7 -102 -7h-62q-42 4 -66 21q-32 23 -32 136q0 10 4 105
q2 43 35 64q24 15 58 15q16 0 16 3zM305 432q5 0 3 13q-2 12 -8 16q-20 13 -89 13q-64 0 -82.5 -15t-18.5 -60q0 -114 7 -114q3 0 3 99q0 56 15 67q12 9 79 9q73 0 81 -7q5 -4 5 -12.5t5 -8.5zM136 243q0 -16 86 -16q26 0 50 5t24 12q0 2 -1 2q5 0 -20.5 -4.5t-64.5 -4.5
q-29 0 -51.5 4t-20.5 4q-2 0 -2 -2zM362 484q-4 -1 -2 -7q3 -10 3 -13q0 -13 5 -13q2 0 2 13q0 22 -8 20zM373 258q0 15 -5 15t-5 -15q0 -26 5 -26t5 26zM308 284q-5 0 -5 -14t6 -14q5 0 5 4q-2 15 -2 10q0 14 -4 14zM306 419q-3 0 -3 -9t3 -9q6 0 6 9t-6 9z" />
    <glyph glyph-name="d" unicode="d" 
d="M-7 667h414v-667h-414v667zM260 513h-174q-21 0 -21 -12q-2 -12 3 -12t5 8q0 4 3 3q2 -1 2 -7v-275q0 -6 -6.5 -8t-6.5 -7q0 -4 5.5 -9.5t11.5 -5.5t7 5q0 4 -7.5 4t-6.5 5q0 4 6 4q4 0 4.5 -3t7.5 -5q12 -3 45 -3q101 0 130 6q79 17 79 112v114q0 38 -23 62t-64 24z
M98 489q3 5 11 4l17 -2h135q64 0 64 -69v-115q0 -38 -19 -63t-54 -25h-114q-6 0 -12 3q-3 3 -6 0l-6 -5q-2 -2 -5 -2q-1 0 -15 16q1 4 5 6v221l-3 14q-2 9 2 17zM131 467q-3 0 59 2q51 1 62 0q49 -6 49 -105q0 -69 -15.5 -95t-49.5 -26q-8 0 -8 -4t6 -4q54 0 69 48
q8 23 8 89q0 109 -69 107l-117 -3q0 -2 -1 -5t0 -3q1 -1 7 -1zM351 464l6 -22q3 -23 3 -96q0 -81 -25 -121q-17 -26 -47 -36q-25 -8 -25 -11t11 -3q32 0 58 31q38 45 38 140q0 91 -13 118q-2 5 -5 5t-1 -5zM55 495q-4 0 -5 -4q0 -3 1 -8.5t1 -6.5q0 -5 -3 -33.5t-3 -44.5
q0 -13 2 -77t2 -85q0 -3 4 -2q3 1 3 3v227q0 11 2 12.5t2 7.5q0 11 -6 11zM177 180q-76 0 -76 -7q0 -2 76 -2q47 0 47 5q0 4 -47 4zM116 386q-6 0 -6 -54q0 -73 6 -73q4 0 4 73q0 54 -4 54zM128 242q-4 0 -4 -3q1 -4 4 -4l83 -3q2 2 4 5q-1 5 -8 5h-79zM149 531q-3 0 -3 -4
t3 -4h37q4 0 4 4t-3 4h-38zM118 455q-6 0 -6 -23q0 -18 6 -18q3 0 3 18q0 23 -3 23zM86 531q-3 0 -3 -4t3 -4h21q4 0 4 4t-3 4h-22z" />
    <glyph glyph-name="e" unicode="e" horiz-adv-x="390" 
d="M-7 667h404v-667h-404v667zM326 504q0 14 -24 16q5 0 -36 0q-99 0 -149 -2q-35 -1 -35 -14q0 -4 5.5 -8t5.5 -14l-2 -261q-18 -15 -18 -18q1 -2 3 -2q12 -2 15 -10t4 -8q3 0 4.5 6t3.5 10l184 -1q12 0 19 -6.5t9 -6.5q15 0 15 23q0 13 -18 13h-186q-10 -1 -14.5 3.5
t-2.5 9.5q3 7 4 41q1 31 6 40q1 1 1 3q0 1 -5.5 5t-5.5 11q0 14 11 14q5 0 7 -4t4 -4q3 0 7.5 2t8.5 2h86q45 0 42 0q15 1 15 15q0 12 -40 12q-6 0 -54 -3t-75 -3q-11 0 -11 12q0 2 1.5 12t1.5 32q0 9 -2.5 32.5t-2.5 27.5q0 16 10 16q6 0 11 -3.5t8 -3.5q5 0 13 4h147
q3 0 14 -1q8 -1 11 0q4 3 4 11zM297 336q0 2 -10 -1q-14 -5 -23 -5h-109q-7 0 -8 2.5t-4 2.5q-2 0 -4 -5.5t-6 -5.5q-3 0 -7 2q-1 -13 -2 -25l2 -45q0 -5 4 -6q5 -1 5 6l1 59q11 3 38 3q18 0 48.5 -1t33.5 -1q41 0 41 20zM70 510q-5 0 -5 -151t5 -151q4 0 4 22q0 -20 0 129
q0 36 1 99q0 34 -1 43t-4 9zM98 179q0 -6 14 -5q32 3 37 3q14 0 46.5 -4t57.5 -4q65 0 65 7t-184 9q-36 0 -36 -6zM146 463l144 -1q30 0 44 14q9 9 -2 9l-8.5 -5.5t-31.5 -6.5q7 5 0 5l-148 2q-9 0 -9 -10q0 -7 11 -7zM151 243q-8 0 -8 -4q0 -5 9 -5q19 0 76 2t60 2
q12 0 28 -4q8 -2 8 3q0 7 -20 7zM142 394q-6 0 -6 -5q0 -7 13 -8h51q73 -1 73 7q-1 1 -7 1l-106 -2q-9 0 -13 3.5t-5 3.5zM135 447q0 8 -3 8q-6 0 -6 -11q0 -31 4 -42q3 -1 6 3z" />
    <glyph glyph-name="f" unicode="f" horiz-adv-x="380" 
d="M-7 667h394v-667h-394v667zM116 178q2 6 2 133q0 4 -2 7t-1 10q1 14 15 14q1 0 4 -5t7 -4l13 4h108q11 -5 19 -5q19 0 19 21q0 15 -34 15h-126q-4 0 -4 -5t-9 -5q-15 0 -10 18q2 14 2 39l-1 56q0 10 2.5 16.5t7.5 3.5q13 -7 20 -6l16 2l130 1q5 0 16 -3t16 -3q13 0 13 16
q0 19 -61 19q-184 0 -188 -11q-3 -9 0 -12q7 -8 8 -11t1 -5q0 3 -5 -9t-2 -37v-165q0 -15 -4.5 -31t-3.5 -58q11 -4 18 -4t14 4zM304 337q-1 0 -8.5 -6.5t-25.5 -6.5h-110q-5 5 -11 5v-7q1 -9 -18 -13l-1 -114q0 -5 4 -6q5 -2 5 4l4 116q7 4 60 3l67 -2q12 1 24 10.5
t12 15.5q-1 1 -2 1zM156 457l140 -1q31 0 39 9q4 4 3 7q-2 3 -6 0q-13 -8 -30 -8q-5 0 -3 3l4 5l-147 2q-11 0 -11 -10q0 -7 11 -7zM76 504q-5 0 -5 -151q0 -42 -1 -93q0 -32 0.5 -39t3.5 -7q6 0 6 139q0 35 1 97q0 35 -1 44.5t-4 9.5zM141 452q0 9 -5 9t-5 -18q0 -8 1 -19
q1 -14 6 -39q3 2 5 11zM148 376q57 -4 57 7q-1 2 -6 2h-33q-22 0 -22 -5q0 -4 4 -4z" />
    <glyph glyph-name="g" unicode="g" horiz-adv-x="410" 
d="M-7 667h424v-667h-424v667zM170 523q0 6 -18 4q-51 -6 -67 -21q-37 -32 -37 -133q0 -107 9 -141q4 -13 22.5 -33.5t55.5 -26.5q21 -3 79 -3q82 0 112 10q26 8 38 35q1 3 1 7q0 3 -2 2q-2 0 -6 -7q-11 -20 -27 -26q-29 -11 -113 -11h-62q-42 4 -66 21q-31 23 -31 135
q0 6 -1 24v29q0 132 97 132q16 0 16 3zM305 432q5 0 5 15q0 27 -99 27q-64 0 -82.5 -15t-18.5 -60q0 -114 8 -114q2 0 2 99q0 56 15 67q12 9 79 9q79 0 87 -16q1 -2 0 -8q0 -4 4 -4zM136 238q0 -16 86 -16q74 0 74 14q0 3 -13 1q-29 -4 -73 -4q-29 0 -51.5 3.5t-20.5 3.5
q-2 0 -2 -2zM360 482q-3 -4 -1 -8q3 -6 3 -10q0 -14 4 -13q5 0 5 11q0 21 -9 21q-1 0 -2 -1zM374 310q0 22 -5 22t-5 -22q0 -26 5 -26t5 26zM324 393q0 -4 15 -4t15 4q0 3 -16 3q-14 0 -14 -3zM324 300v-45q0 -16 -8 -25q-11 -12 -102 -12q-74 0 -96 14t-22 143
q0 77 17.5 96t104.5 19q72 0 90 -13q13 -10 13 -55q0 -18 17 -18q18 0 18 26q0 52 -23 66q-28 17 -119 17q-97 0 -123 -26q-19 -19 -19 -127q0 -121 26 -145t119 -24q90 0 111 13q27 16 27 85q0 31 0 29q-1 15 -13 15h-95q-15 0 -15 -18q0 -17 15 -17z" />
    <glyph glyph-name="h" unicode="h" 
d="M-7 667h414v-667h-414v667zM54 502q-1 -7 7 -20q5 -9 5 -47l-2 -212q0 -7 -3 -7q-10 0 -10 32v128q0 9 -5 9q-6 1 -6 -6q0 -174 3 -190q1 -8 10 -15t16 -7q2 0 2 1q0 2 -5 7.5t-5 6.5q0 2 2 3q3 1 5 -2q5 -7 11 -7q14 0 13 22q0 44 -2 100q-1 8 2.5 13.5t3.5 6.5
q0 6 -5 3q-1 0 -4 -2q-1 3 -1 9q0 27 19 27q3 0 3 -2t-4 -8q0 -1 1 -3q132 7 188 0q12 -1 13 1t3 4.5t4 1.5q3 -1 3 -7l-3 -134q0 -11 -5.5 -14.5t-5.5 -6.5q0 -18 19 -18q24 0 21 31q-3 27 -2 145q0 126 5 156q3 17 -21 17q-14 0 -14 -24q0 -2 3 -5t3 -6v-113l-196 4
q-8 0 -11 -5.5t-4 -5.5q-2 0 -4 3t-5 3q-2 0 -3.5 -6.5t-7.5 -5.5q0 18 4 26t3 11q-1 9 1 55.5t2 48.5q0 22 -17 22q-6 0 -15 -6t-9 -12zM125 320l152 -1q13 0 13 5t-108 5h-43q-14 -1 -14 -9zM353 405q-4 0 -4 -91q-1 -91 2 -91q10 0 8 29q-1 14 -1 32t1.5 49t1.5 41
q0 31 -8 31zM294 410q0 -14 6 -13q5 1 5 10q0 4 -2 19q-2 12 -1 16q2 11 0 29q-2 20 -7 20q-2 0 -1 -81zM287 251l7 -9q1 -1 2 -1q4 0 6 8t-1 8q-2 44 1 52q1 3 1 5q0 5 -4 5q-8 0 -9 -10zM46 479q-5 0 -5 -57q0 -14 8 -14q2 0 2 3l3 62q0 6 -8 6zM105 488v-91q0 -4 5 -3
q4 0 4 3v91q0 4 -4 4q-5 0 -5 -4zM103 324v-43q0 -4 4 -4t4 4v43q0 4 -4 4t-4 -4zM362 473q0 17 -2 17q-6 0 -7 -11q-7 -49 2 -53q7 -3 7 47zM86 171l-10 1q-2 0 -1 -5q2 -5 4 -5q7 0 10 4t-3 5zM103 261v-63q0 -4 4 -4t4 4v63q0 4 -4 4t-4 -4z" />
    <glyph glyph-name="i" unicode="i" horiz-adv-x="210" 
d="M-7 667h224v-667h-224v667zM113 518q-9 2 -11 0l-12 -12q-6 -6 2 -24v-46q0 -10 1.5 -86.5t1.5 -66.5q0 -80 1 -44q-1 -28 -9 -36q-1 -1 -1 -4q0 -8 8 -17t19 -9q14 0 13 22q-5 154 0 168v135q0 8 -6 14.5t-7 5.5zM71 422q0 -8 6 -8q7 0 4 5q-2 8 0 18q2 7 -2 7
q-8 0 -8 -22zM74 191q0 -4 5 -3t3 4q-2 5 -2 13t2.5 28.5t2.5 31.5q0 12 -2 20q0 87 -1 104q-1 9 -5 9l-4 -6z" />
    <glyph glyph-name="j" unicode="j" horiz-adv-x="380" 
d="M-7 667h394v-667h-394v667zM193 193q61 0 82 13q27 17 32 71q4 32 4 89q0 -13 2 51q2 44 -1 68q-5 34 -20 34q-8 1 -13.5 -3t-4.5 -12q8 -51 10 -123q3 -135 -16.5 -148t-96.5 -13q-55 0 -66 12q-7 7 -7 48q0 23 -17 23q-21 0 -21 -35q0 -46 31 -61q26 -14 102 -14z
M196 230q49 0 63 16q10 13 10 57v46q-1 5 -6 4q-5 0 -5 -3q2 -74 -6 -91q-10 -21 -56 -21q-38 0 -63 4q-11 2 -14 -1t31 -7q30 -4 46 -4zM278 184q4 2 5 4q2 3 0 3q-2 1 -7 -1q-42 -14 -112 -14q-45 0 -74 9q-4 1 -6 -2q-1 -4 2 -5q22 -10 88 -10q80 0 104 16zM38 272
q0 -60 12 -53q3 2 3 6q0 2 -3.5 16t-3.5 26q0 29 11 41q8 7 22 8q11 0 11 3q0 5 -13 5q-39 0 -39 -52zM263 489q-3 0 -3 -25q0 -22 5 -22q3 0 3 22q0 25 -5 25zM265 400q-4 0 -4 -16t4 -16q5 0 5 16t-5 16zM328 305q0 20 -6 20q-3 0 -3 -23q0 -11 -4 -43q-3 -22 1 -23
q12 -3 12 69z" />
    <glyph glyph-name="k" unicode="k" horiz-adv-x="385" 
d="M-6 667h398v-667h-398v667zM317 481q22 4 22 15q0 24 -22 24q-6 0 -10 -4l-138 -124l-13 -2q-24 -19 -36 -19l2 122q0 26 -17 26q-20 0 -20 -16q0 -6 6 -14q-1 -23 5 -49l-5 -223q0 -9 -3.5 -19t-3.5 -16q0 -16 20 -14q24 3 16 25q-3 8 -3 60q-1 54 5 59q2 2 2 12
q-1 10 -4 10t-3 -5q1 -6 0 -6q-5 0 -5 13q0 21 10 21q18 0 18 -6q0 -4 -3 -5t-3 -6q0 -7 18.5 -10.5t24.5 -9.5l135 -136q17 -17 30 -5t-4 28l-61 57q-54 50 -94 78q-22 15 -22 19q0 3 19 16q33 24 72 58h8zM202 370q3 -3 139 98q3 2 4 7q1 4 -2 4q-1 0 -3 -1
q-142 -100 -138 -108zM225 242q3 3 -1 11q-21 22 -43 44q-26 26 -30 23q-2 -1 -2 -3q0 -8 76 -75zM298 180q2 2 2 4q0 1 -30.5 29t-33.5 25q-2 -2 -2 -3q0 -4 27 -27q35 -30 37 -28zM75 479q-4 0 -4 -8q0 -15 -2 -74q-1 -51 0 -74q1 -33 6 -33q6 0 6 30q-1 33 -1 66l2 64
q0 29 -7 29zM132 324q-4 0 -5 -11q0 -7 1 -24t1 -22q0 -78 5 -78q2 0 3 46q2 89 -5 89zM137 479q-6 0 -6 -44q0 -17 2 -17q6 0 6 17q0 44 -2 44zM191 436q-1 6 -12 -2q-25 -18 -20 -25q3 -4 18 9.5t14 17.5zM74 506q-4 0 -4 -8t4 -8q3 0 3 8t-3 8zM232 329q-3 -3 11 -15
q10 -8 20 -17q33 -34 37 -30q7 7 -30 36q-2 1 -19 18q-11 10 -15 10q-2 0 -4 -2z" />
    <glyph glyph-name="l" unicode="l" horiz-adv-x="350" 
d="M-7 667h364v-667h-364v667zM128 502q0 21 -28 21q-21 0 -11 -30q4 -12 3 -20q-1 -18 -1 -25l4 -169q0 -28 -1 -55q1 -22 16 -21q6 0 32 -1q36 -1 83.5 -1t59.5 -3.5t9 -3.5q12 0 12 22q0 15 -14 15q-43 1 -75 1q-52 0 -74 -3.5t-26 -3.5q-12 0 -2 24q1 -1 2 -1
q11 0 11 254zM77 519q-5 0 -5 -151q0 -150 5 -150q4 0 4 150q0 36 1 99q0 34 -1 43t-4 9zM142 341q0 4 -4 4q-5 -1 -5 -5v-69q0 -5 6 -5q6 1 5 6q-2 14 -2 69zM148 254q0 -7 40 -7q86 0 98 -4q19 -7 19 0q0 9 -20 10q-137 5 -137 1zM103 184q0 -7 14 -6q39 3 38 3
q17 0 43 -3t34 -3q66 0 66 6q0 4 -26 4l-132 4q-37 1 -37 -5z" />
    <glyph glyph-name="m" unicode="m" horiz-adv-x="420" 
d="M-7 667h434v-667h-434v667zM322 385v-181q0 -3 -4 -8t-4 -10q0 -19 21 -19q10 0 13 13t-3 21l1 284q0 28 -24 28q-19 0 -22 -9.5t-4 -16.5l-67 -155q-1 -32 -17 -32q-7 0 -17 9.5t-6 9.5q8 0 4 9l-82 172q-7 14 -22 14q-31 0 -31 -16q0 -3 4 -4t4 -6l1 -185l-5 -11v-84
q0 -11 -12 -11q-4 0 -5 8.5t-4 8.5q-4 0 -1 -13q4 -20 33 -20q15 0 15 16v252q0 5 2 6.5t3 6.5q0 4 -3 8t-4 10t3 6q7 0 13 -11q25 -50 25 -51q-10 3 -21 0q0 -10 10.5 -10.5t14.5 -9.5l63 -124l-5 -8q16 -8 22 -8q20 0 25 32l75 178q4 10 11 10q6 0 5 -12zM357 203
q0 -6 3 -6q6 0 6 13q0 75 1 110q0 15 1 29q1 115 1 105q0 16 -5 31q-1 4 -4 1q-3 -4 -3 -10v-273zM49 249l1 221q0 8 -5 8q-2 -1 -2 -6l-2 -222q0 -6 4 -8q4 -1 4 7zM304 370l-3 -37q0 -4 -3 -6t-3 -6q0 -108 3 -130q0 -4 2 -4q6 0 6 11l2 140q11 32 -4 32zM283 369l-20 -46
l-4 -25q-11 -31 -38 -48q4 -3 8 -3q13 0 26 20t17 45q0 7 16 47q2 3 0 8q-1 4 -3 4q-1 0 -2 -2zM188 250q-13 12 -44 79q-30 63 -33 63q-2 0 -2 -3q0 -9 49 -115q14 -31 30 -24zM198 372l-52 108q-1 3 -6 3q-1 -2 -3 -4l52 -108q4 -8 8 -7t1 8zM278 492l-39 -85
q-31 -67 -31 -68q0 -2 2 -3q5 -2 14 18l22 48q19 39 37 86q2 4 -1 6q-3 1 -4 -2zM85 171q0 4 -5 3q-8 -1 -10 -1q-1 0 -9 2q-5 2 -5 -2q0 -8 14 -8q14 -1 15 6zM44 503q-3 0 -3 -8t3 -8q5 0 5 8t-5 8z" />
    <glyph glyph-name="n" unicode="n" 
d="M-7 667h414v-667h-414v667zM76 170q12 7 13 29q2 18 -4 29v244q0 17 11 17q12 0 22.5 -9t7.5 -14q-2 -3 -10.5 -1.5t-8.5 -6.5q0 -11 10 -11h1q7 0 9 -3l140 -227q4 -7 1 -9q-4 -2 -4 -4q0 -4 8.5 -9t16.5 -5q32 0 46 13q5 5 5 7t-4 4t-4 5l5 232q1 7 2 15l-7 3
q-1 1 -1 2q0 3 4.5 13t4.5 12q0 21 -15 21q-8 0 -15 -7.5t-7 -15.5q0 -6 5.5 -7.5t5.5 -11.5v-174q0 -57 -1 -63q-1 -15 -10 -15q-18 0 -21 8.5t-5 17.5q-92 138 -153 258q-3 6 -10 6l-38 1q-22 1 -22 -21q0 -4 8 -8q4 -3 4 -26q-1 -57 -2 -113l-2 -139q0 -15 -6 -15
q-8 0 -8 8q0 2 1 41v47q0 9 -4 11q-5 1 -5 -5v-101q0 -21 16 -22zM257 187q3 1 3 5q0 7 -24 38v11q-24 32 -76 123q-40 70 -46 66q-3 -2 12.5 -25t13 -25t55.5 -98t62 -95zM357 273l1 205q-2 3 -4 5q-4 -1 -4 -6l-2 -186l-3 -8v-61q0 -4 4 -5q5 -2 5 4zM46 501q-5 0 -5 -18
q0 5 0 -79q0 -26 -1 -60v-30q1 -9 4 -9q5 0 5 99q0 -14 2 76q0 21 -5 21zM102 439q-5 0 -7 -29q-1 -21 1 -61q1 -49 1 -51q0 -96 4 -97q5 -1 6 2v23q-2 29 -1 62q1 43 0 71q-1 19 -2 30l-1 11q0 39 -1 39zM297 267q4 0 2 35q-2 74 -2 147q0 50 -3 50q-6 0 -6 -50
q0 25 -1 -49q-1 -54 1 -87q2 -46 9 -46zM167 465q-3 0 -3 -4q0 -7 12 -29q9 -16 37 -62q12 -19 23 -38l15 -15q4 6 -9 27zM348 202l-11 -13.5t-34 -13.5q-6 0 -19 3q-7 1 -7 -2q0 -9 25 -9q22 0 37 13q11 9 11 19q0 3 -2 3zM277 279l-10 21q-2 4 -6 3q-5 -1 -3 -4l10 -21
q2 -4 6 -3t3 4zM291 254q0 -19 10 -19q3 0 3 12t-4 13q-9 3 -9 -6z" />
    <glyph glyph-name="o" unicode="o" 
d="M-7 667h414v-667h-414v667zM348 346q0 103 -23 135q-27 37 -116 37q-84 0 -105 -17q-34 -28 -34 -135q0 -104 15 -128q24 -40 127 -40q80 0 103 20q33 28 33 128zM325 357q0 -92 -11 -110q-18 -30 -104 -30q-70 0 -91 19q-27 24 -27 106q0 110 15.5 129.5t104.5 19.5
q82 0 102 -33q11 -19 11 -101zM212 472h-54q-57 0 -56 -108q1 -57 6 -62q4 -1 6 4q-5 17 -3 57t7.5 65.5t39.5 30.5q5 1 56 1q40 0 55 -7q12 -6 12 9q0 10 -69 10zM294 439q-5 3 -5 0q-1 -3 2.5 -8t3.5 -24l-1 -122q0 -48 -68 -48q-4 0 -5 -2t3 -3q13 -3 31 1q37 8 46 29
q4 8 4 32v121q0 17 -11 24zM122 189q-8 3 -9 0q-1 -4 5 -6q39 -16 95 -16q121 0 137 62q1 5 -1 6q-3 1 -5 -3q-25 -54 -132 -54q-56 0 -90 11zM44 279q1 -3 5 -3q3 1 3 5q-5 45 -4 81q3 104 27 123q7 5 2 7q-4 3 -9 -2q-30 -37 -30 -127q0 -57 6 -84zM367 399q0 8 -3 8
q-4 -1 -4 -8q0 -79 -3 -114q0 -5 3 -6q3 0 4 4q3 14 3 116zM183 238q-10 0 -10 -3q0 -4 10 -4q11 0 11 4q0 3 -11 3zM60 241q-2 0 -2 -3q0 -6 6.5 -14.5t9.5 -4.5l-6.5 11t-7.5 11z" />
    <glyph glyph-name="p" unicode="p" horiz-adv-x="380" 
d="M-7 667h394v-667h-394v667zM247 513h-123q-51 0 -51 -9q0 -8 2 -10.5t2 -6.5q0 -37 2 -84.5t2 -52.5q0 -101 -10 -164q-3 -21 24 -21q9 0 9 10l-1 103q0 43 17 43q3 0 9 -1t10 -1q111 0 133 3q47 6 47 105q0 36 -17 59q-19 27 -55 27zM134 488l116 -1q45 0 45 -57
q0 -45 -3 -55q-7 -26 -37 -30q-33 -4 -138 -2q-11 -10 -18 -1l1 71q1 64 3.5 69.5t30.5 5.5zM263 293q77 8 77 126q0 42 -11 57q-1 2 -5 3q-3 1 -3 -2q0 -2 2 -5q8 -12 8 -40q0 -49 -5 -68q-9 -33 -41 -50q-24 -13 -159 -7q-4 0 -6 -3q-1 -3 0 -6q2 -4 6 -4q73 -8 137 -1z
M59 496q-6 0 -6 -55q0 -47 -3 -198q-1 -40 7 -40q3 0 4 16q1 13 1 69q-1 101 -1 158q0 50 -2 50zM268 368q12 21 12 50q0 34 -13 44q-20 16 -128 10q-15 -1 -15 -3q0 -8 22 -11q44 1 117 -2q8 -11 7 -40q0 -30 -8 -46q-2 -4 1 -5t5 3zM174 365q-48 0 -48 -5q0 -3 48 -3t48 3
q0 5 -48 5zM113 456l-1 -56l4 -4q4 0 4 7q7 53 -7 53zM120 288q-9 0 -7 -70q1 -7 5 -7q3 1 4 7q1 27 2 53q0 17 -4 17z" />
    <glyph glyph-name="q" unicode="q" horiz-adv-x="398" 
d="M-5 667h410v-667h-410v667zM200 510q-87 0 -111 -25q-28 -30 -28 -142q0 -96 18 -121q26 -37 125 -37q73 0 107 29l20 -2l28 -15q11 -6 11 10q0 5 -4 7q-8 3 -36 23q4 14 9 88q2 119 -20 151q-25 34 -119 34zM305 248q-3 -24 -30 -32q-21 -6 -75 -6q-82 0 -99.5 23
t-17.5 125q0 86 20.5 107t99.5 21q78 0 95.5 -21.5t17.5 -112.5q0 -67 -8 -99q-32 23 -69 57q-20 18 -30 18q-12 0 -12 -7t10 -11q7 -3 41 -38q30 -29 38 -26q1 1 -2.5 6.5t-1.5 5.5q1 0 4 -1zM270 462q-31 6 -67 5l-55 -2q-11 0 -27.5 -13t-19.5 -25q-5 -22 -6 -66t2 -59
t10 -42q3 -4 5 -4q3 1 1 8q-17 57 -2 158q2 15 9 19q17 10 83 10q51 0 57 -5q6 -3 9 3.5t1 12.5zM366 356q0 22 -6 57t-12 34q-2 0 1 -25q4 -36 4 -73q0 -59 -3 -91q-1 -7 2 -9q2 -1 4 4q10 34 10 103zM291 301q0 -7 6 -7q6 -1 6 7q0 144 -15 144q-11 0 -11 -6q0 -3 6 -16.5
t6 -22.5zM256 246q-17 12 -44 39q-21 22 -27 22q-2 0 -3 -1q-6 -5 41 -42q7 -6 27 -26q3 -3 7 1q3 4 -1 7zM175 231q-14 0 -34 3q-10 1 -10 -3q0 -8 43 -8q42 0 42 8q0 4 -10 3q-19 -3 -31 -3zM222 347q-1 -1 -1 -2q0 -6 19 -20q27 -21 31 -24.5t7 -1.5q4 2 0 6
q-12 15 -32.5 30t-23.5 12zM291 176q21 15 44 10q3 0 3 6q-9 5 -19 5q-16 0 -33 -15q-6 -5 -4 -8q3 -2 9 2zM231 172q-17 0 -17 -4t17 -4t17 5q0 3 -17 3zM40 273q1 -3 5 -3q4 1 4 5q-5 45 -4 81q3 107 24 123q7 5 3 7q-4 3 -9 -2q-30 -37 -30 -127q0 -53 7 -84z" />
    <glyph glyph-name="r" unicode="r" horiz-adv-x="401" 
d="M-7 667h415v-667h-415v667zM257 510h-140q-50 0 -51 -6q-2 -13 5 -13q1 0 3.5 2t3.5 1t1 -7q-1 -108 -9 -286l-21 -1q-4 0 -4 -4q0 -5 4 -5l16 -1q0 -19 12 -19q11 0 22 11q-4 58 -2 103q2 42 8 42l9 -1.5t22 -1.5h133q39 0 39 -40q0 -93 -9 -100q-2 -1 -2 -3
q0 -5 7.5 -9t12.5 -2q14 6 16 38v73q0 17 -9 32t-20 18q30 37 30 88q0 91 -77 91zM97 487q87 -2 163 -1q17 0 31 -17t14 -39q0 -84 -27 -82q-107 8 -161 1q-5 -1 -5.5 -4.5t-1.5 -3.5q-8 -1 -15 3q0 65 2 143zM279 370q15 17 15 51q0 38 -18 48q-23 13 -144 6q-15 -1 -15 -5
q0 -6 15 -8q10 -1 31 0q25 1 28 1h24q16 1 21 1q45 0 45 -47q0 -29 -5 -39q-3 -6 -2 -9t5 1zM109 444q-3 -74 1 -77t62 -3q59 0 60 5q0 4 -48 4q-55 1 -67 4q4 32 4 58q0 22 -8 22q-4 0 -4 -13zM122 310l6 -13l120 -7q28 -2 28 13q0 4 -8 4zM57 493q3 0 3 -214q0 -66 -6 -66
q-5 0 -5 89q0 191 8 191zM112 296q-4 -13 -4 -61q0 -47 4 -49q8 0 8 74q0 33 -8 36zM294 289q0 8 -3 8q-9 0 -8 -17q1 -20 -1 -64q-1 -25 3 -25q7 0 9 37v61zM340 336q16 25 16 68q0 24 -4 43q-1 5 -3 8t-3 2t0 -8q8 -70 -12 -109q-3 -5 1 -6q3 -2 5 2zM349 297q-6 0 -6 -35
t6 -35q2 0 2 35t-2 35z" />
    <glyph glyph-name="s" unicode="s" 
d="M-7 667h414v-667h-414v667zM208 513q-87 0 -111.5 -18.5t-24.5 -80.5q0 -41 25 -56.5t95 -15.5q65 0 79 -4q41 -11 41 -56q0 -37 -20 -51q-23 -16 -88 -16q-82 0 -96 16q-5 5 -14 28q-7 16 -17 16q-22 0 -22 -18q0 -14 13 -3q7 -4 13 -22.5t25 -26.5q28 -13 94 -13
q67 0 96 14q42 20 42 75q0 58 -40 75q-22 10 -82 10q-72 0 -81 2q-39 10 -39 59q0 43 35 55q16 5 72 5q63 0 87 -12q21 -11 21 -38q0 -17 9 -17q18 0 18 25q0 68 -130 68zM74 492q-7 5 -18 -16q-12 -24 -12 -50q0 -59 22 -81q32 -34 132 -34q58 0 76 -7q14 -6 15 -23
q1 -16 -8.5 -23t-9.5 -8q0 -2 5 -2q20 0 20 35q0 37 -18 37q-36 0 -91 4q-74 6 -85 14q-28 20 -37 38t-9 52q0 36 11 53zM353 307q-1 4 -3 3t-2 -6q2 -64 -18 -90q-31 -41 -130 -41q-81 0 -116 22q-4 3 -5 1q-2 -2 2 -5q25 -20 65 -26q21 -3 77 -3q51 0 85 21q48 29 48 95
q0 20 -3 29zM182 237q-20 0 -43 7q-26 8 -31 18q-2 3 -4 3q-2 -1 0 -5q8 -21 39 -26.5t31 -8t42 -2.5q39 0 39 8q0 6 -18 7q36 -1 -55 -1zM153 383q45 -3 89 -6q53 -3 81 -22q3 -2 5 -1q3 2 0 4q-43 37 -174 31q-8 0 -8 -3q1 -2 7 -3zM104 426q0 -30 13 -30q5 0 5 6
q0 3 -4 6.5t-4 17.5q0 19 33 24q15 3 60 3t63 -11q12 -6 14 -17.5t7 -11.5q9 2 1 27q-10 31 -89 31q-70 0 -65 -1q-12 2 -12 -4q0 -2 4 -4t4 -3q0 2 -15 -6t-15 -27zM51 248q-1 3 -4 2t-3 -7q0 -28 7 -28q4 0 2 18z" />
    <glyph glyph-name="t" unicode="t" horiz-adv-x="355" 
d="M-7 667h369v-667h-369v667zM205 480l96 4q16 1 16 8q0 20 -42 20l-209 2q-29 0 -29 -22q0 -8 20 -9h92q3 5 17 6t14 -4q0 -6 -2 -6q-1 0 -5.5 2t-8.5 2q-7 -1 -8 -6q0 -5 8 -5q4 -3 2 -12q-1 -6 -3 -12l-4 -113v-117q0 -8 -5 -17.5t-5 -11.5t3 -4t9 -11q4 -5 13 -5
q18 0 18 15l-3 242q0 6 2.5 10.5t2.5 13.5q0 25 -7 29q-2 2 2 5t9 3q6 0 7 -7zM140 182q6 0 6 35l2 190q0 46 -10 46q-5 0 -5 -9q0 -6 2 -8.5t2 -9.5q0 2 -2 -74q-2 -72 -1 -112q1 -58 6 -58zM203 396q1 -8 5 -6q3 1 4 6q1 17 2 35.5t8 19.5q25 1 50 3q29 1 40 8q4 3 5 4
l-2 2q-2 0 -5.5 -1.5t-11.5 -4.5q-4 -1 -4 2t1 7q0 3 -4 1q-12 -5 -33 -5h-33q-3 -1 -3 -2t-1 -1q-10 0 -11 -2q-8 -7 -8 -38q0 -12 1 -28zM119 460q6 0 12 5q1 3 1 5q-28 1 -80 -2q-9 -1 -10 -4q0 -3 5 -4h72zM206 340q-4 0 -4 -33q0 -32 4 -32t4 32q0 33 -4 33z" />
    <glyph glyph-name="u" unicode="u" horiz-adv-x="415" 
d="M-7 667h429v-667h-429v667zM211 219q-54 0 -77 8q-34 11 -34 43v189h4v38q0 17 -17 17q-23 0 -23 -20q0 -5 4.5 -8.5t4.5 -9.5v-183q0 -58 28 -77t115 -19q69 0 88 8q40 15 40 76v111l5 4v86q5 -2 5 6q0 28 -21 28q-7 0 -15.5 -8t-8.5 -14q0 -3 7.5 -6.5t7.5 -16.5
q0 -10 -2.5 -68t-2.5 -66q0 -82 -10 -95q-16 -23 -98 -23zM298 478l-3 -186q0 -16 -4 -29l-4 -13q0 -3 3 -4q16 -8 16 48v183q0 8 -4 8t-4 -7zM46 274q-1 -48 32 -76q4 -4 7 0q2 3 -4 9q-25 22 -25 63v167q0 8 -3 6q-4 -2 -4 -7zM115 457q-2 0 -2 -41q0 -7 -1 -48.5
t-1 -52.5t-1 -35q0 -13 1 -17t4 -4q6 0 6 52q0 8 1 53v54q0 39 -7 39zM364 483q-4 0 -4 -73q0 -22 -2 -82q0 -17 4 -17q6 0 6 77q0 95 -4 95zM251 174q0 -6 14 -6q50 0 82 36q20 22 20 67q0 24 -7 24q-2 0 -3 -29q-1 -33 -11 -47q-17 -23 -41 -33q-15 -5 -38 -7
q-16 -2 -16 -5zM94 190q-7 -10 31 -19q33 -8 33 3q0 7 -14 7q-18 0 -32.5 5.5t-13.5 5.5q-2 0 -4 -2zM196 174q-27 1 -27 -3q0 -6 26 -8q29 -2 29 6q0 5 -8 5h-20zM54 492q-3 0 -4 -9q-1 -8 0 -17q2 -9 6 -9q12 0 3 10q-4 4 -3 14.5t-2 10.5zM118 493q-6 0 -6 -16q0 -8 3 -8
q6 0 6 8q0 16 -3 16z" />
    <glyph glyph-name="v" unicode="v" horiz-adv-x="375" 
d="M-7 667h389v-667h-389v667zM85 498q-6 16 -15 16t-15.5 -7t-6.5 -13q0 -10 5 -10q9 0 13 -12q81 -225 91 -260q2 -6 -1.5 -7t-3.5 -3q0 -16 31 -18q2 0 2 2q0 1 -2 6t-2 7q0 5 7 5t6.5 -10t1.5 -10q4 0 15 9t11 14q0 15 4 26l84 238q3 9 9 13t6 8q0 16 -20 18
q-16 2 -21 -12q3 -3 0 -23l-72 -206q-2 -7 -10 -10.5t-9 -7.5q-6 -17 -5 -18q4 -5 21 5q-2 -11 -9 -12.5t-7 -2.5v-7q0 -4 -5 -4q-6 0 -5 4q2 6 1 7q-2 2 -8 3t-6 6q0 3 3.5 7.5t3.5 6.5q0 5 -3.5 8.5t-3.5 4.5zM42 503q-7 0 -7 -13q0 -10 8 -33l84 -243q10 -28 23 -38.5
t39 -10.5q41 0 49 36q1 6 -2 8q-2 1 -4 -2q-10 -20 -11 -21q-11 -14 -33 -14q-33 0 -46 26q-10 33 -21 66l-77 216q-3 7 -1 17q2 6 -1 6zM196 275q2 0 8 18l57 165q0 4 -1 9q-3 0 -6 -7l-62 -161q-3 -7 -1 -15q1 -9 5 -9zM334 479q-5 2 -23 -48q-44 -125 -76 -208
q-2 -6 2 -8q4 -1 6 4q93 241 93 256q0 3 -2 4z" />
    <glyph glyph-name="w" unicode="w" 
d="M-7 667h414v-667h-414v667zM201 412q-12 0 -16 -7q0 -1 -6 -19l-50 -156q-1 5 -7 26q-6 18 -6 28q0 9 4 15q-19 70 -40 198q-4 22 -20 22q-9 0 -15.5 -7.5t-6.5 -15.5q0 -4 8.5 -8.5t11.5 -18.5l50 -252v-22q2 -18 15 -18t35 63q23 71 45 141l50 -156q4 -12 3 -19
q-3 -10 -3 -12q0 -19 31 -19q14 0 14 22q0 12 -6 15q8 19 28 124q19 102 26 156q2 20 3 15q-1 12 -14 12q-19 0 -14 -27q-14 -92 -32 -156q-13 -51 -13 -49q0 -2 1 -3q5 -2 7 4.5t4 6.5q7 0 5 -6q-14 -46 -18 -46q-5 0 -29 84.5t-45 84.5zM367 481q1 8 -5 8q-7 0 -8 -7
q-18 -121 -33 -204q-18 -96 -18 -91q0 -5 3 -5q10 0 36 143q23 129 25 156zM40 477q-2 0 -3 -1q-1 -2 2 -27.5t24 -124.5q22 -106 27 -106q2 0 2 6q0 10 -32 179q-14 74 -20 74zM296 496q-5 0 -8 -16q-6 -35 -11 -70q-13 -87 -13 -85q0 -7 3 -7q8 0 15 41l6 46q15 91 8 91z
M96 490q-5 -1 7 -58q11 -52 13 -61q5 -15 11 -12q2 1 2 3t-6 20q-7 24 -12 52q-10 57 -15 56zM240 182q4 0 4 5q0 6 -16 58q-7 23 -13 46q-4 12 -9 11q-2 0 -2 -5q0 -13 14 -57l12 -42q4 -16 10 -16zM150 179q14 0 29 48q14 43 14 66q0 6 -2 6q-3 0 -20 -58q-6 -22 -16 -42
q-8 -16 -8 -18t3 -2zM137 317q5 -2 21 40.5t11 45.5q-8 4 -20 -33q-17 -51 -12 -53z" />
    <glyph glyph-name="x" unicode="x" horiz-adv-x="380" 
d="M-7 667h394v-667h-394v667zM286 504l-79 -107q-9 -13 3 -15q-7 -4 -22 -17q-2 12 -6 13t-7 2q-2 2 0 4q3 2 2 6q-1 6 -39 58q-33 45 -42 56t-16 11q-9 0 -20.5 -11t-11.5 -23q0 -8 3 -14.5t7 -3.5q2 1 -1.5 8t-2.5 11q2 3 11 3l19 -1l15 -24v-10q17 -13 60 -81
q3 -4 12 -2.5t9 -1.5q1 -7 -1.5 -17.5t-7.5 -8.5q-1 1 -4 1t-104 -122l-10 -3q-3 -1 -4 -5q-1 -5 4.5 -7.5t5 -7t1.5 -5.5q1 0 5 3.5t7 2.5q3 0 4 -5.5t2 -5.5q8 0 61 82q50 78 51 72l18 -24v-16l45 -47v-8l27 -36q3 -4 5 -4q3 0 7.5 6t5.5 6q7 0 7 -7t-11.5 -8.5
t-11.5 -6.5q0 -11 17 -11q15 0 15 18q0 7 -19 31l-92 115q0 5 7 7t5 12l92 115q2 2 10 6q3 2 3 8q0 15 -15 16q-13 1 -19 -7zM133 364l-69 92q-2 3 -6 2q-3 -1 0 -5l71 -96q3 -4 3 -7t-2 -7t-2 -5q0 -2 2 -4t6 2t4 11q0 8 -7 17zM64 474q-5 -3 32 -50l26 -36q16 -21 20 -18
q2 1 -40 58q-35 48 -38 46zM307 461q-3 2 -13 -11q-21 -29 -23 -31v-10l-33 -37q-7 -8 -6 -23q1 -16 10 -16q3 0 3 3q0 2 -2.5 8t-2.5 10q0 3 2 5l80 100q12 15 7 18q-11 -16 -26 -30q-1 1 2 5.5t3 6.5q0 1 -1 2zM173 281q4 6 1 9q-4 3 -7 -2q-20 -32 -50 -70
q-17 -22 -14 -25q6 -5 70 88zM189 291q-2 0 -2 -1q0 -4 29 -45q34 -49 51 -49q3 0 -6 10q-19 19 -33 39q-34 46 -39 46zM72 244q3 3 0 5q-3 3 -7 -1q-26 -26 -22 -29q5 -5 29 25zM256 190q-1 -1 -1 -3t11 -14q4 -5 8 -2t0 7q-15 15 -18 12zM128 328q-4 4 -12 -6
q-11 -11 -6 -15q3 -3 11.5 8t6.5 13z" />
    <glyph glyph-name="y" unicode="y" horiz-adv-x="375" 
d="M-7 667h389v-667h-389v667zM76 476l92 -186h20q3 0 3 -4t-4 -4l-17 -2l1 -69q0 -8 -3.5 -9t-3.5 -6q0 -25 17 -25q18 0 18 43q0 10 -1 32q-1 19 -1 27q0 11 48 99q53 99 56 106q1 3 8 10t7 16q-1 13 -20 13q-16 0 -18 -13q-5 -23 -7 -27q-19 -38 -38 -75q-28 -53 -40 -56
q-3 -1 -4 -6t2 -5h11q2 -1 0 -7q-1 -4 -5 -2.5t-6 -0.5q-1 -1 1 -13q2 -10 -5 -10q-2 0 -1 7t-1 10l-88 176q-4 9 -9 18q-3 5 -13 5q-8 0 -16 -7.5t-7 -14.5q0 -5 11 -10t13 -10zM54 473q-6 -1 -1 -11l94 -191v-86q0 -4 4 -4t4 4l-2 21q6 15 4 61q0 5 -4 8t-4 11.5t-44.5 98
t-50.5 88.5zM214 184q5 0 5 40q1 45 3 49q4 10 58 111q49 92 49 106q0 3 -2 3q-4 0 -6 -11t-11 -15q-95 -172 -96 -193q-3 -90 0 -90zM193 379q4 -2 36 53q27 46 27 50v0q0 2 -1 2q-3 2 -33 -50.5l-30 -52.5q0 -1 1 -2zM109 499q-1 -1 -1 -3q0 3 17 -38q21 -49 26 -46
q2 1 2 3q0 3 -20 46q-8 16 -15 32q-4 8 -9 6z" />
    <glyph glyph-name="z" unicode="z" horiz-adv-x="380" 
d="M-7 667h394v-667h-394v667zM91 515q-39 0 -39 -19q0 -18 21 -15l34 5l120 1q4 0 17 -5.5t17 -5.5q2 0 3 1q1 2 -5.5 7t-6.5 6q0 2 4 2l35 1q-22 -40 -41 -40q-61 -80 -152 -189q-42 -49 -42 -66q0 -13 17 -13l216 1q6 -2 11 -2q20 0 20 17q0 14 -14 14q-58 0 -117 -2
t-65 -2q-28 0 -28 9q0 4 23 31q49 56 84 97l2 7q53 65 83 94q16 15 33 31q4 5 4 12q0 8 -5.5 15.5t-12.5 7.5h-216zM144 251q4 -3 21 17q54 65 108 129q2 2 2 4q0 3 -4 4q-3 1 -5 -1q-123 -144 -123 -150q0 -2 1 -3zM71 467q0 -6 7 -7q5 0 36 1q46 1 90 1q5 0 14.5 2.5
t14.5 4.5q1 2 2 3q-12 0 -63 1q-47 1 -68 0q-33 -1 -33 -6zM76 168q0 -3 122 -3q111 0 96 0q17 0 17 4q0 6 -16 6q-9 1 -90 0q-56 0 -111 -1q-18 0 -18 -6zM140 230q0 -5 12 -5q-21 0 68 0q21 0 58 -1q21 0 26.5 1t5.5 4q0 6 -92 6q-78 0 -78 -5zM83 274q3 -3 24 24
q18 24 14 26q-3 1 -21 -21t-18 -26q0 -2 1 -3zM157 367q6 -5 38 37q22 30 22 34q0 2 -1 3q-4 3 -31 -32q-31 -40 -28 -42zM333 503q-2 -2 0 -10q3 -12 -5.5 -21t-7.5 -10q4 -4 13.5 5.5t9.5 20.5q0 6 -4.5 11.5t-5.5 3.5zM311 441q4 5 1 7q-3 3 -8 -2q-18 -18 -16 -21
q1 -1 3 -1q6 0 20 17z" />
    <glyph glyph-name="braceleft" unicode="{" 
d="M33 0v667h334v-667h-334zM40 7h320v653h-320v-653z" />
    <glyph glyph-name="bar" unicode="|" horiz-adv-x="185" 
d="M-7 667h200v-667h-200v667z" />
    <glyph glyph-name="braceright" unicode="}" 
d="M33 0v667h334v-667h-334zM40 7h320v653h-320v-653z" />
    <glyph glyph-name="asciitilde" unicode="~" 
d="M33 0v667h334v-667h-334zM40 7h320v653h-320v-653z" />
    <glyph glyph-name="Adieresis" unicode="&#xc4;" 
d="M407 667v-667h-414v667h414zM116 570q5 -9 21 -9q9 0 16.5 5t5.5 7t-6 -2q-7 -4 -16 -4q-12 0 -20 8.5t-8 18.5q0 11 5 19q4 5 3 6q-3 3 -9 -6t-6 -22q0 -23 14 -21zM140 574q22 0 22 30q0 22 -23 22q-7 0 -15 -9t-8 -20q0 -23 24 -23zM165 580q3 -2 6.5 6t3.5 16
q0 14 -9 23t-16 9q-2 0 -2 -1l10.5 -7.5t10.5 -24.5q0 -9 -3 -14.5t-1 -6.5zM244 570q5 -9 21 -9q9 0 16.5 5t5.5 7t-6 -2q-7 -4 -16 -4q-12 0 -20 8.5t-8 18.5q0 11 5 19q4 5 3 6q-3 3 -9 -6t-6 -22q0 -23 14 -21zM268 574q22 0 22 30q0 22 -23 22q-7 0 -15 -9t-8 -20
q0 -23 24 -23zM293 580q3 -2 6.5 6t3.5 16q0 14 -9 23t-16 9q-2 0 -2 -1l10.5 -7.5t10.5 -24.5q0 -9 -3 -14.5t-1 -6.5zM246 488q-7 21 -39 21q-31 0 -39 -21q-32 -91 -108 -280q-2 -6 -2 -11q0 -19 15 -19q13 0 17 14l15 52q3 12 31 12h133q22 0 26 -13l14 -46
q6 -19 18 -19q22 0 12 30zM207 488q12 0 18.5 -13t4.5 -15q-1 -2 -3 -2q-1 0 -5.5 7t-7.5 7q-8 0 -2 -16q2 -5 9.5 -8.5t9.5 -8.5l38 -107q1 -8 2 -24q1 -7 6 -7q2 0 2 6t2 6l4 -30q-138 -2 -167 0q25 61 46 126q13 41 16 41t2 -5t4 -5q4 0 8 11t0 11q-3 0 -3.5 -3.5
t-4.5 -3.5q-2 0 -2 4q0 9 6.5 19t16.5 10zM139 463q-48 -121 -96 -247q0 -10 4 -12q5 -2 5.5 4.5t3.5 19.5q65 159 92 232q4 11 -2 11q-4 0 -7 -8zM290 429q-2 7 -7 5q-5 -1 -3 -8q4 -14 64 -195l6 -24q3 -10 7 -10q9 0 2 26q-29 86 -69 206zM125 243q-5 0 -13.5 -19.5
t-8.5 -29.5q0 -3 1 -4q5 -2 14 18q8 17 17 20q6 2 47 2q60 0 85 -2q8 -1 9.5 -18t10.5 -17q8 0 5 20q-3 18 -8.5 24t-24.5 6h-134zM217 424l29 -99q0 -1 2 -14q1 -7 5 -7t2 8q-3 7 -1 7q10 0 5 10q-6 8 -18 44t-14 51q-1 8 -6 8q-6 0 -4 -8zM195 418q4 10 -4 10q-3 0 -5 -6
q-34 -86 -34 -99q0 -3 2 -4q4 -1 20 42q11 28 21 57zM226 305q-38 -1 -38 -8q0 -3 51 -3q5 0 5 4q0 8 -18 7zM162 501q-4 0 -7 -6q-3 -7 1 -7t7 7q3 6 -1 6zM258 482l12 -33q2 -5 8 -4q5 1 3 7l-11 30q-2 6 -8 6q-6 -1 -4 -6z" />
    <glyph glyph-name="Aring" unicode="&#xc5;" 
d="M407 667v-667h-414v667h414zM223 649h-31q-19 0 -23.5 -10.5t-4.5 -34.5q0 -30 7 -37t35 -7q25 0 32 3q12 7 12 30v23q0 33 -27 33zM205 636q16 0 19 -2q9 -5 8 -25q-1 -25 -4.5 -30.5t-20.5 -5.5q-16 0 -20 5t-4 25q0 24 2.5 28.5t19.5 4.5zM157 636q-5 3 -7.5 -17.5
t-0.5 -34.5q5 -38 38 -38q45 0 45 4q0 3 -46 3q-30 0 -30 32v30q0 5 2 14q1 6 -1 7zM189 596q0 -4 3 -4q3 1 3 4l2 20q1 4 6 4q13 0 15 -8q0 -17 -2 -21.5t-11.5 -3.5t-10.5 -1q-3 -5 14 -5q16 -1 16 7l1 24q1 16 -13 16q-23 0 -23 -16v-16zM246 488q-7 21 -39 21
q-31 0 -39 -21q-32 -91 -108 -280q-2 -6 -2 -11q0 -19 15 -19q13 0 17 14l15 52q3 12 31 12h133q22 0 26 -13l14 -46q6 -19 18 -19q22 0 12 30zM207 488q12 0 18.5 -13t4.5 -15q-1 -2 -3 -2q-1 0 -5.5 7t-7.5 7q-8 0 -2 -16q2 -5 9.5 -8.5t9.5 -8.5l38 -107q1 -8 2 -24
q1 -7 6 -7q2 0 2 6t2 6l4 -30q-138 -2 -167 0q25 61 46 126q13 41 16 41t2 -5t4 -5q4 0 8 11t0 11q-3 0 -3.5 -3.5t-4.5 -3.5q-2 0 -2 4q0 9 6.5 19t16.5 10zM139 463q-48 -121 -96 -247q0 -10 4 -12q5 -2 5.5 4.5t3.5 19.5q65 159 92 232q4 11 -2 11q-4 0 -7 -8zM290 429
q-2 7 -7 5q-5 -1 -3 -8q4 -14 64 -195l6 -24q3 -10 7 -10q9 0 2 26q-29 86 -69 206zM125 243q-5 0 -13.5 -19.5t-8.5 -29.5q0 -3 1 -4q5 -2 14 18q8 17 17 20q6 2 47 2q60 0 85 -2q8 -1 9.5 -18t10.5 -17q8 0 5 20q-3 18 -8.5 24t-24.5 6h-134zM217 424l29 -99q0 -1 2 -14
q1 -7 5 -7t2 8q-3 7 -1 7q10 0 5 10q-6 8 -18 44t-14 51q-1 8 -6 8q-6 0 -4 -8zM195 418q4 10 -4 10q-3 0 -5 -6q-34 -86 -34 -99q0 -3 2 -4q4 -1 20 42q11 28 21 57zM226 305q-38 -1 -38 -8q0 -3 51 -3q5 0 5 4q0 8 -18 7zM162 501q-4 0 -7 -6q-3 -7 1 -7t7 7q3 6 -1 6z
M258 482l12 -33q2 -5 8 -4q5 1 3 7l-11 30q-2 6 -8 6q-6 -1 -4 -6z" />
    <glyph glyph-name="Ccedilla" unicode="&#xc7;" horiz-adv-x="410" 
d="M-7 667h424v-667h-424v667zM214 513q-97 0 -123 -26q-19 -19 -19 -127q0 -121 27 -146q20 -19 99 -23l-4 -41q-1 -6 21.5 -8.5t25.5 -4.5q7 -4 7 -22q0 -9 -4 -12q-7 -5 -34 -5q-17 0 -17 13t-7 13q-6 0 -6 -6q0 -19 3 -23q7 -10 33 -10q45 0 46 30q0 19 -7 29
q-4 5 -21.5 7.5t-16.5 7.5l5 32q76 0 107 15q26 13 26 56q0 30 -15 30q-16 0 -16 -18q0 -35 -8 -44q-11 -12 -102 -12q-74 0 -96 14t-22 143q0 77 17.5 96t104.5 19q72 0 90 -13q13 -10 13 -55q0 -18 17 -18q18 0 18 26q0 52 -23 66q-28 17 -119 17zM182 170q7 0 6 5t-7 5
q-62 -2 -93 20.5t-31 136.5q0 10 4 104q2 43 35 64q24 15 58 15q16 0 16 3t-17 3q-41 0 -69.5 -19t-34.5 -70q-1 -11 -1 -64q0 -104 9 -138q4 -17 22 -37q25 -28 103 -28zM258 172q60 0 82 10q10 4 19 20q3 6 0 8q-3 3 -6 -1q-12 -18 -23 -22q-18 -8 -73 -7q-3 -2 -5 -4
q0 -4 6 -4zM305 432q5 0 3 13q-2 12 -8 16q-20 13 -89 13q-64 0 -82.5 -15t-18.5 -60q0 -114 5 -114q3 0 3 99q0 56 16 67q13 9 80 9q71 0 81 -8q5 -4 5 -12t5 -8zM136 243q0 -15 86 -15q74 0 74 16q0 2 -1 2q5 0 -20.5 -4t-64.5 -4q-29 0 -51.5 3.5t-20.5 3.5q-2 0 -2 -2z
M362 484q-4 -1 -2 -7q3 -10 3 -13q0 -13 5 -13q3 0 3 13q0 22 -9 20zM374 258q0 15 -5 15q-4 0 -4 -15q0 -26 4 -26q5 0 5 26zM311 284q-6 0 -6 -14t6 -14q5 0 4 4q-3 8 -3 10q0 14 -1 14zM306 419q-4 0 -4 -9t4 -9t4 9t-4 9zM234 176q0 4 -3 4t-3 -3q0 -16 21 -21.5
t21 -29.5q0 -32 -10 -40q0 -2 3 -4q16 6 16 35q0 26 -12 37q-6 6 -19.5 10.5t-13.5 11.5zM170 124q-4 0 -4 -14q0 -9 2.5 -13.5t4.5 -2.5q3 1 2 4q-2 4 -2 21q0 5 -3 5zM197 121q1 -1 3 -9t8 -8q16 0 22 3q2 1 1 2q0 2 -3 2h-19q-5 0 -5.5 6t-1.5 7q-4 1 -5 -3zM237 117
q1 -3 3 -3t2 3q0 14 -14 18l-24 2q-4 1 -4 -3q-1 -3 1 -4t21 -1q13 0 15 -12z" />
    <glyph glyph-name="Eacute" unicode="&#xc9;" horiz-adv-x="390" 
d="M397 667v-667h-404v667h404zM326 504q0 14 -24 16q5 0 -36 0q-99 0 -149 -2q-35 -1 -35 -14q0 -4 5.5 -8t5.5 -14l-2 -261q-18 -15 -18 -18q1 -2 3 -2q12 -2 15 -10t4 -8q3 0 4.5 6t3.5 10l184 -1q12 0 19 -6.5t9 -6.5q15 0 15 23q0 13 -18 13h-186q-10 -1 -14.5 3.5
t-2.5 9.5q3 7 4 41q1 31 6 40q1 1 1 3q0 1 -5.5 5t-5.5 11q0 14 11 14q5 0 7 -4t4 -4q3 0 7.5 2t8.5 2h86q45 0 42 0q15 1 15 15q0 12 -40 12q-6 0 -54 -3t-75 -3q-11 0 -11 12q0 2 1.5 12t1.5 32q0 9 -2.5 32.5t-2.5 27.5q0 16 10 16q6 0 11 -3.5t8 -3.5q5 0 13 4h147
q3 0 14 -1q8 -1 11 0q4 3 4 11zM297 336q0 2 -10 -1q-14 -5 -23 -5h-109q-7 0 -8 2.5t-4 2.5q-2 0 -4 -5.5t-6 -5.5q-3 0 -7 2q-1 -13 -2 -25l2 -45q0 -5 4 -6q5 -1 5 6l1 59q11 3 38 3q18 0 48.5 -1t33.5 -1q41 0 41 20zM70 510q-5 0 -5 -151t5 -151q4 0 4 22q0 -20 0 129
q0 36 1 99q0 34 -1 43t-4 9zM98 179q0 -6 14 -5q32 3 37 3q14 0 46.5 -4t57.5 -4q65 0 65 7t-184 9q-36 0 -36 -6zM146 463l144 -1q30 0 44 14q9 9 -2 9l-8.5 -5.5t-31.5 -6.5q7 5 0 5l-148 2q-9 0 -9 -10q0 -7 11 -7zM151 243q-8 0 -8 -4q0 -5 9 -5q19 0 76 2t60 2
q12 0 28 -4q8 -2 8 3q0 7 -20 7zM142 394q-6 0 -6 -5q0 -7 13 -8h51q73 -1 73 7q-1 1 -7 1l-106 -2q-9 0 -13 3.5t-5 3.5zM135 447q0 8 -3 8q-6 0 -6 -11q0 -31 4 -42q3 -1 6 3zM285 633q0 13 -9 13q-8 0 -12 -3q-17 -13 -33 -25q-49 -36 -49 -47t11 -11q10 0 53 34
q39 30 39 39zM273 595q4 3 1 6q-2 3 -5 1q-14 -12 -45 -37q-17 -13 -15 -16q6 -9 64 46zM197 600q3 2 0 5q-4 2 -9 -1q-18 -11 -18 -19q0 -3 2 -5t7.5 5.5t17.5 14.5zM298 632q-5 0 -7 -3q-3 -3 0 -6q2 -3 8 3t-1 6z" />
    <glyph glyph-name="Ntilde" unicode="&#xd1;" 
d="M407 667v-667h-414v667h414zM168 596q13 0 30 -8.5t31 -8.5q16 0 33.5 9t17.5 23q0 12 -14 12q-7 0 -17.5 -10t-21.5 -10q-16 0 -30 8.5t-34 8.5q-34 0 -46 -19q-4 -7 -1 -15q4 -7 12 -7q12 0 19 8.5t21 8.5zM109 576q-1 -1 -1 -3q0 -9 23 -9q15 0 25 8t15 8q10 0 25 -9
t30 -9q33 0 33 8q0 1 -2 3t-9 0q-13 -3 -23 -3q-12 0 -27.5 9t-28.5 9q-9 0 -17.5 -8t-20.5 -8q-9 0 -14.5 3t-7.5 1zM237 620q1 -1 3 -1l8 5t19 5q13 0 17.5 -9.5t7.5 -9.5t3 4q0 22 -31 22q-12 0 -21.5 -6t-5.5 -10zM103 600q2 -1 3.5 3t3.5 6q7 7 5 9q-4 6 -12 -4
q-10 -13 0 -14zM76 188q12 7 13 29q2 18 -4 29v226q0 17 11 17q12 0 22.5 -9t7.5 -14q-2 -3 -10.5 -1.5t-8.5 -6.5q0 -11 10 -11h1q7 0 9 -3l140 -227q4 -7 1 -9q-4 -2 -4 -4q0 -4 8.5 -9t16.5 -5q32 0 46 13q5 5 5 7t-4 4t-4 5l5 232q1 7 2 15l-7 3q-1 1 -1 2q0 3 4.5 13
t4.5 12q0 21 -15 21q-8 0 -15 -7.5t-7 -15.5q0 -6 5.5 -7.5t5.5 -11.5v-174q0 -57 -1 -63q-1 -15 -10 -15q-18 0 -21 8.5t-5 17.5q-92 138 -153 258q-3 6 -10 6l-38 1q-22 1 -22 -21q0 -5 8 -8q5 -2 4 -25l-2 -114l-2 -121q0 -15 -6 -15q-8 0 -8 8q0 2 1 32v38q0 9 -4 11
q-5 1 -5 -5v-83q0 -21 16 -22zM257 187q3 1 3 5q0 7 -24 38v11q-24 32 -76 123q-40 70 -46 66q-3 -2 12.5 -25t13 -25t55.5 -98t62 -95zM358 478q-2 3 -4 5q-4 -1 -4 -6l-2 -186l-3 -8v-61q0 -4 4 -5q5 -2 5 4l3 52zM46 501q-5 0 -5 -18q0 5 0 -79q0 -26 -1 -60v-30
q1 -9 4 -9q5 0 5 99q0 -14 2 76q0 21 -5 21zM102 439q-5 0 -7 -29q-1 -21 1 -61q1 -49 1 -51q0 -96 4 -97q5 -1 6 2v23q-2 29 -1 62q1 43 0 71q-1 19 -2 30l-1 11q0 39 -1 39zM297 267q4 0 2 35q-2 74 -2 147q0 50 -3 50q-6 0 -6 -50q0 25 -1 -49q-1 -54 1 -87q2 -46 9 -46z
M167 465q-3 0 -3 -4q0 -7 12 -29q9 -16 37 -62q12 -19 23 -38l15 -15q4 6 -9 27zM348 202l-11 -13.5t-34 -13.5q-6 0 -19 3q-7 1 -7 -2q0 -9 25 -9q22 0 37 13q11 9 11 19q0 3 -2 3zM277 279l-10 21q-2 4 -6 3q-5 -1 -3 -4l10 -21q2 -4 6 -3t3 4zM291 254q0 -19 10 -19
q3 0 3 12t-4 13q-9 3 -9 -6z" />
    <glyph glyph-name="Odieresis" unicode="&#xd6;" 
d="M407 667v-667h-414v667h414zM348 341q0 103 -23 135q-27 37 -116 37q-84 0 -105 -17q-34 -28 -34 -135q0 -104 15 -128q24 -40 127 -40q80 0 103 20q33 28 33 128zM325 352q0 -91 -11 -110q-18 -30 -104 -30q-70 0 -91 19q-27 24 -27 106q0 110 15.5 129.5t104.5 19.5
q82 0 102 -33q11 -18 11 -101zM212 467h-54q-57 0 -56 -108q1 -57 6 -62q4 -1 6 4q-5 17 -3 57t7.5 65.5t39.5 30.5q5 1 56 1q40 0 55 -7q12 -6 12 9q0 10 -69 10zM294 434q-5 3 -5 0q-1 -3 2.5 -8t3.5 -24l-1 -122q0 -48 -68 -48q-4 0 -5 -2t3 -3q13 -3 31 1q37 8 46 29
q4 8 4 32v121q0 17 -11 24zM122 184q-8 3 -9 0q-1 -4 5 -6q39 -16 95 -16q121 0 137 62q1 5 -1 6q-3 1 -5 -3q-25 -54 -132 -54q-56 0 -90 11zM44 274q1 -3 5 -3q3 1 3 5q-5 45 -4 81q3 104 27 123q7 5 2 7q-4 3 -9 -2q-30 -37 -30 -127q0 -57 6 -84zM367 394q0 8 -3 8
q-4 -1 -4 -8q0 -79 -3 -114q0 -5 3 -6q3 0 4 4q3 14 3 116zM183 233q-10 0 -10 -3q0 -4 10 -4q11 0 11 4q0 3 -11 3zM60 236q-2 0 -2 -3q0 -6 6.5 -14.5t9.5 -4.5l-6.5 11t-7.5 11zM116 570q5 -9 21 -9q9 0 16.5 5t5.5 7t-6 -2q-7 -4 -16 -4q-12 0 -20 8.5t-8 18.5
q0 11 5 19q4 5 3 6q-3 3 -9 -6t-6 -22q0 -23 14 -21zM140 574q22 0 22 30q0 22 -23 22q-7 0 -15 -9t-8 -20q0 -23 24 -23zM165 580q3 -2 6.5 6t3.5 16q0 14 -9 23t-16 9q-2 0 -2 -1l10.5 -7.5t10.5 -24.5q0 -9 -3 -14.5t-1 -6.5zM244 570q5 -9 21 -9q9 0 16.5 5t5.5 7t-6 -2
q-7 -4 -16 -4q-12 0 -20 8.5t-8 18.5q0 11 5 19q4 5 3 6q-3 3 -9 -6t-6 -22q0 -23 14 -21zM268 574q22 0 22 30q0 22 -23 22q-7 0 -15 -9t-8 -20q0 -23 24 -23zM293 580q3 -2 6.5 6t3.5 16q0 14 -9 23t-16 9q-2 0 -2 -1l10.5 -7.5t10.5 -24.5q0 -9 -3 -14.5t-1 -6.5z" />
    <glyph glyph-name="Udieresis" unicode="&#xdc;" horiz-adv-x="415" 
d="M422 667v-667h-429v667h429zM87 514q-23 0 -23 -20q0 -5 4.5 -8.5t4.5 -9.5v-183q0 -58 28 -77t115 -19q69 0 88 8q40 15 40 76v111l5 4v86q5 -2 5 6q0 28 -21 28q-7 0 -15.5 -8t-8.5 -14q0 -3 7.5 -6.5t7.5 -16.5q0 -10 -2.5 -68t-2.5 -66q0 -82 -10 -95
q-16 -23 -98 -23q-54 0 -77 8q-34 11 -34 43v189h4v38q0 17 -17 17zM298 478l-3 -186q0 -16 -4 -29l-4 -13q0 -3 3 -4q16 -8 16 48v183q0 8 -4 8t-4 -7zM46 274q-1 -48 32 -76q4 -4 7 0q2 3 -4 9q-25 22 -25 63v167q0 8 -3 6q-4 -2 -4 -7zM115 457q-2 0 -2 -41
q0 -7 -1 -48.5t-1 -52.5t-1 -35q0 -13 1 -17t4 -4q6 0 6 52q0 8 1 53v54q0 39 -7 39zM364 483q-4 0 -4 -73q0 -22 -2 -82q0 -17 4 -17q6 0 6 77q0 95 -4 95zM251 174q0 -6 14 -6q50 0 82 36q20 22 20 67q0 24 -7 24q-2 0 -3 -29q-1 -33 -11 -47q-17 -23 -41 -33
q-15 -5 -38 -7q-16 -2 -16 -5zM94 190q-7 -10 31 -19q33 -8 33 3q0 7 -14 7q-18 0 -32.5 5.5t-13.5 5.5q-2 0 -4 -2zM196 174q-27 1 -27 -3q0 -6 26 -8q29 -2 29 6q0 5 -8 5h-20zM54 492q-3 0 -4 -9q-1 -8 0 -17q2 -9 6 -9q12 0 3 10q-4 4 -3 14.5t-2 10.5zM118 493
q-6 0 -6 -16q0 -8 3 -8q6 0 6 8q0 16 -3 16zM116 570q5 -9 21 -9q9 0 16.5 5t5.5 7t-6 -2q-7 -4 -16 -4q-12 0 -20 8.5t-8 18.5q0 11 5 19q4 5 3 6q-3 3 -9 -6t-6 -22q0 -23 14 -21zM140 574q22 0 22 30q0 22 -23 22q-7 0 -15 -9t-8 -20q0 -23 24 -23zM165 580q3 -2 6.5 6
t3.5 16q0 14 -9 23t-16 9q-2 0 -2 -1l10.5 -7.5t10.5 -24.5q0 -9 -3 -14.5t-1 -6.5zM244 570q5 -9 21 -9q9 0 16.5 5t5.5 7t-6 -2q-7 -4 -16 -4q-12 0 -20 8.5t-8 18.5q0 11 5 19q4 5 3 6q-3 3 -9 -6t-6 -22q0 -23 14 -21zM268 574q22 0 22 30q0 22 -23 22q-7 0 -15 -9
t-8 -20q0 -23 24 -23zM293 580q3 -2 6.5 6t3.5 16q0 14 -9 23t-16 9q-2 0 -2 -1l10.5 -7.5t10.5 -24.5q0 -9 -3 -14.5t-1 -6.5z" />
    <glyph glyph-name="aacute" unicode="&#xe1;" 
d="M407 667v-667h-414v667h414zM292 633q0 13 -9 13q-8 0 -12 -3q-17 -13 -33 -25q-49 -36 -49 -47t11 -11q10 0 53 34q39 30 39 39zM280 595q4 3 1 6q-2 3 -5 1q-14 -12 -45 -37q-17 -13 -15 -16q6 -9 64 46zM204 600q3 2 0 4t-8 -1q-19 -12 -19 -19q0 -2 2 -4t7.5 5.5
t17.5 14.5zM305 632q-5 0 -7 -3q-3 -3 0 -6q2 -3 8 3t-1 6zM246 488q-7 21 -39 21q-31 0 -39 -21q-32 -91 -108 -280q-2 -6 -2 -11q0 -19 15 -19q13 0 17 14l15 52q3 12 31 12h133q22 0 26 -13l14 -46q6 -19 18 -19q22 0 12 30zM207 488q12 0 18.5 -13t4.5 -15q-1 -2 -3 -2
q-1 0 -5.5 7t-7.5 7q-8 0 -2 -16q2 -5 9.5 -8.5t9.5 -8.5l38 -107q1 -8 2 -24q1 -7 6 -7q2 0 2 6t2 6l4 -30q-138 -2 -167 0q25 61 46 126q13 41 16 41t2 -5t4 -5q4 0 8 11t0 11q-3 0 -3.5 -3.5t-4.5 -3.5q-2 0 -2 4q0 9 6.5 19t16.5 10zM139 463q-48 -121 -96 -247
q0 -10 4 -12q5 -2 5.5 4.5t3.5 19.5q65 159 92 232q4 11 -2 11q-4 0 -7 -8zM290 429q-2 7 -7 5q-5 -1 -3 -8q4 -14 64 -195l6 -24q3 -10 7 -10q9 0 2 26q-29 86 -69 206zM125 243q-5 0 -13.5 -19.5t-8.5 -29.5q0 -3 1 -4q5 -2 14 18q8 17 17 20q6 2 47 2q60 0 85 -2
q8 -1 9.5 -18t10.5 -17q8 0 5 20q-3 18 -8.5 24t-24.5 6h-134zM217 424l29 -99q0 -1 2 -14q1 -7 5 -7t2 8q-3 7 -1 7q10 0 5 10q-6 8 -18 44t-14 51q-1 8 -6 8q-6 0 -4 -8zM195 418q4 10 -4 10q-3 0 -5 -6q-34 -86 -34 -99q0 -3 2 -4q4 -1 20 42q11 28 21 57zM226 305
q-38 -1 -38 -8q0 -3 51 -3q5 0 5 4q0 8 -18 7zM162 501q-4 0 -7 -6q-3 -7 1 -7t7 7q3 6 -1 6zM258 482l12 -33q2 -5 8 -4q5 1 3 7l-11 30q-2 6 -8 6q-6 -1 -4 -6z" />
    <glyph glyph-name="agrave" unicode="&#xe0;" 
d="M407 667v-667h-414v667h414zM115 633q0 -9 71 -59q17 -12 22 -12q13 0 13 14q0 4 -3 7q-87 65 -91 65q-12 0 -12 -15zM162 634q63 -47 66 -47q1 0 2 1q3 3 -64 52q-4 3 -7 1q-3 -3 3 -7zM102 629q0 -7 6.5 -14.5t10.5 -4.5q2 2 -4.5 8.5t-6.5 11t-3 3.5t-3 -4zM246 488
q-7 21 -39 21q-31 0 -39 -21q-32 -91 -108 -280q-2 -6 -2 -11q0 -19 15 -19q13 0 17 14l15 52q3 12 31 12h133q22 0 26 -13l14 -46q6 -19 18 -19q22 0 12 30zM207 488q12 0 18.5 -13t4.5 -15q-1 -2 -3 -2q-1 0 -5.5 7t-7.5 7q-8 0 -2 -16q2 -5 9.5 -8.5t9.5 -8.5l38 -107
q1 -8 2 -24q1 -7 6 -7q2 0 2 6t2 6l4 -30q-138 -2 -167 0q25 61 46 126q13 41 16 41t2 -5t4 -5q4 0 8 11t0 11q-3 0 -3.5 -3.5t-4.5 -3.5q-2 0 -2 4q0 9 6.5 19t16.5 10zM139 463q-48 -121 -96 -247q0 -10 4 -12q5 -2 5.5 4.5t3.5 19.5q65 159 92 232q4 11 -2 11q-4 0 -7 -8
zM290 429q-2 7 -7 5q-5 -1 -3 -8q4 -14 64 -195l6 -24q3 -10 7 -10q9 0 2 26q-29 86 -69 206zM125 243q-5 0 -13.5 -19.5t-8.5 -29.5q0 -3 1 -4q5 -2 14 18q8 17 17 20q6 2 47 2q60 0 85 -2q8 -1 9.5 -18t10.5 -17q8 0 5 20q-3 18 -8.5 24t-24.5 6h-134zM217 424l29 -99
q0 -1 2 -14q1 -7 5 -7t2 8q-3 7 -1 7q10 0 5 10q-6 8 -18 44t-14 51q-1 8 -6 8q-6 0 -4 -8zM195 418q4 10 -4 10q-3 0 -5 -6q-34 -86 -34 -99q0 -3 2 -4q4 -1 20 42q11 28 21 57zM226 305q-38 -1 -38 -8q0 -3 51 -3q5 0 5 4q0 8 -18 7zM162 501q-4 0 -7 -6q-3 -7 1 -7t7 7
q3 6 -1 6zM258 482l12 -33q2 -5 8 -4q5 1 3 7l-11 30q-2 6 -8 6q-6 -1 -4 -6z" />
    <glyph glyph-name="acircumflex" unicode="&#xe2;" 
d="M407 667v-667h-414v667h414zM197 642l-4 -7l-75 -66q-4 -3 -4 -7q0 -14 16 -14q4 0 7 3l71 70l72 -65l4 -6t8 -2q11 0 11 14q0 6 -9 14l-12 10q-26 22 -59 55q-3 5 -13 6q-9 1 -13 -5zM212 600q-1 -1 -1 -2t26 -26.5t27 -25.5q2 0 3 1t1 2q0 2 -26.5 28t-29.5 23z
M206 593q4 4 1 7t-6 0l-50 -51q0 -1 1.5 -2.5t2.5 -1.5q3 0 51 48zM119 580q-1 4 -6 2q-13 -16 -13 -17l2 -2zM246 501q-7 21 -39 21q-31 0 -39 -21q-32 -91 -108 -280q-2 -6 -2 -11q0 -19 15 -19q13 0 17 14l15 52q3 12 31 12h133q22 0 26 -13l14 -46q6 -19 18 -19
q22 0 12 30zM207 501q12 0 18.5 -13t4.5 -15q-1 -2 -3 -2q-1 0 -5.5 7t-7.5 7q-8 0 -2 -16q2 -5 9.5 -8.5t9.5 -8.5l38 -107q1 -8 2 -24q1 -7 6 -7q2 0 2 6t2 6l4 -30q-138 -2 -167 0q25 61 46 126q13 41 16 41t2 -5t4 -5q4 0 8 11t0 11q-3 0 -3.5 -3.5t-4.5 -3.5q-2 0 -2 4
q0 9 6.5 19t16.5 10zM139 476q-48 -121 -96 -247q0 -10 4 -12q5 -2 5.5 4.5t3.5 19.5q65 159 92 232q4 11 -2 11q-4 0 -7 -8zM290 442q-2 7 -7 5q-5 -1 -3 -8q4 -14 64 -195l6 -24q3 -10 7 -10q9 0 2 26q-29 86 -69 206zM125 256q-5 0 -13.5 -19.5t-8.5 -29.5q0 -3 1 -4
q5 -2 14 18q8 17 17 20q6 2 47 2q60 0 85 -2q8 -1 9.5 -18t10.5 -17q8 0 5 20q-3 18 -8.5 24t-24.5 6h-134zM217 437l29 -99q0 -1 2 -14q1 -7 5 -7t2 8q-3 7 -1 7q10 0 5 10q-6 8 -18 44t-14 51q-1 8 -6 8q-6 0 -4 -8zM195 431q4 10 -4 10q-3 0 -5 -6q-34 -86 -34 -99
q0 -3 2 -4q4 -1 20 42q11 28 21 57zM226 318q-38 -1 -38 -8q0 -3 51 -3q5 0 5 4q0 8 -18 7zM162 514q-4 0 -7 -6q-3 -7 1 -7t7 7q3 6 -1 6zM258 495l12 -33q2 -5 8 -4q5 1 3 7l-11 30q-2 6 -8 6q-6 -1 -4 -6z" />
    <glyph glyph-name="adieresis" unicode="&#xe4;" 
d="M407 667v-667h-414v667h414zM116 570q5 -9 21 -9q9 0 16.5 5t5.5 7t-6 -2q-7 -4 -16 -4q-12 0 -20 8.5t-8 18.5q0 11 5 19q4 5 3 6q-3 3 -9 -6t-6 -22q0 -23 14 -21zM140 574q22 0 22 30q0 22 -23 22q-7 0 -15 -9t-8 -20q0 -23 24 -23zM165 580q3 -2 6.5 6t3.5 16
q0 14 -9 23t-16 9q-2 0 -2 -1l10.5 -7.5t10.5 -24.5q0 -9 -3 -14.5t-1 -6.5zM244 570q5 -9 21 -9q9 0 16.5 5t5.5 7t-6 -2q-7 -4 -16 -4q-12 0 -20 8.5t-8 18.5q0 11 5 19q4 5 3 6q-3 3 -9 -6t-6 -22q0 -23 14 -21zM268 574q22 0 22 30q0 22 -23 22q-7 0 -15 -9t-8 -20
q0 -23 24 -23zM293 580q3 -2 6.5 6t3.5 16q0 14 -9 23t-16 9q-2 0 -2 -1l10.5 -7.5t10.5 -24.5q0 -9 -3 -14.5t-1 -6.5zM246 488q-7 21 -39 21q-31 0 -39 -21q-32 -91 -108 -280q-2 -6 -2 -11q0 -19 15 -19q13 0 17 14l15 52q3 12 31 12h133q22 0 26 -13l14 -46
q6 -19 18 -19q22 0 12 30zM207 488q12 0 18.5 -13t4.5 -15q-1 -2 -3 -2q-1 0 -5.5 7t-7.5 7q-8 0 -2 -16q2 -5 9.5 -8.5t9.5 -8.5l38 -107q1 -8 2 -24q1 -7 6 -7q2 0 2 6t2 6l4 -30q-138 -2 -167 0q25 61 46 126q13 41 16 41t2 -5t4 -5q4 0 8 11t0 11q-3 0 -3.5 -3.5
t-4.5 -3.5q-2 0 -2 4q0 9 6.5 19t16.5 10zM139 463q-48 -121 -96 -247q0 -10 4 -12q5 -2 5.5 4.5t3.5 19.5q65 159 92 232q4 11 -2 11q-4 0 -7 -8zM290 429q-2 7 -7 5q-5 -1 -3 -8q4 -14 64 -195l6 -24q3 -10 7 -10q9 0 2 26q-29 86 -69 206zM125 243q-5 0 -13.5 -19.5
t-8.5 -29.5q0 -3 1 -4q5 -2 14 18q8 17 17 20q6 2 47 2q60 0 85 -2q8 -1 9.5 -18t10.5 -17q8 0 5 20q-3 18 -8.5 24t-24.5 6h-134zM217 424l29 -99q0 -1 2 -14q1 -7 5 -7t2 8q-3 7 -1 7q10 0 5 10q-6 8 -18 44t-14 51q-1 8 -6 8q-6 0 -4 -8zM195 418q4 10 -4 10q-3 0 -5 -6
q-34 -86 -34 -99q0 -3 2 -4q4 -1 20 42q11 28 21 57zM226 305q-38 -1 -38 -8q0 -3 51 -3q5 0 5 4q0 8 -18 7zM162 501q-4 0 -7 -6q-3 -7 1 -7t7 7q3 6 -1 6zM258 482l12 -33q2 -5 8 -4q5 1 3 7l-11 30q-2 6 -8 6q-6 -1 -4 -6z" />
    <glyph glyph-name="atilde" unicode="&#xe3;" 
d="M407 667v-667h-414v667h414zM175 596q13 0 30 -8.5t31 -8.5q16 0 33.5 9t17.5 23q0 12 -14 12q-7 0 -17.5 -10t-21.5 -10q-16 0 -30 8.5t-34 8.5q-34 0 -46 -19q-4 -7 -1 -15q4 -7 12 -7q12 0 19 8.5t21 8.5zM116 576q-1 -1 -1 -3q0 -9 23 -9q15 0 25 8t15 8q10 0 25 -9
t30 -9q33 0 33 8q0 1 -2 3t-9 0q-13 -3 -23 -3q-12 0 -27.5 9t-28.5 9q-9 0 -17.5 -8t-20.5 -8q-9 0 -14.5 3t-7.5 1zM244 620q1 -1 3 -1l8 5t19 5q13 0 17.5 -9.5t7.5 -9.5t3 4q0 22 -31 22q-12 0 -21.5 -6t-5.5 -10zM110 600q2 -1 3.5 3t3.5 6q7 7 5 9q-4 6 -12 -4
q-10 -13 0 -14zM246 488q-7 21 -39 21q-31 0 -39 -21q-32 -91 -108 -280q-2 -6 -2 -11q0 -19 15 -19q13 0 17 14l15 52q3 12 31 12h133q22 0 26 -13l14 -46q6 -19 18 -19q22 0 12 30zM207 488q12 0 18.5 -13t4.5 -15q-1 -2 -3 -2q-1 0 -5.5 7t-7.5 7q-8 0 -2 -16
q2 -5 9.5 -8.5t9.5 -8.5l38 -107q1 -8 2 -24q1 -7 6 -7q2 0 2 6t2 6l4 -30q-138 -2 -167 0q25 61 46 126q13 41 16 41t2 -5t4 -5q4 0 8 11t0 11q-3 0 -3.5 -3.5t-4.5 -3.5q-2 0 -2 4q0 9 6.5 19t16.5 10zM139 463q-48 -121 -96 -247q0 -10 4 -12q5 -2 5.5 4.5t3.5 19.5
q65 159 92 232q4 11 -2 11q-4 0 -7 -8zM290 429q-2 7 -7 5q-5 -1 -3 -8q4 -14 64 -195l6 -24q3 -10 7 -10q9 0 2 26q-29 86 -69 206zM125 243q-5 0 -13.5 -19.5t-8.5 -29.5q0 -3 1 -4q5 -2 14 18q8 17 17 20q6 2 47 2q60 0 85 -2q8 -1 9.5 -18t10.5 -17q8 0 5 20
q-3 18 -8.5 24t-24.5 6h-134zM217 424l29 -99q0 -1 2 -14q1 -7 5 -7t2 8q-3 7 -1 7q10 0 5 10q-6 8 -18 44t-14 51q-1 8 -6 8q-6 0 -4 -8zM195 418q4 10 -4 10q-3 0 -5 -6q-34 -86 -34 -99q0 -3 2 -4q4 -1 20 42q11 28 21 57zM226 305q-38 -1 -38 -8q0 -3 51 -3q5 0 5 4
q0 8 -18 7zM162 501q-4 0 -7 -6q-3 -7 1 -7t7 7q3 6 -1 6zM258 482l12 -33q2 -5 8 -4q5 1 3 7l-11 30q-2 6 -8 6q-6 -1 -4 -6z" />
    <glyph glyph-name="aring" unicode="&#xe5;" 
d="M407 667v-667h-414v667h414zM223 649h-31q-19 0 -23.5 -10.5t-4.5 -34.5q0 -30 7 -37t35 -7q25 0 32 3q12 7 12 30v23q0 33 -27 33zM205 636q16 0 19 -2q9 -5 8 -25q-1 -25 -4.5 -30.5t-20.5 -5.5q-16 0 -20 5t-4 25q0 24 2.5 28.5t19.5 4.5zM157 636q-5 3 -7.5 -17.5
t-0.5 -34.5q5 -38 38 -38q45 0 45 4q0 3 -46 3q-30 0 -30 32v30q0 5 2 14q1 6 -1 7zM189 596q0 -4 3 -4q3 1 3 4l2 20q1 4 6 4q13 0 15 -8q0 -17 -2 -21.5t-11.5 -3.5t-10.5 -1q-3 -5 14 -5q16 -1 16 7l1 24q1 16 -13 16q-23 0 -23 -16v-16zM246 488q-7 21 -39 21
q-31 0 -39 -21q-32 -91 -108 -280q-2 -6 -2 -11q0 -19 15 -19q13 0 17 14l15 52q3 12 31 12h133q22 0 26 -13l14 -46q6 -19 18 -19q22 0 12 30zM207 488q12 0 18.5 -13t4.5 -15q-1 -2 -3 -2q-1 0 -5.5 7t-7.5 7q-8 0 -2 -16q2 -5 9.5 -8.5t9.5 -8.5l38 -107q1 -8 2 -24
q1 -7 6 -7q2 0 2 6t2 6l4 -30q-138 -2 -167 0q25 61 46 126q13 41 16 41t2 -5t4 -5q4 0 8 11t0 11q-3 0 -3.5 -3.5t-4.5 -3.5q-2 0 -2 4q0 9 6.5 19t16.5 10zM139 463q-48 -121 -96 -247q0 -10 4 -12q5 -2 5.5 4.5t3.5 19.5q65 159 92 232q4 11 -2 11q-4 0 -7 -8zM290 429
q-2 7 -7 5q-5 -1 -3 -8q4 -14 64 -195l6 -24q3 -10 7 -10q9 0 2 26q-29 86 -69 206zM125 243q-5 0 -13.5 -19.5t-8.5 -29.5q0 -3 1 -4q5 -2 14 18q8 17 17 20q6 2 47 2q60 0 85 -2q8 -1 9.5 -18t10.5 -17q8 0 5 20q-3 18 -8.5 24t-24.5 6h-134zM217 424l29 -99q0 -1 2 -14
q1 -7 5 -7t2 8q-3 7 -1 7q10 0 5 10q-6 8 -18 44t-14 51q-1 8 -6 8q-6 0 -4 -8zM195 418q4 10 -4 10q-3 0 -5 -6q-34 -86 -34 -99q0 -3 2 -4q4 -1 20 42q11 28 21 57zM226 305q-38 -1 -38 -8q0 -3 51 -3q5 0 5 4q0 8 -18 7zM162 501q-4 0 -7 -6q-3 -7 1 -7t7 7q3 6 -1 6z
M258 482l12 -33q2 -5 8 -4q5 1 3 7l-11 30q-2 6 -8 6q-6 -1 -4 -6z" />
    <glyph glyph-name="ccedilla" unicode="&#xe7;" horiz-adv-x="410" 
d="M-7 667h424v-667h-424v667zM214 513q-97 0 -123 -26q-19 -19 -19 -127q0 -121 27 -146q20 -19 99 -23l-4 -41q-1 -6 21.5 -8.5t25.5 -4.5q7 -4 7 -22q0 -9 -4 -12q-7 -5 -34 -5q-17 0 -17 13t-7 13q-6 0 -6 -6q0 -19 3 -23q7 -10 33 -10q45 0 46 30q0 19 -7 29
q-4 5 -21.5 7.5t-16.5 7.5l5 32q76 0 107 15q26 13 26 56q0 30 -15 30q-16 0 -16 -18q0 -35 -8 -44q-11 -12 -102 -12q-74 0 -96 14t-22 143q0 77 17.5 96t104.5 19q72 0 90 -13q13 -10 13 -55q0 -18 17 -18q18 0 18 26q0 52 -23 66q-28 17 -119 17zM182 170q7 0 6 5t-7 5
q-62 -2 -93 20.5t-31 136.5q0 10 4 104q2 43 35 64q24 15 58 15q16 0 16 3t-17 3q-41 0 -69.5 -19t-34.5 -70q-1 -11 -1 -64q0 -104 9 -138q4 -17 22 -37q25 -28 103 -28zM258 172q60 0 82 10q10 4 19 20q3 6 0 8q-3 3 -6 -1q-12 -18 -23 -22q-18 -8 -73 -7q-3 -2 -5 -4
q0 -4 6 -4zM305 432q5 0 3 13q-2 12 -8 16q-20 13 -89 13q-64 0 -82.5 -15t-18.5 -60q0 -114 5 -114q3 0 3 99q0 56 16 67q13 9 80 9q71 0 81 -8q5 -4 5 -12t5 -8zM136 243q0 -15 86 -15q74 0 74 16q0 2 -1 2q5 0 -20.5 -4t-64.5 -4q-29 0 -51.5 3.5t-20.5 3.5q-2 0 -2 -2z
M362 484q-4 -1 -2 -7q3 -10 3 -13q0 -13 5 -13q3 0 3 13q0 22 -9 20zM374 258q0 15 -5 15q-4 0 -4 -15q0 -26 4 -26q5 0 5 26zM311 284q-6 0 -6 -14t6 -14q5 0 4 4q-3 8 -3 10q0 14 -1 14zM306 419q-4 0 -4 -9t4 -9t4 9t-4 9zM234 176q0 4 -3 4t-3 -3q0 -16 21 -21.5
t21 -29.5q0 -32 -10 -40q0 -2 3 -4q16 6 16 35q0 26 -12 37q-6 6 -19.5 10.5t-13.5 11.5zM170 124q-4 0 -4 -14q0 -9 2.5 -13.5t4.5 -2.5q3 1 2 4q-2 4 -2 21q0 5 -3 5zM197 121q1 -1 3 -9t8 -8q16 0 22 3q2 1 1 2q0 2 -3 2h-19q-5 0 -5.5 6t-1.5 7q-4 1 -5 -3zM237 117
q1 -3 3 -3t2 3q0 14 -14 18l-24 2q-4 1 -4 -3q-1 -3 1 -4t21 -1q13 0 15 -12z" />
    <glyph glyph-name="eacute" unicode="&#xe9;" horiz-adv-x="390" 
d="M397 667v-667h-404v667h404zM326 504q0 14 -24 16q5 0 -36 0q-99 0 -149 -2q-35 -1 -35 -14q0 -4 5.5 -8t5.5 -14l-2 -261q-18 -15 -18 -18q1 -2 3 -2q12 -2 15 -10t4 -8q3 0 4.5 6t3.5 10l184 -1q12 0 19 -6.5t9 -6.5q15 0 15 23q0 13 -18 13h-186q-10 -1 -14.5 3.5
t-2.5 9.5q3 7 4 41q1 31 6 40q1 1 1 3q0 1 -5.5 5t-5.5 11q0 14 11 14q5 0 7 -4t4 -4q3 0 7.5 2t8.5 2h86q45 0 42 0q15 1 15 15q0 12 -40 12q-6 0 -54 -3t-75 -3q-11 0 -11 12q0 2 1.5 12t1.5 32q0 9 -2.5 32.5t-2.5 27.5q0 16 10 16q6 0 11 -3.5t8 -3.5q5 0 13 4h147
q3 0 14 -1q8 -1 11 0q4 3 4 11zM297 336q0 2 -10 -1q-14 -5 -23 -5h-109q-7 0 -8 2.5t-4 2.5q-2 0 -4 -5.5t-6 -5.5q-3 0 -7 2q-1 -13 -2 -25l2 -45q0 -5 4 -6q5 -1 5 6l1 59q11 3 38 3q18 0 48.5 -1t33.5 -1q41 0 41 20zM70 510q-5 0 -5 -151t5 -151q4 0 4 22q0 -20 0 129
q0 36 1 99q0 34 -1 43t-4 9zM98 179q0 -6 14 -5q32 3 37 3q14 0 46.5 -4t57.5 -4q65 0 65 7t-184 9q-36 0 -36 -6zM146 463l144 -1q30 0 44 14q9 9 -2 9l-8.5 -5.5t-31.5 -6.5q7 5 0 5l-148 2q-9 0 -9 -10q0 -7 11 -7zM151 243q-8 0 -8 -4q0 -5 9 -5q19 0 76 2t60 2
q12 0 28 -4q8 -2 8 3q0 7 -20 7zM142 394q-6 0 -6 -5q0 -7 13 -8h51q73 -1 73 7q-1 1 -7 1l-106 -2q-9 0 -13 3.5t-5 3.5zM135 447q0 8 -3 8q-6 0 -6 -11q0 -31 4 -42q3 -1 6 3zM285 633q0 13 -9 13q-8 0 -12 -3q-17 -13 -33 -25q-49 -36 -49 -47t11 -11q10 0 53 34
q39 30 39 39zM273 595q4 3 1 6q-2 3 -5 1q-14 -12 -45 -37q-17 -13 -15 -16q6 -9 64 46zM197 600q3 2 0 5q-4 2 -9 -1q-18 -11 -18 -19q0 -3 2 -5t7.5 5.5t17.5 14.5zM298 632q-5 0 -7 -3q-3 -3 0 -6q2 -3 8 3t-1 6z" />
    <glyph glyph-name="egrave" unicode="&#xe8;" horiz-adv-x="390" 
d="M397 667v-667h-404v667h404zM326 504q0 14 -24 16q5 0 -36 0q-99 0 -149 -2q-35 -1 -35 -14q0 -4 5.5 -8t5.5 -14l-2 -261q-18 -15 -18 -18q1 -2 3 -2q12 -2 15 -10t4 -8q3 0 4.5 6t3.5 10l184 -1q12 0 19 -6.5t9 -6.5q15 0 15 23q0 13 -18 13h-186q-10 -1 -14.5 3.5
t-2.5 9.5q3 7 4 41q1 31 6 40q1 1 1 3q0 1 -5.5 5t-5.5 11q0 14 11 14q5 0 7 -4t4 -4q3 0 7.5 2t8.5 2h86q45 0 42 0q15 1 15 15q0 12 -40 12q-6 0 -54 -3t-75 -3q-11 0 -11 12q0 2 1.5 12t1.5 32q0 9 -2.5 32.5t-2.5 27.5q0 16 10 16q6 0 11 -3.5t8 -3.5q5 0 13 4h147
q3 0 14 -1q8 -1 11 0q4 3 4 11zM297 336q0 2 -10 -1q-14 -5 -23 -5h-109q-7 0 -8 2.5t-4 2.5q-2 0 -4 -5.5t-6 -5.5q-3 0 -7 2q-1 -13 -2 -25l2 -45q0 -5 4 -6q5 -1 5 6l1 59q11 3 38 3q18 0 48.5 -1t33.5 -1q41 0 41 20zM70 510q-5 0 -5 -151t5 -151q4 0 4 22q0 -20 0 129
q0 36 1 99q0 34 -1 43t-4 9zM98 179q0 -6 14 -5q32 3 37 3q14 0 46.5 -4t57.5 -4q65 0 65 7t-184 9q-36 0 -36 -6zM146 463l144 -1q30 0 44 14q9 9 -2 9l-8.5 -5.5t-31.5 -6.5q7 5 0 5l-148 2q-9 0 -9 -10q0 -7 11 -7zM151 243q-8 0 -8 -4q0 -5 9 -5q19 0 76 2t60 2
q12 0 28 -4q8 -2 8 3q0 7 -20 7zM142 394q-6 0 -6 -5q0 -7 13 -8h51q73 -1 73 7q-1 1 -7 1l-106 -2q-9 0 -13 3.5t-5 3.5zM135 447q0 8 -3 8q-6 0 -6 -11q0 -31 4 -42q3 -1 6 3zM115 633q0 -9 71 -59q17 -12 22 -12q13 0 13 14q0 4 -3 7q-87 65 -91 65q-12 0 -12 -15z
M162 634q63 -47 66 -47q1 0 2 1q3 3 -64 52q-4 3 -7 1q-3 -3 3 -7zM102 629q0 -7 6.5 -14.5t10.5 -4.5q2 2 -4.5 8.5t-6.5 11t-3 3.5t-3 -4z" />
    <glyph glyph-name="ecircumflex" unicode="&#xea;" horiz-adv-x="390" 
d="M397 667v-667h-404v667h404zM326 504q0 14 -24 16q5 0 -36 0q-99 0 -149 -2q-35 -1 -35 -14q0 -4 5.5 -8t5.5 -14l-2 -261q-18 -15 -18 -18q1 -2 3 -2q12 -2 15 -10t4 -8q3 0 4.5 6t3.5 10l184 -1q12 0 19 -6.5t9 -6.5q15 0 15 23q0 13 -18 13h-186q-10 -1 -14.5 3.5
t-2.5 9.5q3 7 4 41q1 31 6 40q1 1 1 3q0 1 -5.5 5t-5.5 11q0 14 11 14q5 0 7 -4t4 -4q3 0 7.5 2t8.5 2h86q45 0 42 0q15 1 15 15q0 12 -40 12q-6 0 -54 -3t-75 -3q-11 0 -11 12q0 2 1.5 12t1.5 32q0 9 -2.5 32.5t-2.5 27.5q0 16 10 16q6 0 11 -3.5t8 -3.5q5 0 13 4h147
q3 0 14 -1q8 -1 11 0q4 3 4 11zM297 336q0 2 -10 -1q-14 -5 -23 -5h-109q-7 0 -8 2.5t-4 2.5q-2 0 -4 -5.5t-6 -5.5q-3 0 -7 2q-1 -13 -2 -25l2 -45q0 -5 4 -6q5 -1 5 6l1 59q11 3 38 3q18 0 48.5 -1t33.5 -1q41 0 41 20zM70 510q-5 0 -5 -151t5 -151q4 0 4 22q0 -20 0 129
q0 36 1 99q0 34 -1 43t-4 9zM98 179q0 -6 14 -5q32 3 37 3q14 0 46.5 -4t57.5 -4q65 0 65 7t-184 9q-36 0 -36 -6zM146 463l144 -1q30 0 44 14q9 9 -2 9l-8.5 -5.5t-31.5 -6.5q7 5 0 5l-148 2q-9 0 -9 -10q0 -7 11 -7zM151 243q-8 0 -8 -4q0 -5 9 -5q19 0 76 2t60 2
q12 0 28 -4q8 -2 8 3q0 7 -20 7zM142 394q-6 0 -6 -5q0 -7 13 -8h51q73 -1 73 7q-1 1 -7 1l-106 -2q-9 0 -13 3.5t-5 3.5zM135 447q0 8 -3 8q-6 0 -6 -11q0 -31 4 -42q3 -1 6 3zM186 642l-4 -7l-75 -66q-4 -3 -4 -7q0 -14 16 -14q4 0 7 3l71 70l72 -65l4 -6t8 -2q11 0 11 14
q0 6 -9 14l-12 10q-26 22 -59 55q-3 5 -13 6q-9 1 -13 -5zM201 600q-1 -1 -1 -2t26 -26.5t27 -25.5q2 0 3 1t1 2q0 2 -26.5 28t-29.5 23zM195 593q4 4 1 7t-6 0l-50 -51q0 -1 1.5 -2.5t2.5 -1.5q3 0 51 48zM108 580q-1 4 -6 2q-13 -16 -13 -17l2 -2z" />
    <glyph glyph-name="edieresis" unicode="&#xeb;" horiz-adv-x="390" 
d="M397 667v-667h-404v667h404zM326 504q0 14 -24 16q5 0 -36 0q-99 0 -149 -2q-35 -1 -35 -14q0 -4 5.5 -8t5.5 -14l-2 -261q-18 -15 -18 -18q1 -2 3 -2q12 -2 15 -10t4 -8q3 0 4.5 6t3.5 10l184 -1q12 0 19 -6.5t9 -6.5q15 0 15 23q0 13 -18 13h-186q-10 -1 -14.5 3.5
t-2.5 9.5q3 7 4 41q1 31 6 40q1 1 1 3q0 1 -5.5 5t-5.5 11q0 14 11 14q5 0 7 -4t4 -4q3 0 7.5 2t8.5 2h86q45 0 42 0q15 1 15 15q0 12 -40 12q-6 0 -54 -3t-75 -3q-11 0 -11 12q0 2 1.5 12t1.5 32q0 9 -2.5 32.5t-2.5 27.5q0 16 10 16q6 0 11 -3.5t8 -3.5q5 0 13 4h147
q3 0 14 -1q8 -1 11 0q4 3 4 11zM297 336q0 2 -10 -1q-14 -5 -23 -5h-109q-7 0 -8 2.5t-4 2.5q-2 0 -4 -5.5t-6 -5.5q-3 0 -7 2q-1 -13 -2 -25l2 -45q0 -5 4 -6q5 -1 5 6l1 59q11 3 38 3q18 0 48.5 -1t33.5 -1q41 0 41 20zM70 510q-5 0 -5 -151t5 -151q4 0 4 22q0 -20 0 129
q0 36 1 99q0 34 -1 43t-4 9zM98 179q0 -6 14 -5q32 3 37 3q14 0 46.5 -4t57.5 -4q65 0 65 7t-184 9q-36 0 -36 -6zM146 463l144 -1q30 0 44 14q9 9 -2 9l-8.5 -5.5t-31.5 -6.5q7 5 0 5l-148 2q-9 0 -9 -10q0 -7 11 -7zM151 243q-8 0 -8 -4q0 -5 9 -5q19 0 76 2t60 2
q12 0 28 -4q8 -2 8 3q0 7 -20 7zM142 394q-6 0 -6 -5q0 -7 13 -8h51q73 -1 73 7q-1 1 -7 1l-106 -2q-9 0 -13 3.5t-5 3.5zM135 447q0 8 -3 8q-6 0 -6 -11q0 -31 4 -42q3 -1 6 3zM104 570q5 -9 21 -9q9 0 16.5 5t5.5 7t-6 -2q-7 -4 -16 -4q-12 0 -20 8.5t-8 18.5q0 11 5 19
q4 5 3 6q-3 3 -9 -6t-6 -22q0 -23 14 -21zM128 574q22 0 22 30q0 22 -23 22q-7 0 -15 -9t-8 -20q0 -23 24 -23zM153 580q3 -2 7 6t4 16q0 15 -10 25q-8 7 -15 7q-2 0 -3 -1l10.5 -7.5t10.5 -24.5q0 -9 -3 -14.5t-1 -6.5zM232 570q5 -9 21 -9q9 0 16.5 5t5.5 7t-6 -2
q-7 -4 -16 -4q-12 0 -20 8.5t-8 18.5q0 11 5 19q4 5 3 6q-3 3 -9 -6t-6 -22q0 -23 14 -21zM256 574q22 0 22 30q0 22 -23 22q-7 0 -15 -9t-8 -20q0 -23 24 -23zM281 580q3 -2 7 6t4 16q0 14 -9 23t-16 9q-2 0 -3 -1l10.5 -7.5t10.5 -24.5q0 -9 -3 -14.5t-1 -6.5z" />
    <glyph glyph-name="iacute" unicode="&#xed;" horiz-adv-x="210" 
d="M217 667v-667h-224v667h224zM167 633q0 13 -9 13q-8 0 -12 -3q-17 -13 -33 -25q-49 -36 -49 -47t11 -11q10 0 53 34q39 30 39 39zM155 595q4 3 1 6q-2 3 -5 1q-14 -12 -45 -37q-17 -13 -15 -16q6 -9 64 46zM79 600q3 2 0 4t-8 -1q-19 -12 -19 -19q0 -2 2 -4t7.5 5.5
t17.5 14.5zM180 632q-5 0 -7 -3q-3 -3 0 -6q2 -3 8 3t-1 6zM113 518q-9 2 -11 0l-12 -12q-6 -6 2 -24v-46q0 -10 1.5 -86.5t1.5 -66.5q0 -80 1 -44q-1 -28 -9 -36q-1 -1 -1 -4q0 -8 8 -17t19 -9q14 0 13 22q-5 154 0 168v135q0 8 -6 14.5t-7 5.5zM71 422q0 -8 6 -8q7 0 4 5
q-2 8 0 18q2 7 -2 7q-8 0 -8 -22zM74 191q0 -4 5 -3t3 4q-2 5 -2 13t2.5 28.5t2.5 31.5q0 12 -2 20q0 87 -1 104q-1 9 -5 9l-4 -6z" />
    <glyph glyph-name="igrave" unicode="&#xec;" horiz-adv-x="210" 
d="M217 667v-667h-224v667h224zM47 633q0 -9 71 -59q17 -12 22 -12q13 0 13 14q0 4 -3 7q-87 65 -91 65q-12 0 -12 -15zM94 634q63 -47 66 -47q1 0 2 1q3 3 -64 52q-4 3 -7 1q-3 -3 3 -7zM34 629q0 -7 6.5 -14.5t10.5 -4.5q2 2 -4.5 8.5t-6.5 11t-3 3.5t-3 -4zM113 518
q-9 2 -11 0l-12 -12q-6 -6 2 -24v-46q0 -10 1.5 -86.5t1.5 -66.5q0 -80 1 -44q-1 -28 -9 -36q-1 -1 -1 -4q0 -8 8 -17t19 -9q14 0 13 22q-5 154 0 168v135q0 8 -6 14.5t-7 5.5zM71 422q0 -8 6 -8q7 0 4 5q-2 8 0 18q2 7 -2 7q-8 0 -8 -22zM74 191q0 -4 5 -3t3 4q-2 5 -2 13
t2.5 28.5t2.5 31.5q0 12 -2 20q0 87 -1 104q-1 9 -5 9l-4 -6z" />
    <glyph glyph-name="icircumflex" unicode="&#xee;" horiz-adv-x="210" 
d="M217 667v-667h-223v667h223zM99 642l-4 -7l-75 -66q-4 -3 -4 -7q0 -14 16 -14q4 0 7 3l71 70l72 -65l4 -6t8 -2q11 0 11 14q0 6 -9 14l-12 10q-26 22 -59 55q-3 5 -13 6q-9 1 -13 -5zM114 600q-1 -1 -1 -2t26 -26.5t27 -25.5q2 0 3 1t1 2q0 2 -26.5 28t-29.5 23zM108 593
q4 4 1 7t-6 0l-50 -51q0 -1 1.5 -2.5t2.5 -1.5q3 0 51 48zM21 580q-1 4 -6 2q-13 -16 -13 -17l2 -2zM113 518q-9 2 -11 0l-12 -12q-6 -6 2 -24v-46q0 -10 1.5 -86.5t1.5 -66.5q0 -80 1 -44q-1 -28 -9 -36q-1 -1 -1 -4q0 -8 8 -17t19 -9q14 0 13 22q-5 154 0 168v135
q0 8 -6 14.5t-7 5.5zM71 422q0 -8 6 -8q7 0 4 5q-2 8 0 18q2 7 -2 7q-8 0 -8 -22zM74 191q0 -4 5 -3t3 4q-2 5 -2 13t2.5 28.5t2.5 31.5q0 12 -2 20q0 87 -1 104q-1 9 -5 9l-4 -6z" />
    <glyph glyph-name="idieresis" unicode="&#xef;" horiz-adv-x="210" 
d="M217 667v-667h-224v667h224zM19 570q5 -9 21 -9q9 0 16.5 5t5.5 7t-6 -2q-7 -4 -16 -4q-12 0 -20 8.5t-8 18.5q0 11 5 19q4 5 3 6q-3 3 -9 -6t-6 -22q0 -23 14 -21zM43 574q22 0 22 30q0 22 -23 22q-7 0 -15 -9t-8 -20q0 -23 24 -23zM68 580q3 -2 6.5 6t3.5 16
q0 14 -9 23t-16 9q-2 0 -2 -1l10.5 -7.5t10.5 -24.5q0 -9 -3 -14.5t-1 -6.5zM147 570q5 -9 21 -9q9 0 16.5 5t5.5 7t-6 -2q-7 -4 -16 -4q-12 0 -20 8.5t-8 18.5q0 11 5 19q4 5 3 6q-3 3 -9 -6t-6 -22q0 -23 14 -21zM171 574q22 0 22 30q0 22 -23 22q-7 0 -15 -9t-8 -20
q0 -23 24 -23zM196 580q3 -2 6.5 6t3.5 16q0 14 -9 23t-16 9q-2 0 -2 -1l10.5 -7.5t10.5 -24.5q0 -9 -3 -14.5t-1 -6.5zM113 518q-9 2 -11 0l-12 -12q-6 -6 2 -24v-46q0 -10 1.5 -86.5t1.5 -66.5q0 -80 1 -44q-1 -28 -9 -36q-1 -1 -1 -4q0 -8 8 -17t19 -9q14 0 13 22
q-5 154 0 168v135q0 8 -6 14.5t-7 5.5zM71 422q0 -8 6 -8q7 0 4 5q-2 8 0 18q2 7 -2 7q-8 0 -8 -22zM74 191q0 -4 5 -3t3 4q-2 5 -2 13t2.5 28.5t2.5 31.5q0 12 -2 20q0 87 -1 104q-1 9 -5 9l-4 -6z" />
    <glyph glyph-name="ntilde" unicode="&#xf1;" 
d="M407 667v-667h-414v667h414zM168 596q13 0 30 -8.5t31 -8.5q16 0 33.5 9t17.5 23q0 12 -14 12q-7 0 -17.5 -10t-21.5 -10q-16 0 -30 8.5t-34 8.5q-34 0 -46 -19q-4 -7 -1 -15q4 -7 12 -7q12 0 19 8.5t21 8.5zM109 576q-1 -1 -1 -3q0 -9 23 -9q15 0 25 8t15 8q10 0 25 -9
t30 -9q33 0 33 8q0 1 -2 3t-9 0q-13 -3 -23 -3q-12 0 -27.5 9t-28.5 9q-9 0 -17.5 -8t-20.5 -8q-9 0 -14.5 3t-7.5 1zM237 620q1 -1 3 -1l8 5t19 5q13 0 17.5 -9.5t7.5 -9.5t3 4q0 22 -31 22q-12 0 -21.5 -6t-5.5 -10zM103 600q2 -1 3.5 3t3.5 6q7 7 5 9q-4 6 -12 -4
q-10 -13 0 -14zM76 188q12 7 13 29q2 18 -4 29v226q0 17 11 17q12 0 22.5 -9t7.5 -14q-2 -3 -10.5 -1.5t-8.5 -6.5q0 -11 10 -11h1q7 0 9 -3l140 -227q4 -7 1 -9q-4 -2 -4 -4q0 -4 8.5 -9t16.5 -5q32 0 46 13q5 5 5 7t-4 4t-4 5l5 232q1 7 2 15l-7 3q-1 1 -1 2q0 3 4.5 13
t4.5 12q0 21 -15 21q-8 0 -15 -7.5t-7 -15.5q0 -6 5.5 -7.5t5.5 -11.5v-174q0 -57 -1 -63q-1 -15 -10 -15q-18 0 -21 8.5t-5 17.5q-92 138 -153 258q-3 6 -10 6l-38 1q-22 1 -22 -21q0 -5 8 -8q5 -2 4 -25l-2 -114l-2 -121q0 -15 -6 -15q-8 0 -8 8q0 2 1 32v38q0 9 -4 11
q-5 1 -5 -5v-83q0 -21 16 -22zM257 187q3 1 3 5q0 7 -24 38v11q-24 32 -76 123q-40 70 -46 66q-3 -2 12.5 -25t13 -25t55.5 -98t62 -95zM358 478q-2 3 -4 5q-4 -1 -4 -6l-2 -186l-3 -8v-61q0 -4 4 -5q5 -2 5 4l3 52zM46 501q-5 0 -5 -18q0 5 0 -79q0 -26 -1 -60v-30
q1 -9 4 -9q5 0 5 99q0 -14 2 76q0 21 -5 21zM102 439q-5 0 -7 -29q-1 -21 1 -61q1 -49 1 -51q0 -96 4 -97q5 -1 6 2v23q-2 29 -1 62q1 43 0 71q-1 19 -2 30l-1 11q0 39 -1 39zM297 267q4 0 2 35q-2 74 -2 147q0 50 -3 50q-6 0 -6 -50q0 25 -1 -49q-1 -54 1 -87q2 -46 9 -46z
M167 465q-3 0 -3 -4q0 -7 12 -29q9 -16 37 -62q12 -19 23 -38l15 -15q4 6 -9 27zM348 202l-11 -13.5t-34 -13.5q-6 0 -19 3q-7 1 -7 -2q0 -9 25 -9q22 0 37 13q11 9 11 19q0 3 -2 3zM277 279l-10 21q-2 4 -6 3q-5 -1 -3 -4l10 -21q2 -4 6 -3t3 4zM291 254q0 -19 10 -19
q3 0 3 12t-4 13q-9 3 -9 -6z" />
    <glyph glyph-name="oacute" unicode="&#xf3;" 
d="M407 667v-667h-414v667h414zM348 341q0 103 -23 135q-27 37 -116 37q-84 0 -105 -17q-34 -28 -34 -135q0 -104 15 -128q24 -40 127 -40q80 0 103 20q33 28 33 128zM325 352q0 -91 -11 -110q-18 -30 -104 -30q-70 0 -91 19q-27 24 -27 106q0 110 15.5 129.5t104.5 19.5
q82 0 102 -33q11 -18 11 -101zM212 467h-54q-57 0 -56 -108q1 -57 6 -62q4 -1 6 4q-5 17 -3 57t7.5 65.5t39.5 30.5q5 1 56 1q40 0 55 -7q12 -6 12 9q0 10 -69 10zM294 434q-5 3 -5 0q-1 -3 2.5 -8t3.5 -24l-1 -122q0 -48 -68 -48q-4 0 -5 -2t3 -3q13 -3 31 1q37 8 46 29
q4 8 4 32v121q0 17 -11 24zM122 184q-8 3 -9 0q-1 -4 5 -6q39 -16 95 -16q121 0 137 62q1 5 -1 6q-3 1 -5 -3q-25 -54 -132 -54q-56 0 -90 11zM44 274q1 -3 5 -3q3 1 3 5q-5 45 -4 81q3 104 27 123q7 5 2 7q-4 3 -9 -2q-30 -37 -30 -127q0 -57 6 -84zM367 394q0 8 -3 8
q-4 -1 -4 -8q0 -79 -3 -114q0 -5 3 -6q3 0 4 4q3 14 3 116zM183 233q-10 0 -10 -3q0 -4 10 -4q11 0 11 4q0 3 -11 3zM60 236q-2 0 -2 -3q0 -6 6.5 -14.5t9.5 -4.5l-6.5 11t-7.5 11zM292 633q0 13 -9 13q-8 0 -12 -3q-17 -13 -33 -25q-49 -36 -49 -47t11 -11q10 0 53 34
q39 30 39 39zM280 595q4 3 1 6q-2 3 -5 1q-14 -12 -45 -37q-17 -13 -15 -16q6 -9 64 46zM204 600q3 2 0 4t-8 -1q-19 -12 -19 -19q0 -2 2 -4t7.5 5.5t17.5 14.5zM305 632q-5 0 -7 -3q-3 -3 0 -6q2 -3 8 3t-1 6z" />
    <glyph glyph-name="ograve" unicode="&#xf2;" 
d="M407 667v-667h-414v667h414zM348 341q0 103 -23 135q-27 37 -116 37q-84 0 -105 -17q-34 -28 -34 -135q0 -104 15 -128q24 -40 127 -40q80 0 103 20q33 28 33 128zM325 352q0 -91 -11 -110q-18 -30 -104 -30q-70 0 -91 19q-27 24 -27 106q0 110 15.5 129.5t104.5 19.5
q82 0 102 -33q11 -18 11 -101zM212 467h-54q-57 0 -56 -108q1 -57 6 -62q4 -1 6 4q-5 17 -3 57t7.5 65.5t39.5 30.5q5 1 56 1q40 0 55 -7q12 -6 12 9q0 10 -69 10zM294 434q-5 3 -5 0q-1 -3 2.5 -8t3.5 -24l-1 -122q0 -48 -68 -48q-4 0 -5 -2t3 -3q13 -3 31 1q37 8 46 29
q4 8 4 32v121q0 17 -11 24zM122 184q-8 3 -9 0q-1 -4 5 -6q39 -16 95 -16q121 0 137 62q1 5 -1 6q-3 1 -5 -3q-25 -54 -132 -54q-56 0 -90 11zM44 274q1 -3 5 -3q3 1 3 5q-5 45 -4 81q3 104 27 123q7 5 2 7q-4 3 -9 -2q-30 -37 -30 -127q0 -57 6 -84zM367 394q0 8 -3 8
q-4 -1 -4 -8q0 -79 -3 -114q0 -5 3 -6q3 0 4 4q3 14 3 116zM183 233q-10 0 -10 -3q0 -4 10 -4q11 0 11 4q0 3 -11 3zM60 236q-2 0 -2 -3q0 -6 6.5 -14.5t9.5 -4.5l-6.5 11t-7.5 11zM115 633q0 -9 71 -59q17 -12 22 -12q13 0 13 14q0 4 -3 7q-87 65 -91 65q-12 0 -12 -15z
M162 634q63 -47 66 -47q1 0 2 1q3 3 -64 52q-4 3 -7 1q-3 -3 3 -7zM101 629q0 -7 7 -14.5t11 -4.5q2 2 -4.5 8.5t-6.5 11t-3 3.5q-4 -1 -4 -4z" />
    <glyph glyph-name="ocircumflex" unicode="&#xf4;" 
d="M407 667v-667h-414v667h414zM348 341q0 103 -23 135q-27 37 -116 37q-84 0 -105 -17q-34 -28 -34 -135q0 -104 15 -128q24 -40 127 -40q80 0 103 20q33 28 33 128zM325 352q0 -91 -11 -110q-18 -30 -104 -30q-70 0 -91 19q-27 24 -27 106q0 110 15.5 129.5t104.5 19.5
q82 0 102 -33q11 -18 11 -101zM212 467h-54q-57 0 -56 -108q1 -57 6 -62q4 -1 6 4q-5 17 -3 57t7.5 65.5t39.5 30.5q5 1 56 1q40 0 55 -7q12 -6 12 9q0 10 -69 10zM294 434q-5 3 -5 0q-1 -3 2.5 -8t3.5 -24l-1 -122q0 -48 -68 -48q-4 0 -5 -2t3 -3q13 -3 31 1q37 8 46 29
q4 8 4 32v121q0 17 -11 24zM122 184q-8 3 -9 0q-1 -4 5 -6q39 -16 95 -16q121 0 137 62q1 5 -1 6q-3 1 -5 -3q-25 -54 -132 -54q-56 0 -90 11zM44 274q1 -3 5 -3q3 1 3 5q-5 45 -4 81q3 104 27 123q7 5 2 7q-4 3 -9 -2q-30 -37 -30 -127q0 -57 6 -84zM367 394q0 8 -3 8
q-4 -1 -4 -8q0 -79 -3 -114q0 -5 3 -6q3 0 4 4q3 14 3 116zM183 233q-10 0 -10 -3q0 -4 10 -4q11 0 11 4q0 3 -11 3zM60 236q-2 0 -2 -3q0 -6 6.5 -14.5t9.5 -4.5l-6.5 11t-7.5 11zM197 642l-4 -7l-75 -66q-4 -3 -4 -7q0 -14 16 -14q4 0 7 3l71 70l72 -65l4 -6t8 -2
q11 0 11 14q0 6 -9 14l-12 10q-26 22 -59 55q-3 5 -13 6q-9 1 -13 -5zM212 600q-1 -1 -1 -2t26 -26.5t27 -25.5q2 0 3 1t1 2q0 2 -26.5 28t-29.5 23zM206 593q4 4 1 7t-6 0l-50 -51q0 -1 1.5 -2.5t2.5 -1.5q3 0 51 48zM119 580q-1 4 -6 2q-13 -16 -13 -17l2 -2z" />
    <glyph glyph-name="odieresis" unicode="&#xf6;" 
d="M407 667v-667h-414v667h414zM348 341q0 103 -23 135q-27 37 -116 37q-84 0 -105 -17q-34 -28 -34 -135q0 -104 15 -128q24 -40 127 -40q80 0 103 20q33 28 33 128zM325 352q0 -91 -11 -110q-18 -30 -104 -30q-70 0 -91 19q-27 24 -27 106q0 110 15.5 129.5t104.5 19.5
q82 0 102 -33q11 -18 11 -101zM212 467h-54q-57 0 -56 -108q1 -57 6 -62q4 -1 6 4q-5 17 -3 57t7.5 65.5t39.5 30.5q5 1 56 1q40 0 55 -7q12 -6 12 9q0 10 -69 10zM294 434q-5 3 -5 0q-1 -3 2.5 -8t3.5 -24l-1 -122q0 -48 -68 -48q-4 0 -5 -2t3 -3q13 -3 31 1q37 8 46 29
q4 8 4 32v121q0 17 -11 24zM122 184q-8 3 -9 0q-1 -4 5 -6q39 -16 95 -16q121 0 137 62q1 5 -1 6q-3 1 -5 -3q-25 -54 -132 -54q-56 0 -90 11zM44 274q1 -3 5 -3q3 1 3 5q-5 45 -4 81q3 104 27 123q7 5 2 7q-4 3 -9 -2q-30 -37 -30 -127q0 -57 6 -84zM367 394q0 8 -3 8
q-4 -1 -4 -8q0 -79 -3 -114q0 -5 3 -6q3 0 4 4q3 14 3 116zM183 233q-10 0 -10 -3q0 -4 10 -4q11 0 11 4q0 3 -11 3zM60 236q-2 0 -2 -3q0 -6 6.5 -14.5t9.5 -4.5l-6.5 11t-7.5 11zM116 570q5 -9 21 -9q9 0 16.5 5t5.5 7t-6 -2q-7 -4 -16 -4q-12 0 -20 8.5t-8 18.5
q0 11 5 19q4 5 3 6q-3 3 -9 -6t-6 -22q0 -23 14 -21zM140 574q22 0 22 30q0 22 -23 22q-7 0 -15 -9t-8 -20q0 -23 24 -23zM165 580q3 -2 6.5 6t3.5 16q0 14 -9 23t-16 9q-2 0 -2 -1l10.5 -7.5t10.5 -24.5q0 -9 -3 -14.5t-1 -6.5zM244 570q5 -9 21 -9q9 0 16.5 5t5.5 7t-6 -2
q-7 -4 -16 -4q-12 0 -20 8.5t-8 18.5q0 11 5 19q4 5 3 6q-3 3 -9 -6t-6 -22q0 -23 14 -21zM268 574q22 0 22 30q0 22 -23 22q-7 0 -15 -9t-8 -20q0 -23 24 -23zM293 580q3 -2 6.5 6t3.5 16q0 14 -9 23t-16 9q-2 0 -2 -1l10.5 -7.5t10.5 -24.5q0 -9 -3 -14.5t-1 -6.5z" />
    <glyph glyph-name="otilde" unicode="&#xf5;" 
d="M407 667v-667h-414v667h414zM348 341q0 103 -23 135q-27 37 -116 37q-84 0 -105 -17q-34 -28 -34 -135q0 -104 15 -128q24 -40 127 -40q80 0 103 20q33 28 33 128zM325 352q0 -91 -11 -110q-18 -30 -104 -30q-70 0 -91 19q-27 24 -27 106q0 110 15.5 129.5t104.5 19.5
q82 0 102 -33q11 -18 11 -101zM212 467h-54q-57 0 -56 -108q1 -57 6 -62q4 -1 6 4q-5 17 -3 57t7.5 65.5t39.5 30.5q5 1 56 1q40 0 55 -7q12 -6 12 9q0 10 -69 10zM294 434q-5 3 -5 0q-1 -3 2.5 -8t3.5 -24l-1 -122q0 -48 -68 -48q-4 0 -5 -2t3 -3q13 -3 31 1q37 8 46 29
q4 8 4 32v121q0 17 -11 24zM122 184q-8 3 -9 0q-1 -4 5 -6q39 -16 95 -16q121 0 137 62q1 5 -1 6q-3 1 -5 -3q-25 -54 -132 -54q-56 0 -90 11zM44 274q1 -3 5 -3q3 1 3 5q-5 45 -4 81q3 104 27 123q7 5 2 7q-4 3 -9 -2q-30 -37 -30 -127q0 -57 6 -84zM367 394q0 8 -3 8
q-4 -1 -4 -8q0 -79 -3 -114q0 -5 3 -6q3 0 4 4q3 14 3 116zM183 233q-10 0 -10 -3q0 -4 10 -4q11 0 11 4q0 3 -11 3zM60 236q-2 0 -2 -3q0 -6 6.5 -14.5t9.5 -4.5l-6.5 11t-7.5 11zM172 596q13 0 30 -8.5t31 -8.5q16 0 33.5 9t17.5 23q0 12 -14 12q-7 0 -17.5 -10t-21.5 -10
q-16 0 -30 8.5t-34 8.5q-34 0 -46 -19q-4 -7 -1 -15q4 -7 12 -7q12 0 19 8.5t21 8.5zM113 576q-1 -1 -1 -3q0 -9 23 -9q15 0 25 8t15 8q10 0 25 -9t30 -9q33 0 33 8q0 1 -2 3t-9 0q-13 -3 -23 -3q-12 0 -27.5 9t-28.5 9q-9 0 -17.5 -8t-20.5 -8q-9 0 -14.5 3t-7.5 1z
M241 620q1 -1 3 -1l8 5t19 5q13 0 17.5 -9.5t7.5 -9.5t3 4q0 22 -31 22q-12 0 -21.5 -6t-5.5 -10zM107 600q2 -1 3.5 3t3.5 6q7 7 5 9q-4 6 -12 -4q-10 -13 0 -14z" />
    <glyph glyph-name="uacute" unicode="&#xfa;" horiz-adv-x="415" 
d="M422 667v-667h-429v667h429zM87 514q-23 0 -23 -20q0 -5 4.5 -8.5t4.5 -9.5v-183q0 -58 28 -77t115 -19q69 0 88 8q40 15 40 76v111l5 4v86q5 -2 5 6q0 28 -21 28q-7 0 -15.5 -8t-8.5 -14q0 -3 7.5 -6.5t7.5 -16.5q0 -10 -2.5 -68t-2.5 -66q0 -82 -10 -95
q-16 -23 -98 -23q-54 0 -77 8q-34 11 -34 43v189h4v38q0 17 -17 17zM298 478l-3 -186q0 -16 -4 -29l-4 -13q0 -3 3 -4q16 -8 16 48v183q0 8 -4 8t-4 -7zM46 274q-1 -48 32 -76q4 -4 7 0q2 3 -4 9q-25 22 -25 63v167q0 8 -3 6q-4 -2 -4 -7zM115 457q-2 0 -2 -41
q0 -7 -1 -48.5t-1 -52.5t-1 -35q0 -13 1 -17t4 -4q6 0 6 52q0 8 1 53v54q0 39 -7 39zM364 483q-4 0 -4 -73q0 -22 -2 -82q0 -17 4 -17q6 0 6 77q0 95 -4 95zM251 174q0 -6 14 -6q50 0 82 36q20 22 20 67q0 24 -7 24q-2 0 -3 -29q-1 -33 -11 -47q-17 -23 -41 -33
q-15 -5 -38 -7q-16 -2 -16 -5zM94 190q-7 -10 31 -19q33 -8 33 3q0 7 -14 7q-18 0 -32.5 5.5t-13.5 5.5q-2 0 -4 -2zM196 174q-27 1 -27 -3q0 -6 26 -8q29 -2 29 6q0 5 -8 5h-20zM54 492q-3 0 -4 -9q-1 -8 0 -17q2 -9 6 -9q12 0 3 10q-4 4 -3 14.5t-2 10.5zM118 493
q-6 0 -6 -16q0 -8 3 -8q6 0 6 8q0 16 -3 16zM303 633q0 13 -9 13q-8 0 -12 -3q-17 -13 -33 -25q-49 -36 -49 -47t11 -11q10 0 53 34q39 30 39 39zM291 595q4 3 1 6q-2 3 -5 1q-14 -12 -45 -37q-17 -13 -15 -16q6 -9 64 46zM215 600q3 2 0 4t-8 -1q-19 -12 -19 -19q0 -2 2 -4
t7.5 5.5t17.5 14.5zM316 632q-5 0 -7 -3q-3 -3 0 -6q2 -3 8 3t-1 6z" />
    <glyph glyph-name="ugrave" unicode="&#xf9;" horiz-adv-x="415" 
d="M422 667v-667h-429v667h429zM87 514q-23 0 -23 -20q0 -5 4.5 -8.5t4.5 -9.5v-183q0 -58 28 -77t115 -19q69 0 88 8q40 15 40 76v111l5 4v86q5 -2 5 6q0 28 -21 28q-7 0 -15.5 -8t-8.5 -14q0 -3 7.5 -6.5t7.5 -16.5q0 -10 -2.5 -68t-2.5 -66q0 -82 -10 -95
q-16 -23 -98 -23q-54 0 -77 8q-34 11 -34 43v189h4v38q0 17 -17 17zM298 478l-3 -186q0 -16 -4 -29l-4 -13q0 -3 3 -4q16 -8 16 48v183q0 8 -4 8t-4 -7zM46 274q-1 -48 32 -76q4 -4 7 0q2 3 -4 9q-25 22 -25 63v167q0 8 -3 6q-4 -2 -4 -7zM115 457q-2 0 -2 -41
q0 -7 -1 -48.5t-1 -52.5t-1 -35q0 -13 1 -17t4 -4q6 0 6 52q0 8 1 53v54q0 39 -7 39zM364 483q-4 0 -4 -73q0 -22 -2 -82q0 -17 4 -17q6 0 6 77q0 95 -4 95zM251 174q0 -6 14 -6q50 0 82 36q20 22 20 67q0 24 -7 24q-2 0 -3 -29q-1 -33 -11 -47q-17 -23 -41 -33
q-15 -5 -38 -7q-16 -2 -16 -5zM94 190q-7 -10 31 -19q33 -8 33 3q0 7 -14 7q-18 0 -32.5 5.5t-13.5 5.5q-2 0 -4 -2zM196 174q-27 1 -27 -3q0 -6 26 -8q29 -2 29 6q0 5 -8 5h-20zM54 492q-3 0 -4 -9q-1 -8 0 -17q2 -9 6 -9q12 0 3 10q-4 4 -3 14.5t-2 10.5zM118 493
q-6 0 -6 -16q0 -8 3 -8q6 0 6 8q0 16 -3 16zM115 633q0 -9 71 -59q17 -12 22 -12q13 0 13 14q0 4 -3 7q-87 65 -91 65q-12 0 -12 -15zM162 634q63 -47 66 -47q1 0 2 1q3 3 -64 52q-4 3 -7 1q-3 -3 3 -7zM102 629q0 -7 6.5 -14.5t10.5 -4.5q2 2 -4.5 8.5t-6.5 11t-3 3.5
t-3 -4z" />
    <glyph glyph-name="ucircumflex" unicode="&#xfb;" horiz-adv-x="415" 
d="M-7 667h429v-667h-429v667zM87 514q-23 0 -23 -20q0 -5 4.5 -8.5t4.5 -9.5v-183q0 -58 28 -77t115 -19q69 0 88 8q40 15 40 76v111l5 4v86q5 -2 5 6q0 28 -21 28q-7 0 -15.5 -8t-8.5 -14q0 -3 7.5 -6.5t7.5 -16.5q0 -10 -2.5 -68t-2.5 -66q0 -82 -10 -95q-16 -23 -98 -23
q-54 0 -77 8q-34 11 -34 43v189h4v38q0 17 -17 17zM298 478l-3 -186q0 -16 -4 -29l-4 -13q0 -3 3 -4q16 -8 16 48v183q0 8 -4 8t-4 -7zM46 274q-1 -48 32 -76q4 -4 7 0q2 3 -4 9q-25 22 -25 63v167q0 8 -3 6q-4 -2 -4 -7zM115 457q-2 0 -2 -41q0 -7 -1 -48.5t-1 -52.5
t-1 -35q0 -13 1 -17t4 -4q6 0 6 52q0 8 1 53v54q0 39 -7 39zM364 483q-4 0 -4 -73q0 -22 -2 -82q0 -17 4 -17q6 0 6 77q0 95 -4 95zM251 174q0 -6 14 -6q50 0 82 36q20 22 20 67q0 24 -7 24q-2 0 -3 -29q-1 -33 -11 -47q-17 -23 -41 -33q-15 -5 -38 -7q-16 -2 -16 -5z
M94 190q-7 -10 31 -19q33 -8 33 3q0 7 -14 7q-18 0 -32.5 5.5t-13.5 5.5q-2 0 -4 -2zM196 174q-27 1 -27 -3q0 -6 26 -8q29 -2 29 6q0 5 -8 5h-20zM54 492q-3 0 -4 -9q-1 -8 0 -17q2 -9 6 -9q12 0 3 10q-4 4 -3 14.5t-2 10.5zM118 493q-6 0 -6 -16q0 -8 3 -8q6 0 6 8
q0 16 -3 16zM197 642l-4 -7l-75 -66q-4 -3 -4 -7q0 -14 16 -14q4 0 7 3l71 70l72 -65l4 -6t8 -2q11 0 11 14q0 6 -9 14l-12 10q-26 22 -59 55q-3 6 -15 6q-8 0 -11 -5zM212 600q-1 -1 -1 -2t26 -26.5t27 -25.5q2 0 3 1t1 2q0 2 -26.5 28t-29.5 23zM206 593q4 4 1 7t-6 0
l-50 -51q0 -1 1.5 -2.5t2.5 -1.5q3 0 51 48zM119 580q-1 4 -6 2q-13 -16 -13 -17l2 -2z" />
    <glyph glyph-name="udieresis" unicode="&#xfc;" horiz-adv-x="415" 
d="M422 667v-667h-429v667h429zM87 514q-23 0 -23 -20q0 -5 4.5 -8.5t4.5 -9.5v-183q0 -58 28 -77t115 -19q69 0 88 8q40 15 40 76v111l5 4v86q5 -2 5 6q0 28 -21 28q-7 0 -15.5 -8t-8.5 -14q0 -3 7.5 -6.5t7.5 -16.5q0 -10 -2.5 -68t-2.5 -66q0 -82 -10 -95
q-16 -23 -98 -23q-54 0 -77 8q-34 11 -34 43v189h4v38q0 17 -17 17zM298 478l-3 -186q0 -16 -4 -29l-4 -13q0 -3 3 -4q16 -8 16 48v183q0 8 -4 8t-4 -7zM46 274q-1 -48 32 -76q4 -4 7 0q2 3 -4 9q-25 22 -25 63v167q0 8 -3 6q-4 -2 -4 -7zM115 457q-2 0 -2 -41
q0 -7 -1 -48.5t-1 -52.5t-1 -35q0 -13 1 -17t4 -4q6 0 6 52q0 8 1 53v54q0 39 -7 39zM364 483q-4 0 -4 -73q0 -22 -2 -82q0 -17 4 -17q6 0 6 77q0 95 -4 95zM251 174q0 -6 14 -6q50 0 82 36q20 22 20 67q0 24 -7 24q-2 0 -3 -29q-1 -33 -11 -47q-17 -23 -41 -33
q-15 -5 -38 -7q-16 -2 -16 -5zM94 190q-7 -10 31 -19q33 -8 33 3q0 7 -14 7q-18 0 -32.5 5.5t-13.5 5.5q-2 0 -4 -2zM196 174q-27 1 -27 -3q0 -6 26 -8q29 -2 29 6q0 5 -8 5h-20zM54 492q-3 0 -4 -9q-1 -8 0 -17q2 -9 6 -9q12 0 3 10q-4 4 -3 14.5t-2 10.5zM118 493
q-6 0 -6 -16q0 -8 3 -8q6 0 6 8q0 16 -3 16zM116 570q5 -9 21 -9q9 0 16.5 5t5.5 7t-6 -2q-7 -4 -16 -4q-12 0 -20 8.5t-8 18.5q0 11 5 19q4 5 3 6q-3 3 -9 -6t-6 -22q0 -23 14 -21zM140 574q22 0 22 30q0 22 -23 22q-7 0 -15 -9t-8 -20q0 -23 24 -23zM165 580q3 -2 6.5 6
t3.5 16q0 14 -9 23t-16 9q-2 0 -2 -1l10.5 -7.5t10.5 -24.5q0 -9 -3 -14.5t-1 -6.5zM244 570q5 -9 21 -9q9 0 16.5 5t5.5 7t-6 -2q-7 -4 -16 -4q-12 0 -20 8.5t-8 18.5q0 11 5 19q4 5 3 6q-3 3 -9 -6t-6 -22q0 -23 14 -21zM268 574q22 0 22 30q0 22 -23 22q-7 0 -15 -9
t-8 -20q0 -23 24 -23zM293 580q3 -2 6.5 6t3.5 16q0 14 -9 23t-16 9q-2 0 -2 -1l10.5 -7.5t10.5 -24.5q0 -9 -3 -14.5t-1 -6.5z" />
    <glyph glyph-name="dagger" unicode="&#x2020;" 
d="M33 0v667h334v-667h-334zM40 7h320v653h-320v-653z" />
    <glyph glyph-name="degree" unicode="&#xb0;" 
d="M33 0v667h334v-667h-334zM40 7h320v653h-320v-653z" />
    <glyph glyph-name="cent" unicode="&#xa2;" horiz-adv-x="335" 
d="M342 667v-667h-349v667h349zM175 179q7 0 7 10q1 4 -2 45l4 14q48 2 61 7q27 10 27 42q0 22 -10 22q-13 0 -13 -13q0 -22 -7 -27q-13 -10 -67 -9q5 5 8 14q-2 14 -5 164q48 0 55.5 -5.5t8.5 -15t2 -18.5q3 -12 12 -12q14 0 14 18q0 37 -16 46q-21 12 -76 12q0 6 3 19.5
t3 17.5q0 10 -15 10q-13 0 -10 -47q-58 -1 -75 -18q-11 -11 -11 -89q0 -86 17 -102q14 -14 75 -16q0 -96 -1 -40q0 -29 11 -29zM165 270q-42 0 -58.5 10.5t-13.5 96.5q1 29 2 37q2 15 8.5 23t56.5 11q1 -50 5 -178zM279 412q-2 0 -3 -6l-1 -6q-6 -8 -2 -10q6 -3 9 7
q5 15 -3 15zM198 281q0 -4 12 -4q24 0 24 10q0 4 -2 4q-1 0 -6.5 -3.5t-9.5 -3.5q-18 0 -18 -3zM190 235q0 -4 19 -4q42 0 61 18q16 15 9 20q-1 1 -15 -12q-16 -17 -45 -17t-29 -5zM288 296q0 9 -7 9q-1 0 -1 -11q0 -6 -2 -12q-1 -5 0 -5q10 -4 10 19zM169 532q0 5 -8 4
t-13 -6t-5 -14q0 -8 5 -8q2 0 2.5 5.5t3.5 9.5t9 5.5t6 3.5zM201 432q8 1 22 -4q3 -3 3.5 -10t4.5 -7t4 9q-1 9 -5 14.5t-29 5.5q-4 0 -4 -4t4 -4zM141 431q8 0 8 4t-6 4q-37 0 -37 -34q0 -70 1 -90q0 -5 4 -5q3 0 3 5v91q0 25 27 25zM149 289q-9 0 -26 4q-11 3 -11 -1
q0 -11 39 -11q5 0 4 4t-6 4zM155 233q0 4 -18 4q-65 0 -72 54q-2 16 -2 132q0 58 58 58q17 0 17 4q0 3 -15 3q-69 0 -69 -67q0 -127 2 -139q9 -55 83 -55q16 0 16 6zM193 420q-5 0 -5 -32q0 -80 6 -80q4 0 4 91q0 21 -5 21zM149 215v-28q0 -4 4 -4t4 4v28q0 6 -4 5
q-4 0 -4 -5z" />
    <glyph glyph-name="sterling" unicode="&#xa3;" 
d="M-7 667h414v-667h-414v667zM30 330q0 -12 11 -14h27q38 0 38 -26q0 -34 -6 -46q-7 -16 -35 -31q-10 -6 -2 -18q10 -12 20 -3q88 0 231 -5q47 -4 47 9q0 14 -10 14q-79 -2 -234 3q-8 1 -8 7l6 8.5t11 25.5q6 25 6 65q2 -3 16 -8q31 -3 63 0q25 2 25 16t-21 14h-57
q-7 2 -7.5 -2t-5.5 -4q-18 0 -18 5q0 11 6 17q1 -2 2.5 -7.5t3.5 -4.5l2 2q0 2 -2 24q-2 28 -2 62q0 37 30 46q11 4 51 4q68 0 86 -17q6 -6 8 -32q1 -21 16 -21q16 0 16 28t-22 49q-26 24 -67 24h-75q-45 0 -61 -38q-13 -31 -10 -100q0 -7 -6 -15t-6 -9q0 -2 2 -4t6 3t7 10
q-1 -23 -15 -23q-5 0 -21 2t-24 2q-22 0 -22 -12zM153 229q0 -5 18 -6h79q40 -1 80 -3q22 0 22 5q0 9 -99 9q-100 0 -100 -5zM88 175q4 -4 92 -8q82 -4 150 -4q4 0 5 4q0 5 -7 5l-224 7q-20 1 -16 -4zM57 222q1 -2 3 -2q9 0 21 17.5t12 43.5q0 25 -17 25q-10 0 -26 1
q-12 1 -15 0q-5 -1 -5 -5q0 -6 18 -6h27q8 -2 8 -14q0 -30 -13 -44.5t-13 -15.5zM149 374q0 -7 5 -7q4 0 4 7q0 64 8 75.5t56 11.5t61 -8q5 -4 10 -23q1 -6 5 -5q3 0 3 5q0 26 -18.5 34t-68.5 8q-35 0 -48 -7q-19 -10 -18 -40zM98 372q-3 22 -1 46q1 15 -3 15q-14 0 -7 -59
q1 -7 7 -7q2 3 4 5zM91 440q0 -3 5 -1t5 6q0 9 4.5 20.5t4.5 13.5t-2 3q-6 3 -11.5 -12t-5.5 -30zM240 296q0 7 -14 5q-20 -3 -50 -3q-22 0 -16 1q-4 -1 -4 -6q0 -6 30 -6q54 0 54 9zM147 295q-6 0 -7 -15v-22q0 -1 -4 -21q-2 -8 2 -9q13 -3 13 41q0 26 -4 26zM165 353
q0 -6 24 -6q10 0 11 5q0 5 -5 5q-30 0 -29 2q-1 -2 -1 -6z" />
    <glyph glyph-name="section" unicode="&#xa7;" 
d="M33 0v667h334v-667h-334zM40 7h320v653h-320v-653z" />
    <glyph glyph-name="bullet" unicode="&#x2022;" horiz-adv-x="268" 
d="M134 429q-31 0 -52.5 -21.5t-21.5 -52.5t21.5 -52.5t52.5 -21.5t52.5 21.5t21.5 52.5t-21.5 52.5t-52.5 21.5zM-7 667h282v-667h-282v667z" />
    <glyph glyph-name="paragraph" unicode="&#xb6;" 
d="M33 0v667h334v-667h-334zM40 7h320v653h-320v-653z" />
    <glyph glyph-name="germandbls" unicode="&#xdf;" 
d="M33 0v667h334v-667h-334zM40 7h320v653h-320v-653z" />
    <glyph glyph-name="registered" unicode="&#xae;" 
d="M33 0v667h334v-667h-334zM40 7h320v653h-320v-653z" />
    <glyph glyph-name="copyright" unicode="&#xa9;" 
d="M33 0v667h334v-667h-334zM40 7h320v653h-320v-653z" />
    <glyph glyph-name="trademark" unicode="&#x2122;" 
d="M33 0v667h334v-667h-334zM40 7h320v653h-320v-653z" />
    <glyph glyph-name="acute" unicode="&#xb4;" 
d="M-7 667h414v-667h-414v667zM283 633q0 13 -9 13q-8 0 -12 -3q-17 -13 -33 -25q-49 -36 -49 -47t11 -11q10 0 53 34q39 30 39 39zM271 595q4 3 1 6q-2 3 -5 1q-14 -12 -45 -37q-17 -13 -15 -16q6 -9 64 46zM195 600q3 2 0 4t-8 -1q-19 -12 -19 -19q0 -2 2 -4t7.5 5.5
t17.5 14.5zM296 632q-5 0 -7 -3q-3 -3 0 -6q2 -3 8 3t-1 6z" />
    <glyph glyph-name="dieresis" unicode="&#xa8;" 
d="M407 667v-667h-414v667h414zM116 570q5 -9 21 -9q9 0 16.5 5t5.5 7t-6 -2q-7 -4 -16 -4q-12 0 -20 8.5t-8 18.5q0 11 5 19q4 5 3 6q-3 3 -9 -6t-6 -22q0 -23 14 -21zM140 574q22 0 22 30q0 22 -23 22q-7 0 -15 -9t-8 -20q0 -23 24 -23zM165 580q3 -2 6.5 6t3.5 16
q0 14 -9 23t-16 9q-2 0 -2 -1l10.5 -7.5t10.5 -24.5q0 -9 -3 -14.5t-1 -6.5zM244 570q5 -9 21 -9q9 0 16.5 5t5.5 7t-6 -2q-7 -4 -16 -4q-12 0 -20 8.5t-8 18.5q0 11 5 19q4 5 3 6q-3 3 -9 -6t-6 -22q0 -23 14 -21zM268 574q22 0 22 30q0 22 -23 22q-7 0 -15 -9t-8 -20
q0 -23 24 -23zM293 580q3 -2 6.5 6t3.5 16q0 14 -9 23t-16 9q-2 0 -2 -1l10.5 -7.5t10.5 -24.5q0 -9 -3 -14.5t-1 -6.5z" />
    <glyph glyph-name="AE" unicode="&#xc6;" horiz-adv-x="569" 
d="M-7 667h583v-667h-583v667zM223 519q-86 2 -114 -17.5t-28 -77.5v-201l-9 -6q1 -26 23 -26q15 0 15 17v111q0 4 -5 8.5t-5 10.5q0 4 1 5q0 1 3 0t5 -1q4 0 8 1.5t8 1.5l127 -2q14 0 14 -13q4 -63 4 -68q0 -44 -8 -55q-3 -4 0 -11t10 -5l14 4q85 3 180 3q14 0 19 -6.5
t9 -6.5q15 -1 15 23q0 13 -18 13h-186q-9 -1 -13.5 3t-3.5 10q5 38 0 100q-1 14 11 14q4 0 7 -4.5t7 -2.5l8 3l114 -1q6 -2 11 -2q23 0 23 18q0 13 -30 13h-105q-17 0 -25 -4t-9 -4q-7 -1 -10 4.5t-1 13.5q9 32 6 79q-3 36 2 36t10.5 -4t8.5 -4q4 0 10 4l157 1q22 -8 22 10
q0 14 -24 16q5 0 -36 0zM270 380q0 -5 -4 -9t-8 -4l-136 2q-14 0 -14 16v60q0 32 32 42q20 6 76 6q53 0 53 -4zM313 465l156 -1q32 0 44 12q4 4 2 8t-5 0t-18.5 -8.5t-20.5 -2.5q3 1 4 5q-64 1 -144 0q-18 -2 -18 -13zM276 179q0 -6 156 -6q-2 0 54 -1q11 -1 11 4
q0 9 -184 9q-37 0 -37 -6zM477 343q-1 1 -8 -5q-10 -8 -26 -8h-115q-7 7 -10 -5q-1 -3 -5 -4q-5 0 -8 5v-71q0 -4 4 -5q5 -1 5 6l1 59q7 4 61 3q66 -2 67 -2q12 1 23.5 9t11.5 15q0 2 -1 3zM321 394q-7 0 -6 -6t6 -6q-3 0 40 -2q39 -1 61 0q32 1 32 6t-113 3q-10 0 -15 2.5z
M318 243q0 -5 40 -9q58 3 126 3q19 -6 19 0q0 7 -20 7q-165 0 -165 -1zM314 458q-9 0 -9 -28q0 -8 4 -28q1 -5 3 -4q3 1 3 6zM54 441q3 -69 3 -126v-29q1 -26 7 -26q3 0 3 46q0 33 -1.5 88t-1.5 51q0 41 26 64q5 4 3 7q-1 3 -5 0q-36 -31 -34 -75zM123 384q5 0 5 37
q0 35 -5 35t-5 -36t5 -36zM130 468q1 -3 5 -3q-2 0 22 4.5t55 4.5l27 -2q10 0 10 4q0 8 -57 8q-26 0 -45 -5.5t-17 -10.5zM154 329q42 2 42 3q0 4 -50 4q-24 0 -24 -4q0 -5 32 -3zM62 213q1 0 3 19q0 4 2 6q10 10 -3 10q-6 0 -7 -17q0 -18 5 -18zM126 212q5 0 5 32
q0 46 -7 46q-4 0 -4 -32q0 -46 6 -46zM109 178q0 5 -11 3.5t-14 1.5t-6 3q-4 -1 -4 -6q0 -6 18 -7q17 0 17 5z" />
    <glyph glyph-name="Oslash" unicode="&#xd8;" 
d="M-7 667h414v-667h-414v667zM209 512q-89 0 -117 -29q-22 -23 -22 -122q0 -140 34 -150q-17 -23 -17 -29q0 -14 16 -14q6 0 11 8q7 12 14 23q40 -8 85 -8q85 0 109 25q27 29 26 133q-1 62 -2 75q-6 44 -30 64q18 27 18 33q0 5 -5 8q-13 9 -19 0l-18 -29q-36 12 -83 12z
M121 231q-19 -1 -26 65q-4 41 -3 80q1 41 4 57q4 26 14 37q16 17 102 17q31 0 68 -9zM143 221l160 247q21 -16 20 -124q0 -83 -11 -100q-19 -32 -102 -32q-36 0 -67 9zM222 472h-65q-48 0 -52 -60q-4 -54 1 -109q1 -8 4 -11t6 -1q3 1 1 4q-4 8 -4 58q1 49 5 76q4 23 17 27
t94 4q8 0 8 6t-15 6zM58 250q4 2 2 19q-4 40 -4 95q0 65 13 101q10 24 11 23q-2 2 -4 2q-11 0 -21 -29q-12 -37 -12 -103q0 -12 6 -58q6 -52 9 -50zM292 429q-2 -2 -2 -3t3 -6.5t3 -13.5l-3 -125q-1 -37 -41 -45q-3 -1 -22 -1q-14 0 -14 -4t39 -3q50 1 50 61v121
q0 13 -5 17.5t-8 1.5zM146 180q-4 -4 18 -11t49 -7q71 0 110 25q29 18 29 38q0 5 -3 6q-2 1 -10 -13q-10 -18 -32 -29q-34 -16 -95 -16q-25 0 -43 5l-18 5q-3 0 -5 -3zM173 233q6 -4 49 65q25 41 48 82q5 8 0 11q-4 2 -56 -84q-42 -70 -42 -72q0 -1 1 -2zM143 293
q6 -5 67 96q33 55 33 59q0 1 -1 2q-6 3 -42 -56q-59 -99 -57 -101zM367 344q0 62 -6 62q-3 0 -3 -64v-80q9 -5 9 82zM65 227q-2 -1 -2 -4q0 -6 5.5 -12.5t9.5 -3.5q3 2 0 5l-6 6q-5 10 -7 9z" />
    <glyph glyph-name="plusminus" unicode="&#xb1;" 
d="M33 0v667h334v-667h-334zM40 7h320v653h-320v-653z" />
    <glyph glyph-name="yen" unicode="&#xa5;" 
d="M407 667v-667h-414v667h414zM210 266q58 0 73.5 2.5t15.5 15.5q0 11 -25 11l-57 -1q44 79 98 182q5 11 10 14.5t6 7.5q2 17 -20 17q-14 0 -17 -12q-7 -24 -9 -27q-21 -39 -41 -78q-30 -54 -39 -52q-3 1 -5 -4q-2 -6 3 -7l12 -2q-1 -7 -6.5 -7t-5.5 -1v-21q0 -4 -4 -5
t-5 2q-10 58 -80 197q-8 16 -9 17q-4 5 -15 5q-8 0 -16.5 -8t-6.5 -13q2 -4 9.5 -7t11.5 -11q31 -63 87 -182q2 -5 -12 -7q-74 0 -54 1q-13 -1 -13 -11q0 -12 22 -13q19 0 39 1q26 -2 26 -15v-27q0 -4 -4 -13.5t-4 -17.5q0 -22 17 -22q21 0 20 35zM125 502q-2 -1 -2 -3
q0 -1 22 -49q18 -40 23 -38t-15.5 47.5t-27.5 42.5zM210 376q4 -2 36 52q28 47 28 53q0 2 -2 3q-3 2 -32 -49q-32 -57 -30 -59zM306 254q0 5 -13 4q-28 -3 -48 -3q-15 0 -17 -2t-2 -5q0 -6 17 -6q16 2 32 3q31 2 31 9zM168 230q0 15 -4.5 21t-18.5 5q3 0 -19 0q-6 0 -6 -4
t12 -5h19q7 -1 7 -9v-43q0 -4 4 -3q5 0 5 5zM153 308q-8 20 -41 89q-39 81 -44 79q-5 -3 1 -16l73 -152q3 -7 8 -7q5 1 3 7zM250 307q93 163 93 181q0 2 -1 3q-3 1 -6 -9q-3 -13 -12 -17l-82 -155q-3 -6 2 -7q4 -1 6 4z" />
    <glyph glyph-name="mu" unicode="&#xb5;" 
d="M33 0v667h334v-667h-334zM40 7h320v653h-320v-653z" />
    <glyph glyph-name="mu" unicode="&#x3bc;" 
d="M33 0v667h334v-667h-334zM40 7h320v653h-320v-653z" />
    <glyph glyph-name="ordfeminine" unicode="&#xaa;" 
d="M33 0v667h334v-667h-334zM40 7h320v653h-320v-653z" />
    <glyph glyph-name="ordmasculine" unicode="&#xba;" 
d="M33 0v667h334v-667h-334zM40 7h320v653h-320v-653z" />
    <glyph glyph-name="ae" unicode="&#xe6;" horiz-adv-x="569" 
d="M-7 667h583v-667h-583v667zM223 519q-86 2 -114 -17.5t-28 -77.5v-201l-9 -6q1 -26 23 -26q15 0 15 17v111q0 4 -5 8.5t-5 10.5q0 4 1 5q0 1 3 0t5 -1q4 0 8 1.5t8 1.5l127 -2q14 0 14 -13q4 -63 4 -68q0 -44 -8 -55q-3 -4 0 -11t10 -5l14 4q85 3 180 3q14 0 19 -6.5
t9 -6.5q15 -1 15 23q0 13 -18 13h-186q-9 -1 -13.5 3t-3.5 10q5 38 0 100q-1 14 11 14q4 0 7 -4.5t7 -2.5l8 3l114 -1q6 -2 11 -2q23 0 23 18q0 13 -30 13h-105q-17 0 -25 -4t-9 -4q-7 -1 -10 4.5t-1 13.5q9 32 6 79q-3 36 2 36t10.5 -4t8.5 -4q4 0 10 4l157 1q22 -8 22 10
q0 14 -24 16q5 0 -36 0zM270 380q0 -5 -4 -9t-8 -4l-136 2q-14 0 -14 16v60q0 32 32 42q20 6 76 6q53 0 53 -4zM313 465l156 -1q32 0 44 12q4 4 2 8t-5 0t-18.5 -8.5t-20.5 -2.5q3 1 4 5q-64 1 -144 0q-18 -2 -18 -13zM276 179q0 -6 156 -6q-2 0 54 -1q11 -1 11 4
q0 9 -184 9q-37 0 -37 -6zM477 343q-1 1 -8 -5q-10 -8 -26 -8h-115q-7 7 -10 -5q-1 -3 -5 -4q-5 0 -8 5v-71q0 -4 4 -5q5 -1 5 6l1 59q7 4 61 3q66 -2 67 -2q12 1 23.5 9t11.5 15q0 2 -1 3zM321 394q-7 0 -6 -6t6 -6q-3 0 40 -2q39 -1 61 0q32 1 32 6t-113 3q-10 0 -15 2.5z
M318 243q0 -5 40 -9q58 3 126 3q19 -6 19 0q0 7 -20 7q-165 0 -165 -1zM314 458q-9 0 -9 -28q0 -8 4 -28q1 -5 3 -4q3 1 3 6zM54 441q3 -69 3 -126v-29q1 -26 7 -26q3 0 3 46q0 33 -1.5 88t-1.5 51q0 41 26 64q5 4 3 7q-1 3 -5 0q-36 -31 -34 -75zM123 384q5 0 5 37
q0 35 -5 35t-5 -36t5 -36zM130 468q1 -3 5 -3q-2 0 22 4.5t55 4.5l27 -2q10 0 10 4q0 8 -57 8q-26 0 -45 -5.5t-17 -10.5zM154 329q42 2 42 3q0 4 -50 4q-24 0 -24 -4q0 -5 32 -3zM62 213q1 0 3 19q0 4 2 6q10 10 -3 10q-6 0 -7 -17q0 -18 5 -18zM126 212q5 0 5 32
q0 46 -7 46q-4 0 -4 -32q0 -46 6 -46zM109 178q0 5 -11 3.5t-14 1.5t-6 3q-4 -1 -4 -6q0 -6 18 -7q17 0 17 5z" />
    <glyph glyph-name="oslash" unicode="&#xf8;" 
d="M-7 667h414v-667h-414v667zM209 512q-89 0 -117 -29q-22 -23 -22 -122q0 -140 34 -150q-17 -23 -17 -29q0 -14 16 -14q6 0 11 8q7 12 14 23q40 -8 85 -8q85 0 109 25q27 29 26 133q-1 62 -2 75q-6 44 -30 64q18 27 18 33q0 5 -5 8q-13 9 -19 0l-18 -29q-36 12 -83 12z
M121 231q-19 -1 -26 65q-4 41 -3 80q1 41 4 57q4 26 14 37q16 17 102 17q31 0 68 -9zM143 221l160 247q21 -16 20 -124q0 -83 -11 -100q-19 -32 -102 -32q-36 0 -67 9zM222 472h-65q-48 0 -52 -60q-4 -54 1 -109q1 -8 4 -11t6 -1q3 1 1 4q-4 8 -4 58q1 49 5 76q4 23 17 27
t94 4q8 0 8 6t-15 6zM58 250q4 2 2 19q-4 40 -4 95q0 65 13 101q10 24 11 23q-2 2 -4 2q-11 0 -21 -29q-12 -37 -12 -103q0 -12 6 -58q6 -52 9 -50zM292 429q-2 -2 -2 -3t3 -6.5t3 -13.5l-3 -125q-1 -37 -41 -45q-3 -1 -22 -1q-14 0 -14 -4t39 -3q50 1 50 61v121
q0 13 -5 17.5t-8 1.5zM146 180q-4 -4 18 -11t49 -7q71 0 110 25q29 18 29 38q0 5 -3 6q-2 1 -10 -13q-10 -18 -32 -29q-34 -16 -95 -16q-25 0 -43 5l-18 5q-3 0 -5 -3zM173 233q6 -4 49 65q25 41 48 82q5 8 0 11q-4 2 -56 -84q-42 -70 -42 -72q0 -1 1 -2zM143 293
q6 -5 67 96q33 55 33 59q0 1 -1 2q-6 3 -42 -56q-59 -99 -57 -101zM367 344q0 62 -6 62q-3 0 -3 -64v-80q9 -5 9 82zM65 227q-2 -1 -2 -4q0 -6 5.5 -12.5t9.5 -3.5q3 2 0 5l-6 6q-5 10 -7 9z" />
    <glyph glyph-name="questiondown" unicode="&#xbf;" horiz-adv-x="380" 
d="M387 667v-667h-394v667h394zM306 267q0 23 -18 23q-10 0 -15 -15q-4 -13 0 -21q2 -5 2 -10q0 -27 -85 -27q-58 0 -74 9q-20 10 -20 49q0 47 14 58q9 7 46 15t40 11q7 7 8 34q1 26 -4 34q-3 4 -10 5t-7 -3v-33q-1 -16 -9 -23q-3 -3 -30 -7.5t-40 -12.5q-17 -10 -23 -22
q-7 -15 -7 -54q0 -51 12 -66q21 -25 98 -25t96 19q26 26 26 62zM98 183q11 0 2 5q-28 16 -36 46q-2 10 -2 39q0 66 21 84q13 11 83 26q5 1 5 7q0 5 -5 3q-34 -9 -68 -17q-27 -8 -37.5 -30t-10.5 -85q0 -38 20 -61q15 -18 28 -17zM302 217q0 -4 2 -6q18 7 18 39q0 17 -5 17
q-3 0 -3 -16.5t-12 -33.5zM272 300l-12 -2q-8 -4 -8 -20q0 -24 -7.5 -30.5t-35.5 -6.5l-64 -1q-8 0 -8 -5q0 -3 7 -5q23 -5 57 -3q38 2 55 12q8 5 8 12q0 3 -2 11.5t-2 14.5q0 14 14 18q5 1 4 4q-2 2 -6 1zM222 428q-8 0 -8 -54q0 -27 -49 -37q-52 -11 -55 -22
q-6 -22 -3 -52q1 -8 3 -8q3 -1 3 2l5 46q2 16 50 24.5t53 20.5q3 8 5 43q1 37 -4 37zM202 530q-11 0 -18 -4.5t-4 -7.5q2 -2 7.5 2t14.5 4q12 0 20 -8.5t8 -18.5q0 -11 -4.5 -17.5t-3.5 -7.5q4 -4 9.5 4.5t5.5 23.5q0 30 -35 30zM199 517q-22 0 -22 -30q0 -22 23 -22
q7 0 15 9t8 20q0 23 -24 23zM174 511q-3 2 -7 -6t-4 -16q0 -14 8 -23.5t16 -9.5q3 0 4 2l-9 7q-12 8 -12 25q0 9 4 16q2 4 0 5z" />
    <glyph glyph-name="exclamdown" unicode="&#xa1;" horiz-adv-x="213" 
d="M220 667v-667h-227v667h227zM91 193q0 11 3 11q6 0 6 -5q0 -6 -3 -9q6 -2 10 -1q7 4 13 13q5 7 -2 24v46l-1.5 46t-1.5 78q0 40 -8 41q-13 1 -18.5 -7t-2.5 -16l-2 -204q0 -10 7 -17zM136 261q0 8 -4 6q-4 -1 -4 -6t-1 -15v-11q1 -4 4 -4q5 0 5 30zM134 435q-7 10 -7 -3
v-143q0 -9 5 -9q4 -1 4 6q0 -1 1 27v49q0 66 -3 73zM69 411q-2 -14 -3 -43q-2 -37 3 -37q6 0 6 5l1 74q0 5 -3 5q-3 1 -4 -4zM104 529q-8 0 -16 -5t-6 -7t7.5 2t14.5 4q12 0 20 -8.5t8 -18.5q0 -11 -4.5 -17.5t-3.5 -7.5q3 -3 9 6t6 22q0 30 -35 30zM101 516q-22 0 -22 -30
q0 -22 23 -22q7 0 15 9t8 20q0 23 -24 23zM76 510q-1 1 -3 2q-7 0 -7 -24q0 -14 7.5 -24t14.5 -10q4 0 5 3q0 1 -9 7q-12 8 -12 25q0 9 3 14t1 7z" />
    <glyph glyph-name="logicalnot" unicode="&#xac;" 
d="M33 0v667h334v-667h-334zM40 7h320v653h-320v-653z" />
    <glyph glyph-name="florin" unicode="&#x192;" horiz-adv-x="340" 
d="M-7 667h354v-667h-354v667zM132 432q0 -9 5 -9t5 8v49q0 7 -4 6q-5 0 -5 -6zM135 499q1 -4 5 -2q4 1 4 8.5t4.5 19.5t4.5 14q0 1 -1 2q-6 4 -12.5 -13t-4.5 -29zM194 425q0 -4 5 -4q6 0 6 7q0 66 5 79t37 13q20 0 20 -14q0 -7 3 -7q4 0 4 12q0 18 -36 18q-24 0 -32 -7.5
t-9 -29.5zM207 414q0 -8 16 -8q17 -2 17 5q0 5 -18 5q-15 2 -15 -2zM261 366q-1 2 -2 2q1 0 -9.5 -5t-27.5 -5q-20 0 -20 -6q0 -4 11 -4q16 0 33.5 6t14.5 12zM187 347q2 -32 -1 -64q-4 -38 -4 -36q0 -8 5 -8q11 0 11 90q0 22 -8 22q-2 0 -3 -4zM62 134q0 -5 16 -5
q21 0 35 13q10 10 21 169q2 35 -2 42t-23 7q-24 0 -24 -3q0 -4 17 -4q24 0 22 -33q-9 -161 -20 -172t-26.5 -11.5t-15.5 -2.5zM63 89q-3 0 -4 -3q0 -3 2 -4q8 -3 31 -3q25 1 29.5 5.5t3.5 7.5q-1 4 -6 2q-29 -9 -56 -5zM90 119q-43 0 -47 12q-1 1 0 24q0 14 -12 14
q-16 0 -16 -28q0 -24 14 -34t51 -10q56 0 79 54q16 39 17 116q1 56 1 111q3 0 6 -3t10 -3q64 -2 64 13q0 11 -24 11q-10 0 -48 -3q-13 -1 -13 6q0 10 8 18l3 75q1 29 9 39q11 14 47 14q33 0 42 -13q5 -7 5 -25q1 -13 10 -13q13 0 13 28q0 45 -72 45q-59 0 -75 -39
q-8 -21 -8 -98v-21q-2 -12 -12 -12q-48 0 -45 0q-16 -1 -16 -10q0 -13 22 -13q36 0 43 -4q3 -2 3 -20q0 -46 -12 -185q-4 -46 -47 -46z" />
    <glyph glyph-name="guillemotleft" unicode="&#xab;" horiz-adv-x="310" 
d="M317 667v-667h-324v667h324zM135 335q1 -3 6 -7.5t5 -5.5q0 -2 -3 -4t-3 -3q1 -1 4 -1q12 -1 36.5 -38t24.5 -48q0 -3 -2 -3q4 -5 11 -5q31 0 31 24q0 19 -9 15q-1 0 2 -8q2 -6 -1.5 -11t-10.5 -3l-12 4l-13 20q10 5 8 7l-44 63q-3 4 -12 3t-11 1q-2 3 7 16.5t14 15.5
q2 1 2.5 -4.5t1.5 -5.5l3 3l76 96q4 5 4 10q0 11 -11 11q-6 0 -10 -6q-21 -25 -41 -50q-31 -37 -36 -56q-4 2 -8 2q-10 0 -10 -17q0 -7 1 -15zM230 261q5 5 -2 12q-22 32 -44 65q-9 12 -13 11q-5 -2 -5 -4t14.5 -23.5l29 -43t20.5 -17.5zM224 415q-2 -3 2 -4t7 3
q15 22 14 23q-5 4 -23 -22zM51 345q-2 -6 3 -8q5 -3 6 2q4 12 7 5q10 -22 10 -21q0 -4 -2 -10l63 -76q3 -4 6 -4q4 0 8 5.5l4 5.5q7 0 7 -6t-10 -7.5t-10 -5.5q0 -9 15 -9q13 0 13 17q0 7 -14 24l-81 98q-2 2 -2 3l7 2.5t5 13.5l74 79q3 3 7 4.5t4 5.5q0 15 -13 15
q-10 0 -28 -21q-41 -47 -62 -65q-9 -7 -9 -8q1 -2 12 1q10 3 11 0l-11 -8q-14 -10 -20 -32zM158 432q-60 -60 -60 -74q0 -17 10 -17q2 0 3 2q0 1 -2.5 6t-2.5 8q0 2 2 4l56 65q4 5 1 8q-3 2 -7 -2zM65 309q-5 -3 29 -43.5t37 -37.5q2 2 -37 50q-27 32 -29 31zM119 226
q-1 -1 7 -17q2 -3 7 -2q5 0 3 4q-12 19 -17 15z" />
    <glyph glyph-name="guillemotright" unicode="&#xbb;" horiz-adv-x="309" 
d="M316 0h-323v667h323v-667zM167 359q-1 3 -6 7.5t-5 5.5q0 2 3 4t3 3q-1 1 -4 1q-12 1 -36.5 38t-24.5 48q0 3 2 3q-4 5 -11 5q-31 0 -31 -24q0 -19 9 -15q1 0 -2 8q-2 6 1.5 11t10.5 3l12 -4l13 -20q-10 -5 -8 -7l44 -63q3 -4 12 -3t11 -1q2 -3 -7 -16.5t-14 -15.5
q-2 -1 -2.5 4.5t-1.5 5.5l-3 -3l-74 -96q-5 -7 -4 -14q2 -6 8 -7q7 -2 13 6l40 50q29 36 35 56q4 -2 8 -2q10 0 10 17q0 7 -1 15zM72 433q-5 -5 2 -12q22 -32 44 -65q9 -12 13 -11q5 2 5 4t-14.5 23.5l-29 43t-20.5 17.5zM78 281q2 3 -2 4t-7 -3q-15 -22 -14 -23q5 -4 23 22
zM251 349q2 6 -3 8q-5 3 -6 -2q-4 -12 -7 -5q-10 22 -10 21q0 4 2 10l-63 76q-3 4 -6 4q-4 0 -8 -5.5l-4 -5.5q-7 0 -7 6q0 7 10 8.5t10 4.5q0 9 -15 9q-13 0 -13 -17q0 -7 14 -24l81 -98q2 -2 2 -3l-7 -2.5t-5 -13.5l-74 -79q-3 -3 -7 -4.5t-4 -5.5q0 -15 13 -15
q10 0 28 21q41 47 62 65q9 7 9 8q-1 2 -12 -1q-10 -3 -11 0l12.5 9t18.5 31zM144 262q60 60 60 74q0 17 -10 17q-2 0 -3 -2q0 -1 2.5 -6t2.5 -8q0 -2 -2 -4l-56 -65q-4 -5 -1 -8q3 -2 7 2zM237 385q5 3 -29 43.5t-37 37.5q-2 -2 37 -50q27 -32 29 -31zM183 468q1 1 -7 17
q-2 3 -7 2q-5 0 -3 -4q12 -19 17 -15z" />
    <glyph glyph-name="ellipsis" unicode="&#x2026;" horiz-adv-x="1000" 
d="M165 179q9 0 16.5 5t5.5 7t-6 -2q-7 -4 -16 -4q-12 0 -20 8.5t-8 18.5q0 11 5 19q4 5 3 6q-3 3 -9 -6t-6 -22q0 -30 35 -30zM168 192q22 0 22 30q0 22 -23 22q-7 0 -15 -9t-8 -20q0 -23 24 -23zM193 198q3 -2 6.5 6t3.5 16q0 15 -9 25q-8 7 -15 7q-2 0 -3 -1l10.5 -7.5
t10.5 -24.5q0 -9 -3 -14.5t-1 -6.5zM498 179q9 0 16.5 5t5.5 7t-6 -2q-7 -4 -16 -4q-12 0 -20 8.5t-8 18.5q0 11 5 19q4 5 3 6q-3 3 -9 -6t-6 -22q0 -30 35 -30zM501 192q22 0 22 30q0 22 -23 22q-7 0 -15 -9t-8 -20q0 -23 24 -23zM526 198q3 -2 6.5 6t3.5 16q0 15 -9 25
q-8 7 -15 7q-2 0 -3 -1l10.5 -7.5t10.5 -24.5q0 -9 -3 -14.5t-1 -6.5zM831 179q9 0 16.5 5t5.5 7t-6 -2q-7 -4 -16 -4q-12 0 -20 8.5t-8 18.5q0 11 5 19q4 5 3 6q-3 3 -9 -6t-6 -22q0 -30 35 -30zM834 192q22 0 22 30q0 22 -23 22q-7 0 -15 -9t-8 -20q0 -23 24 -23zM859 198
q3 -2 6.5 6t3.5 16q0 15 -9 25q-8 7 -15 7q-2 0 -3 -1l10.5 -7.5t10.5 -24.5q0 -9 -3 -14.5t-1 -6.5zM-7 667h1014v-667h-1014v667z" />
    <glyph glyph-name="nonbreakingspace" unicode="&#xa0;" horiz-adv-x="185" 
d="M-7 667h199v-667h-199v667z" />
    <glyph glyph-name="Agrave" unicode="&#xc0;" 
d="M407 667v-667h-414v667h414zM115 633q0 -9 71 -59q17 -12 22 -12q13 0 13 14q0 4 -3 7q-87 65 -91 65q-12 0 -12 -15zM162 634q63 -47 66 -47q1 0 2 1q3 3 -64 52q-4 3 -7 1q-3 -3 3 -7zM102 629q0 -7 6.5 -14.5t10.5 -4.5q2 2 -4.5 8.5t-6.5 11t-3 3.5t-3 -4zM246 488
q-7 21 -39 21q-31 0 -39 -21q-32 -91 -108 -280q-2 -6 -2 -11q0 -19 15 -19q13 0 17 14l15 52q3 12 31 12h133q22 0 26 -13l14 -46q6 -19 18 -19q22 0 12 30zM207 488q12 0 18.5 -13t4.5 -15q-1 -2 -3 -2q-1 0 -5.5 7t-7.5 7q-8 0 -2 -16q2 -5 9.5 -8.5t9.5 -8.5l38 -107
q1 -8 2 -24q1 -7 6 -7q2 0 2 6t2 6l4 -30q-138 -2 -167 0q25 61 46 126q13 41 16 41t2 -5t4 -5q4 0 8 11t0 11q-3 0 -3.5 -3.5t-4.5 -3.5q-2 0 -2 4q0 9 6.5 19t16.5 10zM139 463q-48 -121 -96 -247q0 -10 4 -12q5 -2 5.5 4.5t3.5 19.5q65 159 92 232q4 11 -2 11q-4 0 -7 -8
zM290 429q-2 7 -7 5q-5 -1 -3 -8q4 -14 64 -195l6 -24q3 -10 7 -10q9 0 2 26q-29 86 -69 206zM125 243q-5 0 -13.5 -19.5t-8.5 -29.5q0 -3 1 -4q5 -2 14 18q8 17 17 20q6 2 47 2q60 0 85 -2q8 -1 9.5 -18t10.5 -17q8 0 5 20q-3 18 -8.5 24t-24.5 6h-134zM217 424l29 -99
q0 -1 2 -14q1 -7 5 -7t2 8q-3 7 -1 7q10 0 5 10q-6 8 -18 44t-14 51q-1 8 -6 8q-6 0 -4 -8zM195 418q4 10 -4 10q-3 0 -5 -6q-34 -86 -34 -99q0 -3 2 -4q4 -1 20 42q11 28 21 57zM226 305q-38 -1 -38 -8q0 -3 51 -3q5 0 5 4q0 8 -18 7zM162 501q-4 0 -7 -6q-3 -7 1 -7t7 7
q3 6 -1 6zM258 482l12 -33q2 -5 8 -4q5 1 3 7l-11 30q-2 6 -8 6q-6 -1 -4 -6z" />
    <glyph glyph-name="Atilde" unicode="&#xc3;" 
d="M407 667v-667h-414v667h414zM175 596q13 0 30 -8.5t31 -8.5q16 0 33.5 9t17.5 23q0 12 -14 12q-7 0 -17.5 -10t-21.5 -10q-16 0 -30 8.5t-34 8.5q-34 0 -46 -19q-4 -7 -1 -15q4 -7 12 -7q12 0 19 8.5t21 8.5zM116 576q-1 -1 -1 -3q0 -9 23 -9q15 0 25 8t15 8q10 0 25 -9
t30 -9q33 0 33 8q0 1 -2 3t-9 0q-13 -3 -23 -3q-12 0 -27.5 9t-28.5 9q-9 0 -17.5 -8t-20.5 -8q-9 0 -14.5 3t-7.5 1zM244 620q1 -1 3 -1l8 5t19 5q13 0 17.5 -9.5t7.5 -9.5t3 4q0 22 -31 22q-12 0 -21.5 -6t-5.5 -10zM110 600q2 -1 3.5 3t3.5 6q7 7 5 9q-4 6 -12 -4
q-10 -13 0 -14zM246 488q-7 21 -39 21q-31 0 -39 -21q-32 -91 -108 -280q-2 -6 -2 -11q0 -19 15 -19q13 0 17 14l15 52q3 12 31 12h133q22 0 26 -13l14 -46q6 -19 18 -19q22 0 12 30zM207 488q12 0 18.5 -13t4.5 -15q-1 -2 -3 -2q-1 0 -5.5 7t-7.5 7q-8 0 -2 -16
q2 -5 9.5 -8.5t9.5 -8.5l38 -107q1 -8 2 -24q1 -7 6 -7q2 0 2 6t2 6l4 -30q-138 -2 -167 0q25 61 46 126q13 41 16 41t2 -5t4 -5q4 0 8 11t0 11q-3 0 -3.5 -3.5t-4.5 -3.5q-2 0 -2 4q0 9 6.5 19t16.5 10zM139 463q-48 -121 -96 -247q0 -10 4 -12q5 -2 5.5 4.5t3.5 19.5
q65 159 92 232q4 11 -2 11q-4 0 -7 -8zM290 429q-2 7 -7 5q-5 -1 -3 -8q4 -14 64 -195l6 -24q3 -10 7 -10q9 0 2 26q-29 86 -69 206zM125 243q-5 0 -13.5 -19.5t-8.5 -29.5q0 -3 1 -4q5 -2 14 18q8 17 17 20q6 2 47 2q60 0 85 -2q8 -1 9.5 -18t10.5 -17q8 0 5 20
q-3 18 -8.5 24t-24.5 6h-134zM217 424l29 -99q0 -1 2 -14q1 -7 5 -7t2 8q-3 7 -1 7q10 0 5 10q-6 8 -18 44t-14 51q-1 8 -6 8q-6 0 -4 -8zM195 418q4 10 -4 10q-3 0 -5 -6q-34 -86 -34 -99q0 -3 2 -4q4 -1 20 42q11 28 21 57zM226 305q-38 -1 -38 -8q0 -3 51 -3q5 0 5 4
q0 8 -18 7zM162 501q-4 0 -7 -6q-3 -7 1 -7t7 7q3 6 -1 6zM258 482l12 -33q2 -5 8 -4q5 1 3 7l-11 30q-2 6 -8 6q-6 -1 -4 -6z" />
    <glyph glyph-name="Otilde" unicode="&#xd5;" 
d="M407 667v-667h-414v667h414zM348 341q0 103 -23 135q-27 37 -116 37q-84 0 -105 -17q-34 -28 -34 -135q0 -104 15 -128q24 -40 127 -40q80 0 103 20q33 28 33 128zM325 352q0 -91 -11 -110q-18 -30 -104 -30q-70 0 -91 19q-27 24 -27 106q0 110 15.5 129.5t104.5 19.5
q82 0 102 -33q11 -18 11 -101zM212 467h-54q-57 0 -56 -108q1 -57 6 -62q4 -1 6 4q-5 17 -3 57t7.5 65.5t39.5 30.5q5 1 56 1q40 0 55 -7q12 -6 12 9q0 10 -69 10zM294 434q-5 3 -5 0q-1 -3 2.5 -8t3.5 -24l-1 -122q0 -48 -68 -48q-4 0 -5 -2t3 -3q13 -3 31 1q37 8 46 29
q4 8 4 32v121q0 17 -11 24zM122 184q-8 3 -9 0q-1 -4 5 -6q39 -16 95 -16q121 0 137 62q1 5 -1 6q-3 1 -5 -3q-25 -54 -132 -54q-56 0 -90 11zM44 274q1 -3 5 -3q3 1 3 5q-5 45 -4 81q3 104 27 123q7 5 2 7q-4 3 -9 -2q-30 -37 -30 -127q0 -57 6 -84zM367 394q0 8 -3 8
q-4 -1 -4 -8q0 -79 -3 -114q0 -5 3 -6q3 0 4 4q3 14 3 116zM183 233q-10 0 -10 -3q0 -4 10 -4q11 0 11 4q0 3 -11 3zM60 236q-2 0 -2 -3q0 -6 6.5 -14.5t9.5 -4.5l-6.5 11t-7.5 11zM172 596q13 0 30 -8.5t31 -8.5q16 0 33.5 9t17.5 23q0 12 -14 12q-7 0 -17.5 -10t-21.5 -10
q-16 0 -30 8.5t-34 8.5q-34 0 -46 -19q-4 -7 -1 -15q4 -7 12 -7q12 0 19 8.5t21 8.5zM113 576q-1 -1 -1 -3q0 -9 23 -9q15 0 25 8t15 8q10 0 25 -9t30 -9q33 0 33 8q0 1 -2 3t-9 0q-13 -3 -23 -3q-12 0 -27.5 9t-28.5 9q-9 0 -17.5 -8t-20.5 -8q-9 0 -14.5 3t-7.5 1z
M241 620q1 -1 3 -1l8 5t19 5q13 0 17.5 -9.5t7.5 -9.5t3 4q0 22 -31 22q-12 0 -21.5 -6t-5.5 -10zM107 600q2 -1 3.5 3t3.5 6q7 7 5 9q-4 6 -12 -4q-10 -13 0 -14z" />
    <glyph glyph-name="OE" unicode="&#x152;" horiz-adv-x="609" 
d="M-7 667h623v-667h-623v667zM171 517q-52 0 -66 -35q-9 -24 -9 -114q0 -106 11 -130q23 -55 122 -55q45 0 62 8.5t19 8.5q6 0 8 -8.5t5 -8.5t5 8t6 8q44 -1 181 -1q14 0 19 -6.5t9 -6.5q3 0 9 7t6 16q0 13 -18 13h-186q-10 -1 -14.5 3.5t-2.5 9.5q2 15 0 100q0 14 14 14
q1 0 3.5 -4t5.5 -4q4 0 10 4l114 -1q20 0 25 1q9 3 9 15t-40 12l-95 -1q-16 0 -24 -3t-10 -3t-4 -1h-3q-6 0 -6 118q0 17 10 16q5 -1 10 -5t8 -4q5 0 11 5l150 1q11 0 23 -1q6 1 6 11q0 14 -24 16q5 0 -36 0q-46 0 -168 -8q-7 0 -7 -6q0 -2 1.5 -8.5t1.5 -10.5q0 -3 -1 -6
q-23 36 -67 36h-83zM222 494q62 0 81 -27q11 -16 11 -61l1 -108q0 -45 -6 -58q-17 -30 -80 -30q-54 0 -76 13q-31 17 -31 69v121q0 49 13 62q18 19 87 19zM133 322l4 -2q4 1 4 6q0 103 16 124q10 14 63 14q51 0 63 -22q9 -18 9 -94q0 -75 -10.5 -95.5t-53.5 -20.5
q-12 0 -34.5 3.5t-32.5 3.5q-4 0 -5 -3q-3 -12 62 -12q62 0 76 28q10 20 10 116q0 65 -10 82q-16 26 -76 26q-49 0 -63 -9q-19 -12 -20 -55zM86 474q-12 10 -14 -135q-1 -92 12 -118q29 -58 142 -58q81 0 78 19q0 2 -2 2q4 0 -18 -6t-54 -6q-146 0 -146 94v115q0 29 3 68
q2 23 -1 25zM362 471q0 -6 156 -6q33 0 44 11q4 4 2 8t-5 0q-8 -10 -32 -10q-9 0 -15 3q-2 1 -61.5 2.5t-70.5 0.5q-18 -2 -18 -9zM526 343q-2 1 -8 -5q-9 -8 -26 -8h-115l-4 3q-2 1 -5.5 -5t-7.5 -6q-2 0 -6 4v-71q0 -4 4 -4q5 -1 5 5l1 59q7 4 61 3l67 -2q14 1 24.5 9
t10.5 15q0 2 -1 3zM370 394q-7 -3 -6 -7q1 -5 6 -5q-5 0 40 -1q39 -1 61 0q31 1 31 5q0 5 -21 4q-47 -1 -93 -3q-9 0 -13.5 3.5zM367 243q2 -9 52 -9q21 0 69 2q39 2 45 1q19 -3 19 0q0 7 -20 7zM325 179q0 -6 14 -5q34 3 38 3q14 0 46.5 -4t57.5 -4q65 0 65 7q0 9 -184 9
q-37 0 -37 -6zM360 458q-6 0 -6 -28q0 -11 5 -29q5 -10 5 -1q0 58 -4 58z" />
    <glyph glyph-name="oe" unicode="&#x153;" horiz-adv-x="609" 
d="M-7 667h623v-667h-623v667zM171 517q-52 0 -66 -35q-9 -24 -9 -114q0 -106 11 -130q23 -55 122 -55q45 0 62 8.5t19 8.5q6 0 8 -8.5t5 -8.5t5 8t6 8q44 -1 181 -1q14 0 19 -6.5t9 -6.5q3 0 9 7t6 16q0 13 -18 13h-186q-10 -1 -14.5 3.5t-2.5 9.5q2 15 0 100q0 14 14 14
q1 0 3.5 -4t5.5 -4q4 0 10 4l114 -1q20 0 25 1q9 3 9 15t-40 12l-95 -1q-16 0 -24 -3t-10 -3t-4 -1h-3q-6 0 -6 118q0 17 10 16q5 -1 10 -5t8 -4q5 0 11 5l150 1q11 0 23 -1q6 1 6 11q0 14 -24 16q5 0 -36 0q-46 0 -168 -8q-7 0 -7 -6q0 -2 1.5 -8.5t1.5 -10.5q0 -3 -1 -6
q-23 36 -67 36h-83zM222 494q62 0 81 -27q11 -16 11 -61l1 -108q0 -45 -6 -58q-17 -30 -80 -30q-54 0 -76 13q-31 17 -31 69v121q0 49 13 62q18 19 87 19zM133 322l4 -2q4 1 4 6q0 103 16 124q10 14 63 14q51 0 63 -22q9 -18 9 -94q0 -75 -10.5 -95.5t-53.5 -20.5
q-12 0 -34.5 3.5t-32.5 3.5q-4 0 -5 -3q-3 -12 62 -12q62 0 76 28q10 20 10 116q0 65 -10 82q-16 26 -76 26q-49 0 -63 -9q-19 -12 -20 -55zM86 474q-12 10 -14 -135q-1 -92 12 -118q29 -58 142 -58q81 0 78 19q0 2 -2 2q4 0 -18 -6t-54 -6q-146 0 -146 94v115q0 29 3 68
q2 23 -1 25zM362 471q0 -6 156 -6q33 0 44 11q4 4 2 8t-5 0q-8 -10 -32 -10q-9 0 -15 3q-2 1 -61.5 2.5t-70.5 0.5q-18 -2 -18 -9zM526 343q-2 1 -8 -5q-9 -8 -26 -8h-115l-4 3q-2 1 -5.5 -5t-7.5 -6q-2 0 -6 4v-71q0 -4 4 -4q5 -1 5 5l1 59q7 4 61 3l67 -2q14 1 24.5 9
t10.5 15q0 2 -1 3zM370 394q-7 -3 -6 -7q1 -5 6 -5q-5 0 40 -1q39 -1 61 0q31 1 31 5q0 5 -21 4q-47 -1 -93 -3q-9 0 -13.5 3.5zM367 243q2 -9 52 -9q21 0 69 2q39 2 45 1q19 -3 19 0q0 7 -20 7zM325 179q0 -6 14 -5q34 3 38 3q14 0 46.5 -4t57.5 -4q65 0 65 7q0 9 -184 9
q-37 0 -37 -6zM360 458q-6 0 -6 -28q0 -11 5 -29q5 -10 5 -1q0 58 -4 58z" />
    <glyph glyph-name="endash" unicode="&#x2013;" horiz-adv-x="393" 
d="M-7 667h407v-667h-407v667zM62 321l224 -1q11 0 11 3q0 2 -7 3q-39 4 -228 4q-10 0 -10 -4q0 -5 10 -5zM325 342q1 -4 7 1.5t6 15.5q0 14 -13 14l-265 1q-12 0 -12 -21q0 -12 11 -11q50 2 143 2q86 0 100 -2q12 -1 13 1t2 5q5 4 8 -6z" />
    <glyph glyph-name="emdash" unicode="&#x2014;" horiz-adv-x="585" 
d="M-7 667h599v-667h-599v667zM75 321l406 -1q9 0 11 2q2 3 -2 3q-116 5 -414 5q-9 0 -9 -5q0 -4 8 -4zM520 342q1 -4 7 1.5t6 14.5q0 15 -13 15l-447 1q-12 0 -12 -21q0 -12 11 -11q50 2 234 2q177 0 191 -2q12 -1 13 1t2 5q6 4 8 -6z" />
    <glyph glyph-name="quotedblleft" unicode="&#x201c;" horiz-adv-x="200" 
d="M207 667v-667h-214v667h214zM81 516q-43 -6 -43 -45q0 -20 17 -20q29 0 29 19q0 14 -24 16q-2 2 -2 5q0 10 23 12q5 0 5 7q-3 3 -5 6zM89 463q-9 -21 -36 -20q-4 0 -5 -1q-1 -2 4.5 -3.5t12.5 -1.5q28 0 28 24q0 12 -4 2zM72 495q0 -2 9 -2q6 -1 10 4t0 6q3 0 -5 -4
q-14 -2 -14 -4zM34 464q-7 44 29 55q1 3 -3 3q-32 -11 -32 -43q0 -7 2 -15q1 -4 3 -4q0 2 1 4zM159 466q-2 -25 -36 -19q-2 1 -4 1q-1 0 0 -1q1 -2 3 -3q7 -4 17 -4q28 0 25 23q0 4 -1.5 6.5t-2.5 1.5q-1 0 -1 -5zM145 492q16 -5 16 8q-1 1 -1 3q-2 -2 -5 -4.5t-5.5 -2.5
t-4.5 -2q-2 -1 0 -2zM105 488q7 21 28 31q3 1 3 2q1 1 -1 1h-5q-24 -9 -28 -32v-4t1 -1q1 0 2 3zM151 516q-43 -6 -43 -45q0 -20 17 -20q29 0 29 19q0 14 -24 16q-2 2 -2 5q0 10 23 12q5 0 5 7q-3 3 -5 6z" />
    <glyph glyph-name="quotedblright" unicode="&#x201d;" horiz-adv-x="200" 
d="M207 667v-667h-214v667h214zM108 453q43 6 43 45q0 20 -17 20q-29 0 -29 -19q0 -14 24 -16q2 -2 2 -5q0 -10 -23 -12q-5 0 -5 -7q3 -3 5 -6zM157 505q7 -44 -29 -55q-1 -2 3 -3q31 5 31 43q0 8 -2 16q-1 2 -2 3q0 1 -1 0v-4zM38 453q43 6 43 45q0 20 -17 20
q-29 0 -29 -19q0 -14 24 -16q2 -2 2 -5q0 -10 -23 -12q-5 0 -5 -7q3 -3 5 -6zM78 517q10 -9 10 -24q0 -18 -12.5 -33t-30.5 -14q-2 -1 -1 -4q18 -3 33.5 13.5t15.5 36.5q0 16 -11 28q-3 3 -5 1t1 -4z" />
    <glyph glyph-name="quoteleft" unicode="&#x2018;" horiz-adv-x="140" 
d="M147 667v-667h-154v667h154zM89 516q-43 -6 -43 -45q0 -19 21 -20q25 -2 25 19q0 14 -24 16q-2 2 -2 5q0 10 23 12q5 0 5 7q-3 3 -5 6zM97 463q-7 -18 -23 -18q-5 0 -13 2q-4 1 -5 0q-1 -2 3 -4q10 -3 18 -3q24 0 24 21q0 12 -4 2zM79 495q0 -2 9 -2q7 0 11 5q3 4 -1 5
q3 0 -5 -4q-14 -2 -14 -4zM42 464q-7 44 29 55q1 3 -3 3q-32 -11 -32 -44q0 -7 2 -15q1 -4 3 -3q2 0 1 4z" />
    <glyph glyph-name="quoteright" unicode="&#x2019;" horiz-adv-x="140" 
d="M147 667v-667h-154v667h154zM46 453q43 6 43 45q0 20 -17 20q-29 0 -29 -19q0 -14 24 -16q2 -2 2 -5q0 -12 -23 -12q-5 0 -5 -7q3 -3 5 -6zM86 517q10 -9 10 -25q0 -18 -13 -32.5t-32 -13.5q-3 -1 0 -4q19 -3 35 13t16 37q0 16 -12 28q-3 3 -5 1t1 -4z" />
    <glyph glyph-name="divide" unicode="&#xf7;" 
d="M33 0v667h334v-667h-334zM40 7h320v653h-320v-653z" />
    <glyph glyph-name="ydieresis" unicode="&#xff;" horiz-adv-x="375" 
d="M-7 667h389v-667h-389v667zM99 570q5 -9 21 -9q9 0 16.5 5t5.5 7t-6 -2q-7 -4 -16 -4q-12 0 -20 8.5t-8 18.5q0 11 5 19q4 5 3 6q-3 3 -9 -6t-6 -22q0 -23 14 -21zM123 574q22 0 22 30q0 22 -23 22q-7 0 -15 -9t-8 -20q0 -23 24 -23zM148 580q3 -2 6.5 6t3.5 16
q0 14 -9 23t-16 9q-2 0 -2 -1l10.5 -7.5t10.5 -24.5q0 -9 -3 -14.5t-1 -6.5zM227 570q5 -9 21 -9q9 0 16.5 5t5.5 7t-6 -2q-7 -4 -16 -4q-12 0 -20 8.5t-8 18.5q0 11 5 19q4 5 3 6q-3 3 -9 -6t-6 -22q0 -23 14 -21zM251 574q22 0 22 30q0 22 -23 22q-7 0 -15 -9t-8 -20
q0 -23 24 -23zM276 580q3 -2 6.5 6t3.5 16q0 14 -9 23t-16 9q-2 0 -2 -1l10.5 -7.5t10.5 -24.5q0 -9 -3 -14.5t-1 -6.5zM181 171q18 0 18 43q0 10 -1 32q-1 19 -1 27q0 11 48 99q53 99 56 106q1 3 8 10t7 16q-1 13 -20 13q-16 0 -18 -13q-5 -23 -7 -27q-19 -38 -38 -75
q-28 -53 -40 -56q-3 -1 -4 -6t2 -5h11q2 -1 0 -7q-1 -4 -5 -2.5t-6 -0.5q-1 -1 1 -13q2 -10 -5 -10q-2 0 -1 7t-1 10l-88 176q-4 9 -9 18q-3 5 -13 5q-8 0 -16 -7.5t-7 -14.5q0 -5 11 -10t13 -10l92 -186h20q3 0 3 -4t-4 -4l-17 -2l1 -69q0 -8 -3.5 -9t-3.5 -6q0 -25 17 -25
zM54 473q-6 -1 -1 -11l94 -191v-86q0 -4 4 -4t4 4l-2 21q6 15 4 61q0 5 -4 8t-4 11.5t-44.5 98t-50.5 88.5zM214 184q5 0 5 40q1 45 3 49q4 10 58 111q49 92 49 106q0 3 -2 3q-4 0 -6 -11t-11 -15q-95 -172 -96 -193q-3 -90 0 -90zM193 379q4 -2 36 53q27 46 27 50v0
q0 2 -1 2q-3 2 -33 -50.5l-30 -52.5q0 -1 1 -2zM109 499q-1 -1 -1 -3q0 3 17 -38q21 -49 26 -46q2 1 2 3q0 3 -20 46q-8 16 -15 32q-4 8 -9 6z" />
    <glyph glyph-name="Ydieresis" unicode="&#x178;" horiz-adv-x="375" 
d="M-7 667h389v-667h-389v667zM99 570q5 -9 21 -9q9 0 16.5 5t5.5 7t-6 -2q-7 -4 -16 -4q-12 0 -20 8.5t-8 18.5q0 11 5 19q4 5 3 6q-3 3 -9 -6t-6 -22q0 -23 14 -21zM123 574q22 0 22 30q0 22 -23 22q-7 0 -15 -9t-8 -20q0 -23 24 -23zM148 580q3 -2 6.5 6t3.5 16
q0 14 -9 23t-16 9q-2 0 -2 -1l10.5 -7.5t10.5 -24.5q0 -9 -3 -14.5t-1 -6.5zM227 570q5 -9 21 -9q9 0 16.5 5t5.5 7t-6 -2q-7 -4 -16 -4q-12 0 -20 8.5t-8 18.5q0 11 5 19q4 5 3 6q-3 3 -9 -6t-6 -22q0 -23 14 -21zM251 574q22 0 22 30q0 22 -23 22q-7 0 -15 -9t-8 -20
q0 -23 24 -23zM276 580q3 -2 6.5 6t3.5 16q0 14 -9 23t-16 9q-2 0 -2 -1l10.5 -7.5t10.5 -24.5q0 -9 -3 -14.5t-1 -6.5zM181 171q18 0 18 43q0 10 -1 32q-1 19 -1 27q0 11 48 99q53 99 56 106q1 3 8 10t7 16q-1 13 -20 13q-16 0 -18 -13q-5 -23 -7 -27q-19 -38 -38 -75
q-28 -53 -40 -56q-3 -1 -4 -6t2 -5h11q2 -1 0 -7q-1 -4 -5 -2.5t-6 -0.5q-1 -1 1 -13q2 -10 -5 -10q-2 0 -1 7t-1 10l-88 176q-4 9 -9 18q-3 5 -13 5q-8 0 -16 -7.5t-7 -14.5q0 -5 11 -10t13 -10l92 -186h20q3 0 3 -4t-4 -4l-17 -2l1 -69q0 -8 -3.5 -9t-3.5 -6q0 -25 17 -25
zM54 473q-6 -1 -1 -11l94 -191v-86q0 -4 4 -4t4 4l-2 21q6 15 4 61q0 5 -4 8t-4 11.5t-44.5 98t-50.5 88.5zM214 184q5 0 5 40q1 45 3 49q4 10 58 111q49 92 49 106q0 3 -2 3q-4 0 -6 -11t-11 -15q-95 -172 -96 -193q-3 -90 0 -90zM193 379q4 -2 36 53q27 46 27 50v0
q0 2 -1 2q-3 2 -33 -50.5l-30 -52.5q0 -1 1 -2zM109 499q-1 -1 -1 -3q0 3 17 -38q21 -49 26 -46q2 1 2 3q0 3 -20 46q-8 16 -15 32q-4 8 -9 6z" />
    <glyph glyph-name="currency" unicode="&#xa4;" 
d="M33 0v667h334v-667h-334zM40 7h320v653h-320v-653z" />
    <glyph glyph-name="guilsinglleft" unicode="&#x2039;" horiz-adv-x="230" 
d="M-7 667h244v-667h-244v667zM50 345q-2 -6 3 -8q5 -3 6 2q4 12 7 5q10 -22 10 -21q0 -4 -2 -10l63 -76q3 -4 6 -4q4 0 8 5.5l4 5.5q7 0 7 -6t-10 -7.5t-10 -5.5q0 -9 15 -9q13 0 13 17q0 7 -14 24l-81 98q-2 2 -2 3l7 2.5t5 13.5l74 79q3 3 7 4.5t4 5.5q0 15 -13 15
q-10 0 -28 -21q-41 -47 -62 -65q-9 -7 -9 -8q1 -2 12 1q10 3 11 0l-11 -8q-14 -10 -20 -32zM157 432q-60 -60 -60 -74q0 -17 10 -17q2 0 3 2q0 1 -2.5 6t-2.5 8q0 2 2 4l56 65q4 5 1 8q-3 2 -7 -2zM64 309q-5 -3 29 -43.5t37 -37.5q2 2 -37 50q-27 32 -29 31zM118 226
q-1 -1 7 -17q2 -3 7 -2q5 0 3 4q-12 19 -17 15z" />
    <glyph glyph-name="guilsinglright" unicode="&#x203a;" horiz-adv-x="230" 
d="M-7 667h244v-667h-244v667zM166 359q-1 3 -6 7.5t-5 5.5q0 2 3 4t3 3q-1 1 -4 1q-12 1 -36.5 38t-24.5 48q0 3 2 3q-4 5 -11 5q-31 0 -31 -24q0 -19 9 -15q1 0 -2 8q-2 6 1.5 11t10.5 3l12 -4l13 -20q-10 -5 -8 -7l44 -63q3 -4 12 -3t11 -1q2 -3 -7 -16.5t-14 -15.5
q-2 -1 -2.5 4.5t-1.5 5.5l-3 -3l-71 -100q-4 -5 -4 -10q0 -11 10 -11q6 0 11 6q19 26 39 52q27 38 33 58q4 -2 8 -2q10 0 10 17q0 7 -1 15zM71 433q-5 -5 2 -12q22 -32 44 -65q9 -12 13 -11q5 2 5 4t-14.5 23.5l-29 43t-20.5 17.5zM80 278q2 3 -2 4t-7 -3q-15 -22 -14 -23
q5 -4 23 22z" />
    <glyph glyph-name="daggerdbl" unicode="&#x2021;" 
d="M33 0v667h334v-667h-334zM40 7h320v653h-320v-653z" />
    <glyph glyph-name="periodcentered" unicode="&#xb7;" horiz-adv-x="140" 
d="M147 667v-667h-154v667h154zM68 324q9 0 16.5 5t5.5 7t-6 -2q-7 -4 -16 -4q-12 0 -20 8.5t-8 18.5q0 11 5 19q4 5 3 6q-3 3 -9 -6t-6 -22q0 -30 35 -30zM71 337q22 0 22 30q0 22 -23 22q-7 0 -15 -9t-8 -20q0 -23 24 -23zM96 343q3 -2 6.5 6t3.5 16q0 14 -9 23t-16 9
q-2 0 -2 -1l10.5 -7.5t10.5 -24.5q0 -9 -3 -14.5t-1 -6.5z" />
    <glyph glyph-name="periodcentered" unicode="&#x2219;" horiz-adv-x="140" 
d="M147 667v-667h-154v667h154zM68 324q9 0 16.5 5t5.5 7t-6 -2q-7 -4 -16 -4q-12 0 -20 8.5t-8 18.5q0 11 5 19q4 5 3 6q-3 3 -9 -6t-6 -22q0 -30 35 -30zM71 337q22 0 22 30q0 22 -23 22q-7 0 -15 -9t-8 -20q0 -23 24 -23zM96 343q3 -2 6.5 6t3.5 16q0 14 -9 23t-16 9
q-2 0 -2 -1l10.5 -7.5t10.5 -24.5q0 -9 -3 -14.5t-1 -6.5z" />
    <glyph glyph-name="quotesinglbase" unicode="&#x201a;" 
d="M33 0v667h334v-667h-334zM40 7h320v653h-320v-653z" />
    <glyph glyph-name="quotedblbase" unicode="&#x201e;" horiz-adv-x="200" 
d="M207 667v-667h-214v667h214zM108 139q43 6 43 45q0 20 -17 20q-29 0 -29 -19q0 -14 24 -16q2 -2 2 -5q0 -10 -23 -12q-5 0 -5 -7q3 -3 5 -6zM157 191q1 -8 0 -18q-4 -29 -29 -37q-1 -3 3 -3q30 10 31 41q1 6 -1 18q-1 4 -3 3q-2 0 -1 -4zM38 139q43 1 43 45q0 20 -17 20
q-29 0 -29 -19q0 -14 24 -16q2 -2 2 -5q0 -10 -23 -12q-4 0 -4 -7q0 -6 4 -6zM78 203q12 -10 10 -25q0 -18 -13 -32.5t-32 -13.5q-3 -2 0 -4q19 -2 35 14t16 36q-2 18 -12 28q-3 3 -5 1t1 -4z" />
    <glyph glyph-name="perthousand" unicode="&#x2030;" horiz-adv-x="532" 
d="M539 667v-667h-546v667h546zM106 514q-38 0 -47.5 -11t-9.5 -58q0 -44 7 -54q9 -15 46 -15q40 0 49 10t9 61q0 42 -8.5 54.5t-45.5 12.5zM316 498q0 18 -11 18q-9 0 -63 -75q-126 -172 -157 -214q-10 -11 -20 -23q-12 -15 -12 -22q0 -10 12 -10q11 0 77 92
q99 139 155 209q3 4 14 14q5 4 5 11zM104 496q27 0 32 -8.5t5 -39.5q0 -38 -3 -45q-6 -11 -37 -11q-23 0 -28.5 8t-5.5 43q0 36 3 42q6 11 34 11zM42 499q-12 0 -9 -89q2 -50 55 -50t53 6q0 3 -7 2q-19 -2 -41 -2q-53 0 -53 45v58q0 7 3 21q1 9 -1 9zM38 194q4 -3 25 28
t17 33q-2 1 -22 -26q-24 -32 -20 -35zM123 317q4 -3 63 74q55 71 50 74q-4 3 -14 -11q-21 -28 -42 -57l-59 -78zM120 188q3 -1 17 21q38 56 86 123q91 126 91 130q-1 2 -2 3q-4 3 -93 -123q-100 -142 -100 -151q0 -2 1 -3zM76 432q0 -3 2 -3q2 1 2 3q3 37 4 39q2 6 13 6h19
q10 -2 10 -13q0 -33 -3 -42q-4 -13 -20 -13q-5 0 -13 1q-2 0 -3 -2q-1 -1 0 -2q8 -3 24 -2q21 2 21 13v43q0 25 -27 25q-18 0 -23.5 -3.5t-5.5 -21.5v-28zM280 320q-38 0 -47.5 -11t-9.5 -58q0 -44 7 -54q9 -15 46 -15q40 0 49 10t9 61q0 42 -8.5 54.5t-45.5 12.5zM278 302
q27 0 32 -8.5t5 -39.5q0 -38 -3 -45q-6 -11 -37 -11q-23 0 -28.5 8t-5.5 43q0 36 3 42q6 11 34 11zM216 304q-12 0 -9 -89q2 -49 55 -49t53 6q0 3 -7 2q-19 -2 -41 -2q-53 0 -53 45v58q0 7 3 20q1 9 -1 9zM251 238q0 -3 2 -3q2 1 2 3q3 37 4 39q2 6 13 6h19q10 -2 10 -13
q0 -41 -5.5 -48.5t-32.5 -7.5q-5 0 -1 -2q8 -3 24 -2q21 2 21 13v43q0 25 -27 25q-18 0 -23.5 -3.5t-5.5 -21.5v-28zM432 320q-38 0 -47.5 -11t-9.5 -58q0 -44 7 -54q9 -15 46 -15q40 0 49 10t9 61q0 42 -8.5 54.5t-45.5 12.5zM430 302q27 0 32 -8.5t5 -39.5q0 -38 -3 -45
q-6 -11 -37 -11q-23 0 -28.5 8t-5.5 43q0 36 3 42q6 11 34 11zM368 304q-12 0 -9 -89q2 -49 55 -49t53 6q0 3 -7 2q-19 -2 -41 -2q-53 0 -53 45v58q0 7 3 20q1 9 -1 9zM403 238q0 -3 2 -3q2 1 2 3q3 37 4 39q2 6 13 6h19q10 -2 10 -13q0 -41 -5.5 -48.5t-32.5 -7.5
q-5 0 -1 -2q8 -3 24 -2q21 2 21 13v43q0 25 -27 25q-18 0 -23.5 -3.5t-5.5 -21.5v-28z" />
    <glyph glyph-name="Acircumflex" unicode="&#xc2;" 
d="M407 667v-667h-414v667h414zM197 642l-4 -7l-75 -66q-4 -3 -4 -7q0 -14 16 -14q4 0 7 3l71 70l72 -65l4 -6t8 -2q11 0 11 14q0 6 -9 14l-12 10q-26 22 -59 55q-3 5 -13 6q-9 1 -13 -5zM212 600q-1 -1 -1 -2t26 -26.5t27 -25.5q2 0 3 1t1 2q0 2 -26.5 28t-29.5 23z
M206 593q4 4 1 7t-6 0l-50 -51q0 -1 1.5 -2.5t2.5 -1.5q3 0 51 48zM119 580q-1 4 -6 2q-13 -16 -13 -17l2 -2zM246 501q-7 21 -39 21q-31 0 -39 -21q-32 -91 -108 -280q-2 -6 -2 -11q0 -19 15 -19q13 0 17 14l15 52q3 12 31 12h133q22 0 26 -13l14 -46q6 -19 18 -19
q22 0 12 30zM207 501q12 0 18.5 -13t4.5 -15q-1 -2 -3 -2q-1 0 -5.5 7t-7.5 7q-8 0 -2 -16q2 -5 9.5 -8.5t9.5 -8.5l38 -107q1 -8 2 -24q1 -7 6 -7q2 0 2 6t2 6l4 -30q-138 -2 -167 0q25 61 46 126q13 41 16 41t2 -5t4 -5q4 0 8 11t0 11q-3 0 -3.5 -3.5t-4.5 -3.5q-2 0 -2 4
q0 9 6.5 19t16.5 10zM139 476q-48 -121 -96 -247q0 -10 4 -12q5 -2 5.5 4.5t3.5 19.5q65 159 92 232q4 11 -2 11q-4 0 -7 -8zM290 442q-2 7 -7 5q-5 -1 -3 -8q4 -14 64 -195l6 -24q3 -10 7 -10q9 0 2 26q-29 86 -69 206zM125 256q-5 0 -13.5 -19.5t-8.5 -29.5q0 -3 1 -4
q5 -2 14 18q8 17 17 20q6 2 47 2q60 0 85 -2q8 -1 9.5 -18t10.5 -17q8 0 5 20q-3 18 -8.5 24t-24.5 6h-134zM217 437l29 -99q0 -1 2 -14q1 -7 5 -7t2 8q-3 7 -1 7q10 0 5 10q-6 8 -18 44t-14 51q-1 8 -6 8q-6 0 -4 -8zM195 431q4 10 -4 10q-3 0 -5 -6q-34 -86 -34 -99
q0 -3 2 -4q4 -1 20 42q11 28 21 57zM226 318q-38 -1 -38 -8q0 -3 51 -3q5 0 5 4q0 8 -18 7zM162 514q-4 0 -7 -6q-3 -7 1 -7t7 7q3 6 -1 6zM258 495l12 -33q2 -5 8 -4q5 1 3 7l-11 30q-2 6 -8 6q-6 -1 -4 -6z" />
    <glyph glyph-name="Ecircumflex" unicode="&#xca;" horiz-adv-x="390" 
d="M397 667v-667h-404v667h404zM326 504q0 14 -24 16q5 0 -36 0q-99 0 -149 -2q-35 -1 -35 -14q0 -4 5.5 -8t5.5 -14l-2 -261q-18 -15 -18 -18q1 -2 3 -2q12 -2 15 -10t4 -8q3 0 4.5 6t3.5 10l184 -1q12 0 19 -6.5t9 -6.5q15 0 15 23q0 13 -18 13h-186q-10 -1 -14.5 3.5
t-2.5 9.5q3 7 4 41q1 31 6 40q1 1 1 3q0 1 -5.5 5t-5.5 11q0 14 11 14q5 0 7 -4t4 -4q3 0 7.5 2t8.5 2h86q45 0 42 0q15 1 15 15q0 12 -40 12q-6 0 -54 -3t-75 -3q-11 0 -11 12q0 2 1.5 12t1.5 32q0 9 -2.5 32.5t-2.5 27.5q0 16 10 16q6 0 11 -3.5t8 -3.5q5 0 13 4h147
q3 0 14 -1q8 -1 11 0q4 3 4 11zM297 336q0 2 -10 -1q-14 -5 -23 -5h-109q-7 0 -8 2.5t-4 2.5q-2 0 -4 -5.5t-6 -5.5q-3 0 -7 2q-1 -13 -2 -25l2 -45q0 -5 4 -6q5 -1 5 6l1 59q11 3 38 3q18 0 48.5 -1t33.5 -1q41 0 41 20zM70 510q-5 0 -5 -151t5 -151q4 0 4 22q0 -20 0 129
q0 36 1 99q0 34 -1 43t-4 9zM98 179q0 -6 14 -5q32 3 37 3q14 0 46.5 -4t57.5 -4q65 0 65 7t-184 9q-36 0 -36 -6zM146 463l144 -1q30 0 44 14q9 9 -2 9l-8.5 -5.5t-31.5 -6.5q7 5 0 5l-148 2q-9 0 -9 -10q0 -7 11 -7zM151 243q-8 0 -8 -4q0 -5 9 -5q19 0 76 2t60 2
q12 0 28 -4q8 -2 8 3q0 7 -20 7zM142 394q-6 0 -6 -5q0 -7 13 -8h51q73 -1 73 7q-1 1 -7 1l-106 -2q-9 0 -13 3.5t-5 3.5zM135 447q0 8 -3 8q-6 0 -6 -11q0 -31 4 -42q3 -1 6 3zM186 642l-4 -7l-75 -66q-4 -3 -4 -7q0 -14 16 -14q4 0 7 3l71 70l72 -65l4 -6t8 -2q11 0 11 14
q0 6 -9 14l-12 10q-26 22 -59 55q-3 5 -13 6q-9 1 -13 -5zM201 600q-1 -1 -1 -2t26 -26.5t27 -25.5q2 0 3 1t1 2q0 2 -26.5 28t-29.5 23zM195 593q4 4 1 7t-6 0l-50 -51q0 -1 1.5 -2.5t2.5 -1.5q3 0 51 48zM108 580q-1 4 -6 2q-13 -16 -13 -17l2 -2z" />
    <glyph glyph-name="Aacute" unicode="&#xc1;" 
d="M407 667v-667h-414v667h414zM292 633q0 13 -9 13q-8 0 -12 -3q-17 -13 -33 -25q-49 -36 -49 -47t11 -11q10 0 53 34q39 30 39 39zM280 595q4 3 1 6q-2 3 -5 1q-14 -12 -45 -37q-17 -13 -15 -16q6 -9 64 46zM204 600q3 2 0 4t-8 -1q-19 -12 -19 -19q0 -2 2 -4t7.5 5.5
t17.5 14.5zM305 632q-5 0 -7 -3q-3 -3 0 -6q2 -3 8 3t-1 6zM246 488q-7 21 -39 21q-31 0 -39 -21q-32 -91 -108 -280q-2 -6 -2 -11q0 -19 15 -19q13 0 17 14l15 52q3 12 31 12h133q22 0 26 -13l14 -46q6 -19 18 -19q22 0 12 30zM207 488q12 0 18.5 -13t4.5 -15q-1 -2 -3 -2
q-1 0 -5.5 7t-7.5 7q-8 0 -2 -16q2 -5 9.5 -8.5t9.5 -8.5l38 -107q1 -8 2 -24q1 -7 6 -7q2 0 2 6t2 6l4 -30q-138 -2 -167 0q25 61 46 126q13 41 16 41t2 -5t4 -5q4 0 8 11t0 11q-3 0 -3.5 -3.5t-4.5 -3.5q-2 0 -2 4q0 9 6.5 19t16.5 10zM139 463q-48 -121 -96 -247
q0 -10 4 -12q5 -2 5.5 4.5t3.5 19.5q65 159 92 232q4 11 -2 11q-4 0 -7 -8zM290 429q-2 7 -7 5q-5 -1 -3 -8q4 -14 64 -195l6 -24q3 -10 7 -10q9 0 2 26q-29 86 -69 206zM125 243q-5 0 -13.5 -19.5t-8.5 -29.5q0 -3 1 -4q5 -2 14 18q8 17 17 20q6 2 47 2q60 0 85 -2
q8 -1 9.5 -18t10.5 -17q8 0 5 20q-3 18 -8.5 24t-24.5 6h-134zM217 424l29 -99q0 -1 2 -14q1 -7 5 -7t2 8q-3 7 -1 7q10 0 5 10q-6 8 -18 44t-14 51q-1 8 -6 8q-6 0 -4 -8zM195 418q4 10 -4 10q-3 0 -5 -6q-34 -86 -34 -99q0 -3 2 -4q4 -1 20 42q11 28 21 57zM226 305
q-38 -1 -38 -8q0 -3 51 -3q5 0 5 4q0 8 -18 7zM162 501q-4 0 -7 -6q-3 -7 1 -7t7 7q3 6 -1 6zM258 482l12 -33q2 -5 8 -4q5 1 3 7l-11 30q-2 6 -8 6q-6 -1 -4 -6z" />
    <glyph glyph-name="Edieresis" unicode="&#xcb;" horiz-adv-x="390" 
d="M397 667v-667h-404v667h404zM326 504q0 14 -24 16q5 0 -36 0q-99 0 -149 -2q-35 -1 -35 -14q0 -4 5.5 -8t5.5 -14l-2 -261q-18 -15 -18 -18q1 -2 3 -2q12 -2 15 -10t4 -8q3 0 4.5 6t3.5 10l184 -1q12 0 19 -6.5t9 -6.5q15 0 15 23q0 13 -18 13h-186q-10 -1 -14.5 3.5
t-2.5 9.5q3 7 4 41q1 31 6 40q1 1 1 3q0 1 -5.5 5t-5.5 11q0 14 11 14q5 0 7 -4t4 -4q3 0 7.5 2t8.5 2h86q45 0 42 0q15 1 15 15q0 12 -40 12q-6 0 -54 -3t-75 -3q-11 0 -11 12q0 2 1.5 12t1.5 32q0 9 -2.5 32.5t-2.5 27.5q0 16 10 16q6 0 11 -3.5t8 -3.5q5 0 13 4h147
q3 0 14 -1q8 -1 11 0q4 3 4 11zM297 336q0 2 -10 -1q-14 -5 -23 -5h-109q-7 0 -8 2.5t-4 2.5q-2 0 -4 -5.5t-6 -5.5q-3 0 -7 2q-1 -13 -2 -25l2 -45q0 -5 4 -6q5 -1 5 6l1 59q11 3 38 3q18 0 48.5 -1t33.5 -1q41 0 41 20zM70 510q-5 0 -5 -151t5 -151q4 0 4 22q0 -20 0 129
q0 36 1 99q0 34 -1 43t-4 9zM98 179q0 -6 14 -5q32 3 37 3q14 0 46.5 -4t57.5 -4q65 0 65 7t-184 9q-36 0 -36 -6zM146 463l144 -1q30 0 44 14q9 9 -2 9l-8.5 -5.5t-31.5 -6.5q7 5 0 5l-148 2q-9 0 -9 -10q0 -7 11 -7zM151 243q-8 0 -8 -4q0 -5 9 -5q19 0 76 2t60 2
q12 0 28 -4q8 -2 8 3q0 7 -20 7zM142 394q-6 0 -6 -5q0 -7 13 -8h51q73 -1 73 7q-1 1 -7 1l-106 -2q-9 0 -13 3.5t-5 3.5zM135 447q0 8 -3 8q-6 0 -6 -11q0 -31 4 -42q3 -1 6 3zM104 570q5 -9 21 -9q9 0 16.5 5t5.5 7t-6 -2q-7 -4 -16 -4q-12 0 -20 8.5t-8 18.5q0 11 5 19
q4 5 3 6q-3 3 -9 -6t-6 -22q0 -23 14 -21zM128 574q22 0 22 30q0 22 -23 22q-7 0 -15 -9t-8 -20q0 -23 24 -23zM153 580q3 -2 7 6t4 16q0 15 -10 25q-8 7 -15 7q-2 0 -3 -1l10.5 -7.5t10.5 -24.5q0 -9 -3 -14.5t-1 -6.5zM232 570q5 -9 21 -9q9 0 16.5 5t5.5 7t-6 -2
q-7 -4 -16 -4q-12 0 -20 8.5t-8 18.5q0 11 5 19q4 5 3 6q-3 3 -9 -6t-6 -22q0 -23 14 -21zM256 574q22 0 22 30q0 22 -23 22q-7 0 -15 -9t-8 -20q0 -23 24 -23zM281 580q3 -2 7 6t4 16q0 14 -9 23t-16 9q-2 0 -3 -1l10.5 -7.5t10.5 -24.5q0 -9 -3 -14.5t-1 -6.5z" />
    <glyph glyph-name="Egrave" unicode="&#xc8;" horiz-adv-x="390" 
d="M397 667v-667h-404v667h404zM326 504q0 14 -24 16q5 0 -36 0q-99 0 -149 -2q-35 -1 -35 -14q0 -4 5.5 -8t5.5 -14l-2 -261q-18 -15 -18 -18q1 -2 3 -2q12 -2 15 -10t4 -8q3 0 4.5 6t3.5 10l184 -1q12 0 19 -6.5t9 -6.5q15 0 15 23q0 13 -18 13h-186q-10 -1 -14.5 3.5
t-2.5 9.5q3 7 4 41q1 31 6 40q1 1 1 3q0 1 -5.5 5t-5.5 11q0 14 11 14q5 0 7 -4t4 -4q3 0 7.5 2t8.5 2h86q45 0 42 0q15 1 15 15q0 12 -40 12q-6 0 -54 -3t-75 -3q-11 0 -11 12q0 2 1.5 12t1.5 32q0 9 -2.5 32.5t-2.5 27.5q0 16 10 16q6 0 11 -3.5t8 -3.5q5 0 13 4h147
q3 0 14 -1q8 -1 11 0q4 3 4 11zM297 336q0 2 -10 -1q-14 -5 -23 -5h-109q-7 0 -8 2.5t-4 2.5q-2 0 -4 -5.5t-6 -5.5q-3 0 -7 2q-1 -13 -2 -25l2 -45q0 -5 4 -6q5 -1 5 6l1 59q11 3 38 3q18 0 48.5 -1t33.5 -1q41 0 41 20zM70 510q-5 0 -5 -151t5 -151q4 0 4 22q0 -20 0 129
q0 36 1 99q0 34 -1 43t-4 9zM98 179q0 -6 14 -5q32 3 37 3q14 0 46.5 -4t57.5 -4q65 0 65 7t-184 9q-36 0 -36 -6zM146 463l144 -1q30 0 44 14q9 9 -2 9l-8.5 -5.5t-31.5 -6.5q7 5 0 5l-148 2q-9 0 -9 -10q0 -7 11 -7zM151 243q-8 0 -8 -4q0 -5 9 -5q19 0 76 2t60 2
q12 0 28 -4q8 -2 8 3q0 7 -20 7zM142 394q-6 0 -6 -5q0 -7 13 -8h51q73 -1 73 7q-1 1 -7 1l-106 -2q-9 0 -13 3.5t-5 3.5zM135 447q0 8 -3 8q-6 0 -6 -11q0 -31 4 -42q3 -1 6 3zM115 633q0 -9 71 -59q17 -12 22 -12q13 0 13 14q0 4 -3 7q-87 65 -91 65q-12 0 -12 -15z
M162 634q63 -47 66 -47q1 0 2 1q3 3 -64 52q-4 3 -7 1q-3 -3 3 -7zM102 629q0 -7 6.5 -14.5t10.5 -4.5q2 2 -4.5 8.5t-6.5 11t-3 3.5t-3 -4z" />
    <glyph glyph-name="Iacute" unicode="&#xcd;" horiz-adv-x="210" 
d="M217 667v-667h-224v667h224zM167 633q0 13 -9 13q-8 0 -12 -3q-17 -13 -33 -25q-49 -36 -49 -47t11 -11q10 0 53 34q39 30 39 39zM155 595q4 3 1 6q-2 3 -5 1q-14 -12 -45 -37q-17 -13 -15 -16q6 -9 64 46zM79 600q3 2 0 4t-8 -1q-19 -12 -19 -19q0 -2 2 -4t7.5 5.5
t17.5 14.5zM180 632q-5 0 -7 -3q-3 -3 0 -6q2 -3 8 3t-1 6zM113 518q-9 2 -11 0l-12 -12q-6 -6 2 -24v-46q0 -10 1.5 -86.5t1.5 -66.5q0 -80 1 -44q-1 -28 -9 -36q-1 -1 -1 -4q0 -8 8 -17t19 -9q14 0 13 22q-5 154 0 168v135q0 8 -6 14.5t-7 5.5zM71 422q0 -8 6 -8q7 0 4 5
q-2 8 0 18q2 7 -2 7q-8 0 -8 -22zM74 191q0 -4 5 -3t3 4q-2 5 -2 13t2.5 28.5t2.5 31.5q0 12 -2 20q0 87 -1 104q-1 9 -5 9l-4 -6z" />
    <glyph glyph-name="Icircumflex" unicode="&#xce;" horiz-adv-x="210" 
d="M217 667v-667h-223v667h223zM99 642l-4 -7l-75 -66q-4 -3 -4 -7q0 -14 16 -14q4 0 7 3l71 70l72 -65l4 -6t8 -2q11 0 11 14q0 6 -9 14l-12 10q-26 22 -59 55q-3 5 -13 6q-9 1 -13 -5zM114 600q-1 -1 -1 -2t26 -26.5t27 -25.5q2 0 3 1t1 2q0 2 -26.5 28t-29.5 23zM108 593
q4 4 1 7t-6 0l-50 -51q0 -1 1.5 -2.5t2.5 -1.5q3 0 51 48zM21 580q-1 4 -6 2q-13 -16 -13 -17l2 -2zM113 518q-9 2 -11 0l-12 -12q-6 -6 2 -24v-46q0 -10 1.5 -86.5t1.5 -66.5q0 -80 1 -44q-1 -28 -9 -36q-1 -1 -1 -4q0 -8 8 -17t19 -9q14 0 13 22q-5 154 0 168v135
q0 8 -6 14.5t-7 5.5zM71 422q0 -8 6 -8q7 0 4 5q-2 8 0 18q2 7 -2 7q-8 0 -8 -22zM74 191q0 -4 5 -3t3 4q-2 5 -2 13t2.5 28.5t2.5 31.5q0 12 -2 20q0 87 -1 104q-1 9 -5 9l-4 -6z" />
    <glyph glyph-name="Idieresis" unicode="&#xcf;" horiz-adv-x="210" 
d="M217 667v-667h-224v667h224zM19 570q5 -9 21 -9q9 0 16.5 5t5.5 7t-6 -2q-7 -4 -16 -4q-12 0 -20 8.5t-8 18.5q0 11 5 19q4 5 3 6q-3 3 -9 -6t-6 -22q0 -23 14 -21zM43 574q22 0 22 30q0 22 -23 22q-7 0 -15 -9t-8 -20q0 -23 24 -23zM68 580q3 -2 6.5 6t3.5 16
q0 14 -9 23t-16 9q-2 0 -2 -1l10.5 -7.5t10.5 -24.5q0 -9 -3 -14.5t-1 -6.5zM147 570q5 -9 21 -9q9 0 16.5 5t5.5 7t-6 -2q-7 -4 -16 -4q-12 0 -20 8.5t-8 18.5q0 11 5 19q4 5 3 6q-3 3 -9 -6t-6 -22q0 -23 14 -21zM171 574q22 0 22 30q0 22 -23 22q-7 0 -15 -9t-8 -20
q0 -23 24 -23zM196 580q3 -2 6.5 6t3.5 16q0 14 -9 23t-16 9q-2 0 -2 -1l10.5 -7.5t10.5 -24.5q0 -9 -3 -14.5t-1 -6.5zM113 518q-9 2 -11 0l-12 -12q-6 -6 2 -24v-46q0 -10 1.5 -86.5t1.5 -66.5q0 -80 1 -44q-1 -28 -9 -36q-1 -1 -1 -4q0 -8 8 -17t19 -9q14 0 13 22
q-5 154 0 168v135q0 8 -6 14.5t-7 5.5zM71 422q0 -8 6 -8q7 0 4 5q-2 8 0 18q2 7 -2 7q-8 0 -8 -22zM74 191q0 -4 5 -3t3 4q-2 5 -2 13t2.5 28.5t2.5 31.5q0 12 -2 20q0 87 -1 104q-1 9 -5 9l-4 -6z" />
    <glyph glyph-name="Igrave" unicode="&#xcc;" horiz-adv-x="210" 
d="M217 667v-667h-224v667h224zM47 633q0 -9 71 -59q17 -12 22 -12q13 0 13 14q0 4 -3 7q-87 65 -91 65q-12 0 -12 -15zM94 634q63 -47 66 -47q1 0 2 1q3 3 -64 52q-4 3 -7 1q-3 -3 3 -7zM34 629q0 -7 6.5 -14.5t10.5 -4.5q2 2 -4.5 8.5t-6.5 11t-3 3.5t-3 -4zM113 518
q-9 2 -11 0l-12 -12q-6 -6 2 -24v-46q0 -10 1.5 -86.5t1.5 -66.5q0 -80 1 -44q-1 -28 -9 -36q-1 -1 -1 -4q0 -8 8 -17t19 -9q14 0 13 22q-5 154 0 168v135q0 8 -6 14.5t-7 5.5zM71 422q0 -8 6 -8q7 0 4 5q-2 8 0 18q2 7 -2 7q-8 0 -8 -22zM74 191q0 -4 5 -3t3 4q-2 5 -2 13
t2.5 28.5t2.5 31.5q0 12 -2 20q0 87 -1 104q-1 9 -5 9l-4 -6z" />
    <glyph glyph-name="Oacute" unicode="&#xd3;" 
d="M407 667v-667h-414v667h414zM348 341q0 103 -23 135q-27 37 -116 37q-84 0 -105 -17q-34 -28 -34 -135q0 -104 15 -128q24 -40 127 -40q80 0 103 20q33 28 33 128zM325 352q0 -91 -11 -110q-18 -30 -104 -30q-70 0 -91 19q-27 24 -27 106q0 110 15.5 129.5t104.5 19.5
q82 0 102 -33q11 -18 11 -101zM212 467h-54q-57 0 -56 -108q1 -57 6 -62q4 -1 6 4q-5 17 -3 57t7.5 65.5t39.5 30.5q5 1 56 1q40 0 55 -7q12 -6 12 9q0 10 -69 10zM294 434q-5 3 -5 0q-1 -3 2.5 -8t3.5 -24l-1 -122q0 -48 -68 -48q-4 0 -5 -2t3 -3q13 -3 31 1q37 8 46 29
q4 8 4 32v121q0 17 -11 24zM122 184q-8 3 -9 0q-1 -4 5 -6q39 -16 95 -16q121 0 137 62q1 5 -1 6q-3 1 -5 -3q-25 -54 -132 -54q-56 0 -90 11zM44 274q1 -3 5 -3q3 1 3 5q-5 45 -4 81q3 104 27 123q7 5 2 7q-4 3 -9 -2q-30 -37 -30 -127q0 -57 6 -84zM367 394q0 8 -3 8
q-4 -1 -4 -8q0 -79 -3 -114q0 -5 3 -6q3 0 4 4q3 14 3 116zM183 233q-10 0 -10 -3q0 -4 10 -4q11 0 11 4q0 3 -11 3zM60 236q-2 0 -2 -3q0 -6 6.5 -14.5t9.5 -4.5l-6.5 11t-7.5 11zM292 633q0 13 -9 13q-8 0 -12 -3q-17 -13 -33 -25q-49 -36 -49 -47t11 -11q10 0 53 34
q39 30 39 39zM280 595q4 3 1 6q-2 3 -5 1q-14 -12 -45 -37q-17 -13 -15 -16q6 -9 64 46zM204 600q3 2 0 4t-8 -1q-19 -12 -19 -19q0 -2 2 -4t7.5 5.5t17.5 14.5zM305 632q-5 0 -7 -3q-3 -3 0 -6q2 -3 8 3t-1 6z" />
    <glyph glyph-name="Ocircumflex" unicode="&#xd4;" 
d="M407 667v-667h-414v667h414zM348 341q0 103 -23 135q-27 37 -116 37q-84 0 -105 -17q-34 -28 -34 -135q0 -104 15 -128q24 -40 127 -40q80 0 103 20q33 28 33 128zM325 352q0 -91 -11 -110q-18 -30 -104 -30q-70 0 -91 19q-27 24 -27 106q0 110 15.5 129.5t104.5 19.5
q82 0 102 -33q11 -18 11 -101zM212 467h-54q-57 0 -56 -108q1 -57 6 -62q4 -1 6 4q-5 17 -3 57t7.5 65.5t39.5 30.5q5 1 56 1q40 0 55 -7q12 -6 12 9q0 10 -69 10zM294 434q-5 3 -5 0q-1 -3 2.5 -8t3.5 -24l-1 -122q0 -48 -68 -48q-4 0 -5 -2t3 -3q13 -3 31 1q37 8 46 29
q4 8 4 32v121q0 17 -11 24zM122 184q-8 3 -9 0q-1 -4 5 -6q39 -16 95 -16q121 0 137 62q1 5 -1 6q-3 1 -5 -3q-25 -54 -132 -54q-56 0 -90 11zM44 274q1 -3 5 -3q3 1 3 5q-5 45 -4 81q3 104 27 123q7 5 2 7q-4 3 -9 -2q-30 -37 -30 -127q0 -57 6 -84zM367 394q0 8 -3 8
q-4 -1 -4 -8q0 -79 -3 -114q0 -5 3 -6q3 0 4 4q3 14 3 116zM183 233q-10 0 -10 -3q0 -4 10 -4q11 0 11 4q0 3 -11 3zM60 236q-2 0 -2 -3q0 -6 6.5 -14.5t9.5 -4.5l-6.5 11t-7.5 11zM197 642l-4 -7l-75 -66q-4 -3 -4 -7q0 -14 16 -14q4 0 7 3l71 70l72 -65l4 -6t8 -2
q11 0 11 14q0 6 -9 14l-12 10q-26 22 -59 55q-3 5 -13 6q-9 1 -13 -5zM212 600q-1 -1 -1 -2t26 -26.5t27 -25.5q2 0 3 1t1 2q0 2 -26.5 28t-29.5 23zM206 593q4 4 1 7t-6 0l-50 -51q0 -1 1.5 -2.5t2.5 -1.5q3 0 51 48zM119 580q-1 4 -6 2q-13 -16 -13 -17l2 -2z" />
    <glyph glyph-name="Ograve" unicode="&#xd2;" 
d="M407 667v-667h-414v667h414zM348 341q0 103 -23 135q-27 37 -116 37q-84 0 -105 -17q-34 -28 -34 -135q0 -104 15 -128q24 -40 127 -40q80 0 103 20q33 28 33 128zM325 352q0 -91 -11 -110q-18 -30 -104 -30q-70 0 -91 19q-27 24 -27 106q0 110 15.5 129.5t104.5 19.5
q82 0 102 -33q11 -18 11 -101zM212 467h-54q-57 0 -56 -108q1 -57 6 -62q4 -1 6 4q-5 17 -3 57t7.5 65.5t39.5 30.5q5 1 56 1q40 0 55 -7q12 -6 12 9q0 10 -69 10zM294 434q-5 3 -5 0q-1 -3 2.5 -8t3.5 -24l-1 -122q0 -48 -68 -48q-4 0 -5 -2t3 -3q13 -3 31 1q37 8 46 29
q4 8 4 32v121q0 17 -11 24zM122 184q-8 3 -9 0q-1 -4 5 -6q39 -16 95 -16q121 0 137 62q1 5 -1 6q-3 1 -5 -3q-25 -54 -132 -54q-56 0 -90 11zM44 274q1 -3 5 -3q3 1 3 5q-5 45 -4 81q3 104 27 123q7 5 2 7q-4 3 -9 -2q-30 -37 -30 -127q0 -57 6 -84zM367 394q0 8 -3 8
q-4 -1 -4 -8q0 -79 -3 -114q0 -5 3 -6q3 0 4 4q3 14 3 116zM183 233q-10 0 -10 -3q0 -4 10 -4q11 0 11 4q0 3 -11 3zM60 236q-2 0 -2 -3q0 -6 6.5 -14.5t9.5 -4.5l-6.5 11t-7.5 11zM115 633q0 -9 71 -59q17 -12 22 -12q13 0 13 14q0 4 -3 7q-87 65 -91 65q-12 0 -12 -15z
M162 634q63 -47 66 -47q1 0 2 1q3 3 -64 52q-4 3 -7 1q-3 -3 3 -7zM101 629q0 -7 7 -14.5t11 -4.5q2 2 -4.5 8.5t-6.5 11t-3 3.5q-4 -1 -4 -4z" />
    <glyph glyph-name="Uacute" unicode="&#xda;" horiz-adv-x="415" 
d="M422 667v-667h-429v667h429zM87 514q-23 0 -23 -20q0 -5 4.5 -8.5t4.5 -9.5v-183q0 -58 28 -77t115 -19q69 0 88 8q40 15 40 76v111l5 4v86q5 -2 5 6q0 28 -21 28q-7 0 -15.5 -8t-8.5 -14q0 -3 7.5 -6.5t7.5 -16.5q0 -10 -2.5 -68t-2.5 -66q0 -82 -10 -95
q-16 -23 -98 -23q-54 0 -77 8q-34 11 -34 43v189h4v38q0 17 -17 17zM298 478l-3 -186q0 -16 -4 -29l-4 -13q0 -3 3 -4q16 -8 16 48v183q0 8 -4 8t-4 -7zM46 274q-1 -48 32 -76q4 -4 7 0q2 3 -4 9q-25 22 -25 63v167q0 8 -3 6q-4 -2 -4 -7zM115 457q-2 0 -2 -41
q0 -7 -1 -48.5t-1 -52.5t-1 -35q0 -13 1 -17t4 -4q6 0 6 52q0 8 1 53v54q0 39 -7 39zM364 483q-4 0 -4 -73q0 -22 -2 -82q0 -17 4 -17q6 0 6 77q0 95 -4 95zM251 174q0 -6 14 -6q50 0 82 36q20 22 20 67q0 24 -7 24q-2 0 -3 -29q-1 -33 -11 -47q-17 -23 -41 -33
q-15 -5 -38 -7q-16 -2 -16 -5zM94 190q-7 -10 31 -19q33 -8 33 3q0 7 -14 7q-18 0 -32.5 5.5t-13.5 5.5q-2 0 -4 -2zM196 174q-27 1 -27 -3q0 -6 26 -8q29 -2 29 6q0 5 -8 5h-20zM54 492q-3 0 -4 -9q-1 -8 0 -17q2 -9 6 -9q12 0 3 10q-4 4 -3 14.5t-2 10.5zM118 493
q-6 0 -6 -16q0 -8 3 -8q6 0 6 8q0 16 -3 16zM303 633q0 13 -9 13q-8 0 -12 -3q-17 -13 -33 -25q-49 -36 -49 -47t11 -11q10 0 53 34q39 30 39 39zM291 595q4 3 1 6q-2 3 -5 1q-14 -12 -45 -37q-17 -13 -15 -16q6 -9 64 46zM215 600q3 2 0 4t-8 -1q-19 -12 -19 -19q0 -2 2 -4
t7.5 5.5t17.5 14.5zM316 632q-5 0 -7 -3q-3 -3 0 -6q2 -3 8 3t-1 6z" />
    <glyph glyph-name="Ucircumflex" unicode="&#xdb;" horiz-adv-x="415" 
d="M-7 667h429v-667h-429v667zM87 514q-23 0 -23 -20q0 -5 4.5 -8.5t4.5 -9.5v-183q0 -58 28 -77t115 -19q69 0 88 8q40 15 40 76v111l5 4v86q5 -2 5 6q0 28 -21 28q-7 0 -15.5 -8t-8.5 -14q0 -3 7.5 -6.5t7.5 -16.5q0 -10 -2.5 -68t-2.5 -66q0 -82 -10 -95q-16 -23 -98 -23
q-54 0 -77 8q-34 11 -34 43v189h4v38q0 17 -17 17zM298 478l-3 -186q0 -16 -4 -29l-4 -13q0 -3 3 -4q16 -8 16 48v183q0 8 -4 8t-4 -7zM46 274q-1 -48 32 -76q4 -4 7 0q2 3 -4 9q-25 22 -25 63v167q0 8 -3 6q-4 -2 -4 -7zM115 457q-2 0 -2 -41q0 -7 -1 -48.5t-1 -52.5
t-1 -35q0 -13 1 -17t4 -4q6 0 6 52q0 8 1 53v54q0 39 -7 39zM364 483q-4 0 -4 -73q0 -22 -2 -82q0 -17 4 -17q6 0 6 77q0 95 -4 95zM251 174q0 -6 14 -6q50 0 82 36q20 22 20 67q0 24 -7 24q-2 0 -3 -29q-1 -33 -11 -47q-17 -23 -41 -33q-15 -5 -38 -7q-16 -2 -16 -5z
M94 190q-7 -10 31 -19q33 -8 33 3q0 7 -14 7q-18 0 -32.5 5.5t-13.5 5.5q-2 0 -4 -2zM196 174q-27 1 -27 -3q0 -6 26 -8q29 -2 29 6q0 5 -8 5h-20zM54 492q-3 0 -4 -9q-1 -8 0 -17q2 -9 6 -9q12 0 3 10q-4 4 -3 14.5t-2 10.5zM118 493q-6 0 -6 -16q0 -8 3 -8q6 0 6 8
q0 16 -3 16zM197 642l-4 -7l-75 -66q-4 -3 -4 -7q0 -14 16 -14q4 0 7 3l71 70l72 -65l4 -6t8 -2q11 0 11 14q0 6 -9 14l-12 10q-26 22 -59 55q-3 6 -15 6q-8 0 -11 -5zM212 600q-1 -1 -1 -2t26 -26.5t27 -25.5q2 0 3 1t1 2q0 2 -26.5 28t-29.5 23zM206 593q4 4 1 7t-6 0
l-50 -51q0 -1 1.5 -2.5t2.5 -1.5q3 0 51 48zM119 580q-1 4 -6 2q-13 -16 -13 -17l2 -2z" />
    <glyph glyph-name="Ugrave" unicode="&#xd9;" horiz-adv-x="415" 
d="M422 667v-667h-429v667h429zM87 514q-23 0 -23 -20q0 -5 4.5 -8.5t4.5 -9.5v-183q0 -58 28 -77t115 -19q69 0 88 8q40 15 40 76v111l5 4v86q5 -2 5 6q0 28 -21 28q-7 0 -15.5 -8t-8.5 -14q0 -3 7.5 -6.5t7.5 -16.5q0 -10 -2.5 -68t-2.5 -66q0 -82 -10 -95
q-16 -23 -98 -23q-54 0 -77 8q-34 11 -34 43v189h4v38q0 17 -17 17zM298 478l-3 -186q0 -16 -4 -29l-4 -13q0 -3 3 -4q16 -8 16 48v183q0 8 -4 8t-4 -7zM46 274q-1 -48 32 -76q4 -4 7 0q2 3 -4 9q-25 22 -25 63v167q0 8 -3 6q-4 -2 -4 -7zM115 457q-2 0 -2 -41
q0 -7 -1 -48.5t-1 -52.5t-1 -35q0 -13 1 -17t4 -4q6 0 6 52q0 8 1 53v54q0 39 -7 39zM364 483q-4 0 -4 -73q0 -22 -2 -82q0 -17 4 -17q6 0 6 77q0 95 -4 95zM251 174q0 -6 14 -6q50 0 82 36q20 22 20 67q0 24 -7 24q-2 0 -3 -29q-1 -33 -11 -47q-17 -23 -41 -33
q-15 -5 -38 -7q-16 -2 -16 -5zM94 190q-7 -10 31 -19q33 -8 33 3q0 7 -14 7q-18 0 -32.5 5.5t-13.5 5.5q-2 0 -4 -2zM196 174q-27 1 -27 -3q0 -6 26 -8q29 -2 29 6q0 5 -8 5h-20zM54 492q-3 0 -4 -9q-1 -8 0 -17q2 -9 6 -9q12 0 3 10q-4 4 -3 14.5t-2 10.5zM118 493
q-6 0 -6 -16q0 -8 3 -8q6 0 6 8q0 16 -3 16zM115 633q0 -9 71 -59q17 -12 22 -12q13 0 13 14q0 4 -3 7q-87 65 -91 65q-12 0 -12 -15zM162 634q63 -47 66 -47q1 0 2 1q3 3 -64 52q-4 3 -7 1q-3 -3 3 -7zM102 629q0 -7 6.5 -14.5t10.5 -4.5q2 2 -4.5 8.5t-6.5 11t-3 3.5
t-3 -4z" />
    <glyph glyph-name="circumflex" unicode="&#x2c6;" 
d="M-7 667h414v-667h-414v667zM197 642l-4 -7l-75 -66q-4 -3 -4 -7q0 -14 16 -14q4 0 7 3l71 70l72 -65l4 -6t8 -2q11 0 11 14q0 6 -9 14l-12 10q-26 22 -59 55q-3 5 -13 6q-9 1 -13 -5zM212 600q-1 -1 -1 -2t26 -26.5t27 -25.5q2 0 3 1t1 2q0 2 -26.5 28t-29.5 23zM206 593
q4 4 1 7t-6 0l-50 -51q0 -1 1.5 -2.5t2.5 -1.5q3 0 51 48zM119 580q-1 4 -6 2q-13 -16 -13 -17l2 -2z" />
    <glyph glyph-name="tilde" unicode="&#x2dc;" 
d="M407 667v-667h-414v667h414zM171 596q13 0 30 -8.5t31 -8.5q16 0 33.5 9t17.5 23q0 12 -14 12q-7 0 -17.5 -10t-21.5 -10q-16 0 -30 8.5t-34 8.5q-34 0 -46 -19q-4 -7 -1 -15q4 -7 12 -7q12 0 19 8.5t21 8.5zM112 576q-1 -1 -1 -3q0 -9 23 -9q15 0 25 8t15 8q10 0 25 -9
t30 -9q33 0 33 8q0 1 -2 3t-9 0q-13 -3 -23 -3q-12 0 -27.5 9t-28.5 9q-9 0 -17.5 -8t-20.5 -8q-9 0 -14.5 3t-7.5 1zM240 620q1 -1 3 -1l8 5t19 5q13 0 17.5 -9.5t7.5 -9.5t3 4q0 22 -31 22q-12 0 -21.5 -6t-5.5 -10zM106 600q2 -1 3.5 3t3.5 6q7 7 5 9q-4 6 -12 -4
q-10 -13 0 -14z" />
    <glyph glyph-name="macron" unicode="&#xaf;" 
d="M33 0v667h334v-667h-334zM40 7h320v653h-320v-653z" />
    <glyph glyph-name="macron" unicode="&#x2c9;" 
d="M33 0v667h334v-667h-334zM40 7h320v653h-320v-653z" />
    <glyph glyph-name="cedilla" unicode="&#xb8;" 
d="M33 0v667h334v-667h-334zM40 7h320v653h-320v-653z" />
    <glyph glyph-name="brokenbar" unicode="&#xa6;" horiz-adv-x="185" 
d="M-7 667h200v-667h-200v667z" />
  </font>
</defs>
</svg>
